<?xml version="1.0" encoding="UTF-8"?>
<svg id="a" data-name="Layer 1" xmlns="http://www.w3.org/2000/svg" width="805.71" height="959.84" viewBox="0 0 805.71 959.84">
  <g>
    <path d="M72.52,161.21L0,35.6l28.17-16.26c25.37-14.64,42.51-12.42,57.06,12.78,7.58,13.12,7.07,24.37.85,33.8l.2.35c13.65-1.81,23.48,5.11,31.76,19.45,17.88,30.96,5.22,46.2-17.18,59.13l-28.34,16.36ZM58.75,69.09c7.52-4.34,7.07-10.38,1.52-20-5.76-9.97-11.15-10.82-16.57-7.69l-5.42,3.13,15.76,27.29,4.72-2.73ZM90.22,119.97c6.3-3.64,7.15-9.03.48-20.57-6.46-11.2-11.79-13.95-19.14-9.71l-5.42,3.13,17.78,30.79,6.3-3.64Z"/>
    <path d="M251.19,158.69l-72.52-125.61L235,.56l13.63,23.62-30.96,17.88,14.95,25.89,24.84-14.34,13.03,22.57-24.84,14.34,17.27,29.92,32.71-18.89,13.63,23.62-58.08,33.53Z"/>
    <path d="M461.52,136.67l-18.63-25.4-15.57,8.99,13.03,28.63-25.89,14.95-53.1-136.82,32.54-18.79,93.33,113.59-25.72,14.85ZM416.67,96.55l10.85-6.26-32.52-44.2-.88.51,22.55,49.96Z"/>
    <path d="M606.78,150.15l-58.88-101.99-17.14,9.9-13.63-23.62L576.77,0l13.63,23.62-17.14,9.9,58.88,101.99-25.37,14.64Z"/>
    <path d="M740.48,46.54c-4.26-6.17-9.98-12.43-16.45-8.7-4.55,2.63-4.48,6.79-2.16,10.81,13.53,23.44,56.31,7.84,77.82,45.11,11.51,19.94,6.34,39.26-14.13,51.08-23.09,13.33-37.33,5.23-51.26-15.66l22.43-15.28c6.25,9.22,10.66,13.21,16.96,9.57,4.37-2.52,5.35-7.29,1.82-13.41-13.84-23.97-55.66-9.15-76.57-45.36-10.6-18.37-7.63-36.65,12.31-48.16,23.79-13.74,38.9-1.7,50.6,15.34l-21.38,14.68Z"/>
  </g>
  <g>
    <path d="M72.52,321.21L0,195.6l28.17-16.26c25.37-14.64,42.51-12.42,57.06,12.78,7.58,13.12,7.07,24.37.85,33.8l.2.35c13.65-1.81,23.48,5.11,31.76,19.45,17.88,30.96,5.22,46.2-17.18,59.13l-28.34,16.36ZM58.75,229.09c7.52-4.34,7.07-10.38,1.52-20-5.76-9.97-11.15-10.82-16.57-7.69l-5.42,3.13,15.76,27.29,4.72-2.73ZM90.22,279.97c6.3-3.64,7.15-9.03.48-20.57-6.46-11.2-11.79-13.95-19.14-9.71l-5.42,3.13,17.78,30.79,6.3-3.64Z"/>
    <path d="M251.19,318.69l-72.52-125.61,56.33-32.52,13.63,23.62-30.96,17.88,14.95,25.89,24.84-14.34,13.03,22.57-24.84,14.34,17.27,29.92,32.71-18.89,13.63,23.62-58.08,33.53Z"/>
    <path d="M461.52,296.67l-18.63-25.4-15.57,8.99,13.03,28.63-25.89,14.95-53.1-136.82,32.54-18.79,93.33,113.59-25.72,14.85ZM416.67,256.55l10.85-6.26-32.52-44.2-.88.51,22.55,49.96Z"/>
    <path d="M606.78,310.15l-58.88-101.99-17.14,9.9-13.63-23.62,59.66-34.44,13.63,23.62-17.14,9.9,58.88,101.99-25.37,14.64Z"/>
    <path d="M740.48,206.54c-4.26-6.17-9.98-12.43-16.45-8.7-4.55,2.63-4.48,6.79-2.16,10.81,13.53,23.44,56.31,7.84,77.82,45.11,11.51,19.94,6.34,39.26-14.13,51.08-23.09,13.33-37.33,5.23-51.26-15.66l22.43-15.28c6.25,9.22,10.66,13.21,16.96,9.57,4.37-2.52,5.35-7.29,1.82-13.41-13.84-23.97-55.66-9.15-76.57-45.36-10.6-18.37-7.63-36.65,12.31-48.16,23.79-13.74,38.9-1.7,50.6,15.34l-21.38,14.68Z"/>
  </g>
  <g>
    <path d="M72.52,481.21L0,355.6l28.17-16.26c25.37-14.64,42.51-12.42,57.06,12.78,7.58,13.12,7.07,24.37.85,33.8l.2.35c13.65-1.81,23.48,5.11,31.76,19.45,17.88,30.96,5.22,46.2-17.18,59.13l-28.34,16.36ZM58.75,389.09c7.52-4.34,7.07-10.38,1.52-20-5.76-9.97-11.15-10.82-16.57-7.69l-5.42,3.13,15.76,27.29,4.72-2.73ZM90.22,439.97c6.3-3.64,7.15-9.03.48-20.57-6.46-11.2-11.79-13.95-19.14-9.71l-5.42,3.13,17.78,30.79,6.3-3.64Z"/>
    <path d="M251.19,478.69l-72.52-125.61,56.33-32.52,13.63,23.62-30.96,17.88,14.95,25.89,24.84-14.34,13.03,22.57-24.84,14.34,17.27,29.92,32.71-18.89,13.63,23.62-58.08,33.53Z"/>
    <path d="M461.52,456.67l-18.63-25.4-15.57,8.99,13.03,28.63-25.89,14.95-53.1-136.82,32.54-18.79,93.33,113.59-25.72,14.85ZM416.67,416.55l10.85-6.26-32.52-44.2-.88.51,22.55,49.96Z"/>
    <path d="M606.78,470.15l-58.88-101.99-17.14,9.9-13.63-23.62,59.66-34.44,13.63,23.62-17.14,9.9,58.88,101.99-25.37,14.64Z"/>
    <path d="M740.48,366.54c-4.26-6.17-9.98-12.43-16.45-8.7-4.55,2.63-4.48,6.79-2.16,10.81,13.53,23.44,56.31,7.84,77.82,45.11,11.51,19.94,6.34,39.26-14.13,51.08-23.09,13.33-37.33,5.23-51.26-15.66l22.43-15.28c6.25,9.22,10.66,13.21,16.96,9.57,4.37-2.52,5.35-7.29,1.82-13.41-13.84-23.97-55.66-9.15-76.57-45.36-10.6-18.37-7.63-36.65,12.31-48.16,23.79-13.74,38.9-1.7,50.6,15.34l-21.38,14.68Z"/>
  </g>
  <g>
    <path d="M72.52,641.21L0,515.6l28.17-16.26c25.37-14.64,42.51-12.42,57.06,12.78,7.58,13.12,7.07,24.37.85,33.8l.2.35c13.65-1.81,23.48,5.11,31.76,19.45,17.88,30.96,5.22,46.2-17.18,59.13l-28.34,16.36ZM58.75,549.09c7.52-4.34,7.07-10.38,1.52-20-5.76-9.97-11.15-10.82-16.57-7.69l-5.42,3.13,15.76,27.29,4.72-2.73ZM90.22,599.97c6.3-3.64,7.15-9.03.48-20.57-6.46-11.2-11.79-13.95-19.14-9.71l-5.42,3.13,17.78,30.79,6.3-3.64Z"/>
    <path d="M251.19,638.69l-72.52-125.61,56.33-32.52,13.63,23.62-30.96,17.88,14.95,25.89,24.84-14.34,13.03,22.57-24.84,14.34,17.27,29.92,32.71-18.89,13.63,23.62-58.08,33.53Z"/>
    <path d="M461.52,616.67l-18.63-25.4-15.57,8.99,13.03,28.63-25.89,14.95-53.1-136.82,32.54-18.79,93.33,113.59-25.72,14.85ZM416.67,576.55l10.85-6.26-32.52-44.2-.88.51,22.55,49.96Z"/>
    <path d="M606.78,630.15l-58.88-101.99-17.14,9.9-13.63-23.62,59.66-34.44,13.63,23.62-17.14,9.9,58.88,101.99-25.37,14.64Z"/>
    <path d="M740.48,526.54c-4.26-6.17-9.98-12.43-16.45-8.7-4.55,2.63-4.48,6.79-2.16,10.81,13.53,23.44,56.31,7.84,77.82,45.11,11.51,19.94,6.34,39.26-14.13,51.08-23.09,13.33-37.33,5.23-51.26-15.66l22.43-15.28c6.25,9.22,10.66,13.21,16.96,9.57,4.37-2.52,5.35-7.29,1.82-13.41-13.84-23.97-55.66-9.15-76.57-45.36-10.6-18.37-7.63-36.65,12.31-48.16,23.79-13.74,38.9-1.7,50.6,15.34l-21.38,14.68Z"/>
  </g>
  <g>
    <path d="M72.52,801.21L0,675.6l28.17-16.26c25.37-14.64,42.51-12.42,57.06,12.78,7.58,13.12,7.07,24.37.85,33.8l.2.35c13.65-1.81,23.48,5.11,31.76,19.45,17.88,30.96,5.22,46.2-17.18,59.13l-28.34,16.36ZM58.75,709.09c7.52-4.34,7.07-10.38,1.52-20-5.76-9.97-11.15-10.82-16.57-7.69l-5.42,3.13,15.76,27.29,4.72-2.73ZM90.22,759.97c6.3-3.64,7.15-9.03.48-20.57-6.46-11.2-11.79-13.95-19.14-9.71l-5.42,3.13,17.78,30.79,6.3-3.64Z"/>
    <path d="M251.19,798.69l-72.52-125.61,56.33-32.52,13.63,23.62-30.96,17.88,14.95,25.89,24.84-14.34,13.03,22.57-24.84,14.34,17.27,29.92,32.71-18.89,13.63,23.62-58.08,33.53Z"/>
    <path d="M461.52,776.67l-18.63-25.4-15.57,8.99,13.03,28.63-25.89,14.95-53.1-136.82,32.54-18.79,93.33,113.59-25.72,14.85ZM416.67,736.55l10.85-6.26-32.52-44.2-.88.51,22.55,49.96Z"/>
    <path d="M606.78,790.15l-58.88-101.99-17.14,9.9-13.63-23.62,59.66-34.44,13.63,23.62-17.14,9.9,58.88,101.99-25.37,14.64Z"/>
    <path d="M740.48,686.54c-4.26-6.17-9.98-12.43-16.45-8.7-4.55,2.63-4.48,6.79-2.16,10.81,13.53,23.44,56.31,7.84,77.82,45.11,11.51,19.94,6.34,39.26-14.13,51.08-23.09,13.33-37.33,5.23-51.26-15.66l22.43-15.28c6.25,9.22,10.66,13.21,16.96,9.57,4.37-2.52,5.35-7.29,1.82-13.41-13.84-23.97-55.66-9.15-76.57-45.36-10.6-18.37-7.63-36.65,12.31-48.16,23.79-13.74,38.9-1.7,50.6,15.34l-21.38,14.68Z"/>
  </g>
  <g>
    <path d="M72.52,961.21L0,835.6l28.17-16.26c25.37-14.64,42.51-12.42,57.06,12.78,7.58,13.12,7.07,24.37.85,33.8l.2.35c13.65-1.81,23.48,5.11,31.76,19.45,17.88,30.96,5.22,46.2-17.18,59.13l-28.34,16.36ZM58.75,869.09c7.52-4.34,7.07-10.38,1.52-20-5.76-9.97-11.15-10.82-16.57-7.69l-5.42,3.13,15.76,27.29,4.72-2.73ZM90.22,919.97c6.3-3.64,7.15-9.03.48-20.57-6.46-11.2-11.79-13.95-19.14-9.71l-5.42,3.13,17.78,30.79,6.3-3.64Z"/>
    <path d="M251.19,958.69l-72.52-125.61,56.33-32.52,13.63,23.62-30.96,17.88,14.95,25.89,24.84-14.34,13.03,22.57-24.84,14.34,17.27,29.92,32.71-18.89,13.63,23.62-58.08,33.53Z"/>
    <path d="M461.52,936.67l-18.63-25.4-15.57,8.99,13.03,28.63-25.89,14.95-53.1-136.82,32.54-18.79,93.33,113.59-25.72,14.85ZM416.67,896.55l10.85-6.26-32.52-44.2-.88.51,22.55,49.96Z"/>
    <path d="M606.78,950.15l-58.88-101.99-17.14,9.9-13.63-23.62,59.66-34.44,13.63,23.62-17.14,9.9,58.88,101.99-25.37,14.64Z"/>
    <path d="M740.48,846.54c-4.26-6.17-9.98-12.43-16.45-8.7-4.55,2.63-4.48,6.79-2.16,10.81,13.53,23.44,56.31,7.84,77.82,45.11,11.51,19.94,6.34,39.26-14.13,51.08-23.09,13.33-37.33,5.23-51.26-15.66l22.43-15.28c6.25,9.22,10.66,13.21,16.96,9.57,4.37-2.52,5.35-7.29,1.82-13.41-13.84-23.97-55.66-9.15-76.57-45.36-10.6-18.37-7.63-36.65,12.31-48.16,23.79-13.74,38.9-1.7,50.6,15.34l-21.38,14.68Z"/>
  </g>
</svg>