<?xml version="1.0" encoding="UTF-8"?>
<svg id="a" data-name="Layer 1" xmlns="http://www.w3.org/2000/svg" width="940" height="940" viewBox="0 0 940 940">
  <path d="M582.49,136.6l14.33-30.63c5.67-12.11,2.06-20.19-5.52-28.85l1.8-3.84,39.36,18.42-1.8,3.84c-12.78-.3-21.3,1.53-27.57,14.92l-9.37,20.03,42.94-9.86c5.43-1.29,10.92-2.7,12.77-6.66,1.53-3.26.45-7.03-5.96-12.44l1.8-3.84,44.25,20.71-1.8,3.84c-11.64-.9-19.76-1.15-35.54,2.54l-26.35,6.26,8.04,30.45c3.44,12.97,10.71,26.87,19.54,34.69l-1.8,3.84-46.47-21.74,1.8-3.84c8.27,1.74,14.39.49,16.63-4.29,1.85-3.96,1.68-8.44.08-14.73l-6.11-22.45-27.95,6.65c-5.13,12.79-1.6,20.4,6.53,29.74l-1.8,3.84-39.36-18.42,1.8-3.84c11.51.28,20.07-2.25,25.74-14.36Z" style="fill: #183bff;"/>
  <path d="M681.58,191.05l22.83-24.94c9.03-9.86,8-18.65,3.35-29.18l2.87-3.13,59.93,54.87-14.93,22.59-3.15-1.32c1.72-10.63-1.34-22.15-8.83-29.01l-8.63-7.9c-9.29-8.51-18.93-8.27-25.62-.96l-6.16,6.73,13.56,12.42c7.21,6.6,11.04,8.89,21.14,4.71l2.66,2.43-21.45,23.42-2.66-2.43c3.71-10.9.92-14.33-6.29-20.93l-13.56-12.42-8.42,9.2c-8.51,9.29-6.62,17.13,3.34,26.24l10.24,9.38c10.62,9.72,21.99,9.5,33.11,8l1.06,3.41-26,12.98-60.12-55.05,2.87-3.13c10.9,3.71,19.83,3.86,28.86-6Z" style="fill: #183bff;"/>
  <path d="M749.63,260.98l28.84-17.65c11.4-6.98,12.85-15.7,11.29-27.11l3.62-2.21,42.42,69.31-20.6,17.58-2.67-2.14c4.59-9.74,4.84-21.65-.47-30.32l-6.11-9.98c-6.58-10.75-15.91-13.18-24.35-8.01l-7.79,4.77,9.6,15.68c5.1,8.33,8.15,11.59,19.01,10.37l1.88,3.07-27.09,16.58-1.88-3.07c6.58-9.45,4.84-13.52-.26-21.85l-9.6-15.68-10.64,6.51c-10.75,6.58-11.1,14.63-4.05,26.15l7.25,11.84c7.52,12.28,18.5,15.21,29.61,16.85l.08,3.57-28.58,5.28-42.56-69.53,3.62-2.22c9.45,6.58,17.99,9.19,29.39,2.21Z" style="fill: #183bff;"/>
  <path d="M795.35,347.07l32.52-9.27c12.86-3.67,16.59-11.68,18.15-23.09l4.08-1.16,15.16,53.17c4.73,16.57-1.09,30.39-16.79,34.87s-26.45-4.62-31.18-21.19l-8.32-29.18-11.38,3.24c-12.74,3.63-16.27,11.86-17.55,26.13l-4.08,1.16-12.41-43.52,4.08-1.16c7.34,8.87,14.86,13.68,27.72,10.01ZM827.28,380.74c2.71,9.52,9.83,15.25,18.24,12.85,8.41-2.4,11.31-10.98,8.59-20.5l-5.43-19.04c-2.36-8.28-7.82-11.94-16.35-9.51l-14.22,4.06,9.17,32.15Z" style="fill: #183bff;"/>
  <path d="M814.07,435.18l33.71-2.62c13.33-1.04,18.57-8.28,22.31-19.92l4.23-.33,3.41,43.84-4.23.33c-5.49-10.92-11.79-17.27-25.12-16.23l-33.71,2.62c-13.33,1.04-18.7,8.29-22.44,19.93l-4.23.33-3.41-43.84,4.23-.33c5.49,10.92,11.92,17.26,25.25,16.22Z" style="fill: #183bff;"/>
  <path d="M805.03,532.64l50.97-35.04-39.01-6.05c-14.48-2.25-20.87,3.66-27.74,14.44l-4.19-.65,6.66-42.95,4.19.65c2.96,11.13,7.8,18.51,21.01,20.56l33.42,5.18c13.09,2.03,19.94-3.54,26.13-13.25l4.19.65-5.08,32.78c-9.02-1.4-20.93-.12-26.49,3.83l-49.16,34.27,39.01,6.05c14.48,2.25,20.87-3.66,27.74-14.44l4.19.65-6.66,42.95-4.19-.65c-2.96-11.13-7.78-18.64-20.87-20.67l-62.51-9.69,1.22-7.88c8.89,1.38,18.13-4.48,27.17-10.75Z" style="fill: #183bff;"/>
  <path d="M814.57,588.56c25.69,13.3,31.86,41.1,19.86,64.28-4.79,9.25-10.67,14.46-16.76,18.11l3.58,7.35-1.95,3.77-31.88-6.66.58-4.48c16.71-2.64,25.87-11.94,33.03-25.76,10.11-19.52,6.16-41.26-10.06-49.65-18.61-9.64-35.97,1.79-45.84,20.86-8.16,15.76-8.65,30.41.83,35.32,5.71,2.96,11.93-2.08,14.71-7.44l5.08-9.82,9.13,4.73-21.87,42.25-9.13-4.73,2.48-4.8c3.07-5.94.92-12.12-3.99-14.66-4.45-2.31-10.51-.67-13.9,3.08l-3.54-1.83c-4.28-14.95-2.42-32.24,6.03-48.57,14.07-27.18,39.75-33.71,63.62-21.36Z" style="fill: #183bff;"/>
  <path d="M717.59,707.67l24.01,23.81c9.49,9.42,18.4,8.65,29.65,3.88l3.01,2.99-30.97,31.22-3.01-2.99c4.68-11.29,5.37-20.2-4.12-29.62l-24.01-23.81c-9.49-9.42-18.49-8.74-29.74-3.97l-3.01-2.99,30.97-31.22,3.01,2.99c-4.68,11.29-5.28,20.29,4.21,29.71Z" style="fill: #183bff;"/>
  <path d="M663.97,752.83l17.9,26.86c6.56,9.84,12.98,11.13,20.47,6.14l1.5-1c6.1-4.06,10.52-12.27,10.95-24.6l4.14-.75,8.88,27.46-3.53,2.35-2.67-.54-53.07,35.37-.54,2.67-3.53,2.35-21.93-18.76,2.28-3.53c11.55,4.35,21.15,3.21,27.03-.71l1.5-1c7.49-4.99,8.67-11.34,2.11-21.18l-17.9-26.86c-7.27-10.91-16.12-12.59-28.35-9.85l-2.35-3.53,36.59-24.39,2.35,3.53c-7.24,10.23-9.1,19.04-1.82,29.95Z" style="fill: #183bff;"/>
  <path d="M578.58,796.4l7.73,31.6c2.99,12.24,10.67,18.17,22.69,20.26l1.01,4.12-54.45,13.32c-17.36,4.25-30.7-2.68-34.43-17.92-3.63-14.86,4.62-26.02,22.61-30.41l3.75-.92-3.41-3.67c-8.09-8.74-21.25-15.98-29.49-13.96-3,.73-5.12,1.78-7.57,3.7l-3.7-2.67,9.42-18.32c8.98-.08,20.36,6.93,30.81,18.81l12.31,14.06,18.11-4.43-2.84-11.62c-3.15-12.86-10.67-17.11-23.7-18.96l-1.01-4.12,42.21-10.33,1.01,4.12c-9.71,7.4-14.08,14.96-11.05,27.32ZM541.75,827.64c-9.62,2.35-14.36,8.94-12.28,17.43,2.02,8.24,8.92,11.58,18.79,9.17l21.23-5.19c8.37-2.05,12.02-8.23,9.91-16.85l-3.18-12.99-34.47,8.43Z" style="fill: #183bff;"/>
  <path d="M484.06,813.81l-1.28,33.79c-.51,13.36,5.96,19.4,16.32,24.42l-.16,4.24-81.2-3.08-3.23-26.88,3.26-1.03c5.57,9.22,15.35,16.02,25.5,16.41l11.69.44c12.59.48,19.78-5.94,20.16-15.83l.35-9.12-18.37-.7c-9.76-.37-14.17.36-19.17,10.08l-3.6-.14,1.2-31.73,3.6.14c4.23,10.71,8.57,11.52,18.33,11.89l18.37.7.47-12.46c.48-12.59-6.03-17.34-19.52-17.85l-13.88-.53c-14.39-.55-22.91,6.98-30.43,15.32l-3.01-1.92,11.43-26.71,81.46,3.09-.16,4.24c-10.71,4.23-17.62,9.88-18.12,23.24Z" style="fill: #183bff;"/>
  <path d="M384.76,800.54l-26.61,31.13c-2.53,2.93-4.16,5.63-5.05,8.17-2.05,5.82,1.36,11.65,7.01,16.91l-1.41,4-50.95-17.9,1.41-4c7.69-.57,13.63-3.12,15.68-8.94.89-2.55,1.19-5.71,1.05-9.58l-1.17-40.89c-.37-12.53-4.61-19.06-12.8-26.03l1.41-4,40.4,14.19-1.41,4c-8.49-.67-15.03,1.67-17.29,8.1-1.15,3.28-1.76,8.1-1.91,12.82l39.79,13.98c3.24-4.18,5.25-7.56,6.52-11.2,2.26-6.43-1.39-12.34-8.43-17.13l1.41-4,40.4,14.19-1.41,4c-10.74.31-18.5,2.63-26.63,12.18ZM333.22,799.47l1.64,39.55,5.22,1.83,25.78-29.92-32.63-11.46Z" style="fill: #183bff;"/>
  <path d="M285.62,761.94l-19.96,27.3c-7.89,10.79-5.91,19.41-.13,29.37l-2.5,3.43-35.08-25.65,2.5-3.42c12.48,2.75,20.26,3.66,28.98-8.27l18.36-25.12c7.59-10.38,4.77-17.85-6.13-25.82l-5.4-3.95c-11.73-8.57-26.15-10.2-37.05-7.49l-1.75-4.15,24.42-15.75,64.25,46.97-2.5,3.42c-11.24-2.49-20.13-1.66-28.02,9.14Z" style="fill: #183bff;"/>
  <path d="M213.45,670.46l8.3-.83,2.17,3.19-22.13,25.98-2.87-1.93c4.13-18.37.82-34.64-8.38-48.13-9.92-14.56-19.7-15.2-24.27-12.09-20.4,13.9,29.27,58.01,3.03,75.9-10.73,7.31-27.79,2.6-39.38-14.4-5.43-7.97-7.47-15.76-7.51-22.89l-7.48.9-2.17-3.19,18.76-24.3,3.16,1.89c-3.28,13.91-.04,27.1,7.92,38.79,8.26,12.11,17.92,15.33,22.59,12.14,15.41-10.5-33.4-57.68-3.87-77.81,12.86-8.76,30.37-1.56,41.3,14.48,6.01,8.82,10.82,22.04,10.82,32.31Z" style="fill: #183bff;"/>
  <path d="M149.95,602.96l-31.22,12.99c-12.34,5.14-15.07,13.65-14.99,25.88l-3.92,1.63-16.9-40.59,3.92-1.63c8.62,8.67,16.58,12.73,28.93,7.6l31.22-12.99c12.34-5.14,15.19-13.7,15.11-25.93l3.92-1.63,16.9,40.59-3.92,1.63c-8.62-8.67-16.7-12.69-29.04-7.55Z" style="fill: #183bff;"/>
  <path d="M128.4,507.45l-37.7,49.02,38.97-6.26c14.47-2.32,18.72-9.91,21.94-22.27l4.19-.67,6.89,42.9-4.19.67c-6.24-9.67-13.12-15.21-26.32-13.09l-33.38,5.36c-13.07,2.1-17.87,9.51-20.77,20.65l-4.19.67-5.26-32.75c9.01-1.45,19.95-6.33,24.02-11.8l36.21-47.74-38.97,6.26c-14.47,2.32-18.72,9.91-21.94,22.27l-4.19.67-6.89-42.9,4.19-.67c6.24,9.67,13.14,15.34,26.21,13.24l62.45-10.03,1.26,7.87c-8.89,1.43-15.87,9.84-22.54,18.59Z" style="fill: #183bff;"/>
  <path d="M102.81,457.86c-28.63-4.12-43.7-27.6-40.18-52.03,1.41-9.8,5.49-17.39,9.84-22.35l-5.83-5.52.6-4.2,32.3-4.18.94,4.29c-12.01,6.71-20.33,16.69-22.84,34.12-3.17,22.02,8.76,39.32,26.32,41.85,19.98,2.88,33.21-10.54,36.42-32.81,2.47-17.18-3.2-30.99-16.41-43.02l2.28-3.18c20.95,9.64,32.39,26.75,29.27,48.38-4.03,28-26.12,42.48-52.72,38.65Z" style="fill: #183bff;"/>
  <path d="M141.02,349.05l-30.78-13.99c-12.17-5.53-20.21-1.84-28.78,5.84l-3.86-1.76,33.63-73.98,26.1,7.2-.28,3.4c-10.64,1.66-20.64,8.13-24.85,17.38l-4.84,10.65c-5.21,11.47-2,20.56,7.01,24.66l8.31,3.78,7.61-16.74c4.04-8.9,5.03-13.25-2.06-21.56l1.49-3.28,28.91,13.14-1.49,3.28c-11.51-.15-13.91,3.56-17.95,12.46l-7.61,16.74,11.35,5.16c11.47,5.21,18.33.99,23.92-11.3l5.75-12.64c5.96-13.11,2.22-23.85-2.64-33.97l2.92-2.06,20.39,20.71-33.73,74.21-3.86-1.76c.15-11.51-2.47-20.05-14.64-25.58Z" style="fill: #183bff;"/>
  <path d="M209.36,196.25c-5.16-4.83-12.96-4.03-20.6,4.13-7.73,8.26-8.3,18.83-3.82,27.78l-2.72,2.91-12.92,2.7c-5.85-14.82-2.28-30.85,8.26-42.11,11.25-12.01,27.24-15.54,38.59-4.9,15.76,14.77-1.17,44.7-.56,57.78,4.46.13,9.71-3.59,14.28-8.47,6.06-6.48,12.6-17.97,11-25.28l3.47-2.39,9.1,19.62-1.34,3.5-36.21,38.66-8.3-.55c-9.71-27.24,15.29-60.72,1.78-73.38Z" style="fill: #183bff;"/>
  <path d="M239.33,188.87c-12.03-18.25-11-43.56,9.4-57,20.4-13.44,44.06-4.4,56.09,13.85,12.03,18.25,10.29,42.49-10.11,55.93-20.4,13.44-43.36,5.47-55.38-12.78ZM286.79,189.63c15.46-10.19,20.15-27.14,11.8-39.8-8.35-12.67-26.48-16.12-41.94-5.93s-19.44,28.21-11.1,40.88,25.77,15.04,41.23,4.86Z" style="fill: #183bff;"/>
  <path d="M335.61,150.44l-8.14-19.73c-3.97-9.63-12.49-13.76-23.03-12.34l-1.86-4.52,17.37-19.26,4.04-1.67c2.06,9.72,4.04,18.92,7.87,28.19l10.93,26.51c3.48,8.44,10.75,11.56,20.08,10.91l2.35,5.71-33.64,13.87-2.35-5.71c7.69-6.65,10.06-13.05,6.38-21.96Z" style="fill: #183bff;"/>
  <path d="M364.78,142.37l3.07-3.53c8.32,5.22,17.03,6.68,28.73,4.23,17.11-3.59,29.05-18.7,25.73-34.55-.18-.88-.37-1.76-.68-2.62-4.87,10.61-15.91,20.02-29.5,22.86-18.5,3.88-33.13-2.65-36.3-17.75-3.59-17.11,8.18-31.8,28.32-36.02,21.9-4.59,41.51,8.77,46.52,32.68,4.83,23.03-8.12,44.66-29.88,49.22-15.6,3.27-28.9-3.14-36.02-14.52ZM390.04,120c12.08-2.53,21.62-9.65,27.16-21.46-6.73-7.65-18.69-11.45-30.64-8.95-14.72,3.08-24.23,11.64-22.38,20.45,1.95,9.31,12.9,12.67,25.86,9.95Z" style="fill: #183bff;"/>
</svg>