<?xml version="1.0" encoding="UTF-8"?>
<svg id="a" data-name="Layer 1" xmlns="http://www.w3.org/2000/svg" width="70.21" height="120.43" viewBox="0 0 70.21 120.43">
  <path d="M44.36,53.93v-.11c3.7-1.54,5.94-4.79,5.94-9.12,0-3.99-2.07-6.9-4.7-8.49-2.41-1.48-7.06-1.48-10.59-1.48h-14.51v40.69h19.33c7.95,0,12.16-5.7,12.16-11.68,0-5.02-2.69-8.78-7.62-9.8M25.82,39.28h10.65c4.6,0,8.52.8,8.52,6.44,0,4.28-2.47,6.5-8.52,6.5h-10.65v-12.94ZM39.15,70.85h-13.34v-14.08h12.16c4.48,0,8.69,1.48,8.69,6.78,0,4.44-2.92,7.29-7.51,7.29M35.16,19.42C15.81,19.42.12,35.38.12,55.07s15.69,35.65,35.04,35.65,35.05-15.96,35.05-35.65-15.69-35.65-35.05-35.65M35.16,86.04c-16.8,0-30.42-13.86-30.42-30.95s13.62-30.95,30.42-30.95,30.43,13.86,30.43,30.95c0,17.09-13.62,30.95-30.43,30.95M.19,102.92h69.95v-4.68H.19v4.68ZM68.81,91.27c-.26-.11-.53-.16-.82-.16s-.56.05-.81.16c-.26.11-.48.25-.67.44-.19.2-.34.41-.45.67-.12.26-.16.54-.16.84s.05.59.16.84c.11.26.26.49.45.68.19.2.42.34.67.45.25.11.53.16.81.16s.56-.05.82-.16c.25-.11.47-.25.66-.45.19-.19.35-.41.45-.68.12-.26.17-.54.17-.84s-.05-.58-.17-.84c-.11-.26-.26-.47-.45-.67-.19-.19-.41-.33-.66-.44M69.71,93.22c0,.26-.04.5-.13.72-.09.23-.21.42-.36.58-.16.16-.34.29-.55.38-.21.09-.43.13-.68.13s-.47-.04-.68-.13c-.21-.09-.4-.22-.55-.38-.16-.16-.28-.36-.36-.58-.09-.22-.13-.46-.13-.72s.04-.49.13-.71c.08-.22.2-.41.36-.57.15-.16.33-.29.55-.38.21-.09.44-.14.68-.14s.47.05.68.14c.21.09.39.22.55.38.15.16.27.35.36.57.09.22.13.45.13.71M68.79,93.19c.12-.11.18-.27.18-.49,0-.24-.07-.42-.21-.54-.14-.11-.35-.17-.64-.17h-.95v2.48h.38v-1.07h.4l.67,1.07h.4l-.7-1.09c.19-.02.34-.08.46-.19M67.95,93.09h-.4v-.79h.5c.07,0,.13,0,.19.01.07.01.12.03.17.06.05.02.09.06.12.11.03.04.05.11.05.2,0,.1-.01.17-.05.23-.03.05-.08.09-.14.12-.06.03-.13.04-.2.05-.08,0-.16,0-.24,0M1.65,11.53c.53.6,1.18,1.07,1.96,1.41.77.34,1.64.51,2.61.51.78,0,1.49-.12,2.14-.36.65-.24,1.22-.59,1.7-1.05.48-.46.87-1.01,1.17-1.66.29-.65.48-1.37.55-2.18h-2.69c-.11.86-.4,1.56-.88,2.09-.48.53-1.14.79-1.99.79-.63,0-1.16-.12-1.59-.37-.44-.25-.79-.57-1.06-.98-.27-.41-.47-.87-.59-1.38-.12-.51-.19-1.04-.19-1.58s.06-1.11.19-1.64c.12-.53.32-1,.59-1.41.27-.41.63-.74,1.06-.99.44-.25.97-.37,1.59-.37.34,0,.67.06.98.17.31.11.59.27.84.48.25.2.45.44.62.71.16.27.27.57.32.89h2.69c-.08-.74-.28-1.41-.6-1.98-.32-.58-.72-1.06-1.21-1.45-.49-.39-1.05-.69-1.67-.89-.62-.2-1.28-.31-1.97-.31-.97,0-1.84.17-2.61.52-.77.35-1.43.83-1.96,1.44-.53.61-.94,1.33-1.22,2.15C.14,4.94,0,5.83,0,6.79s.14,1.81.42,2.62c.28.81.69,1.52,1.22,2.12M13.53,12.06c.4.43.89.77,1.47,1,.58.23,1.23.35,1.95.35,1.04,0,1.92-.24,2.66-.72.73-.48,1.28-1.28,1.63-2.4h-2.21c-.08.29-.31.56-.67.82-.37.26-.8.39-1.31.39-.71,0-1.25-.19-1.63-.56-.38-.37-.58-.97-.62-1.8h6.61c.05-.72-.01-1.41-.18-2.07-.17-.66-.43-1.25-.81-1.77-.37-.52-.85-.93-1.43-1.23-.58-.31-1.26-.46-2.04-.46-.7,0-1.33.13-1.9.38-.57.25-1.07.6-1.48,1.04-.41.44-.73.96-.96,1.56-.22.6-.34,1.25-.34,1.95s.11,1.38.33,1.98c.22.6.53,1.12.93,1.55M14.91,6.9c.07-.23.18-.44.34-.65.16-.2.37-.37.64-.51.27-.14.6-.21,1-.21.61,0,1.07.17,1.37.5.3.34.51.83.63,1.48h-4.09c.01-.18.05-.38.11-.61M25.05,8.98c0-.42.04-.81.12-1.17.08-.36.22-.68.42-.95.19-.27.45-.48.77-.64.32-.16.71-.23,1.17-.23.15,0,.31,0,.48.03.17.02.31.04.43.06v-2.38c-.2-.06-.38-.09-.55-.09-.32,0-.63.05-.92.14-.3.1-.57.23-.83.41-.26.17-.49.39-.69.63-.2.25-.36.51-.48.8h-.04v-1.73h-2.39v9.32h2.52v-4.2h0ZM30.81,11.07c0,.47.08.85.23,1.13.15.29.36.51.63.67.27.16.57.26.92.32.35.05.72.08,1.11.08.25,0,.5,0,.76-.02.26-.01.5-.04.71-.07v-1.98c-.12.02-.24.04-.37.05-.13.01-.27.02-.41.02-.42,0-.71-.07-.85-.22-.14-.14-.21-.43-.21-.87v-4.61h1.84v-1.71h-1.84V1.06h-2.51v2.79h-1.52v1.71h1.52v5.5ZM39.15,3.86h-2.52v9.32h2.52V3.86ZM39.15.31h-2.52v2.11h2.52V.31ZM41.65,13.17h2.52v-7.61h1.74v-1.71h-1.74v-.56c0-.38.07-.66.22-.82.15-.16.39-.24.73-.24.32,0,.63.02.92.05V.38c-.21-.01-.43-.03-.65-.04-.22-.02-.45-.03-.67-.03-1.03,0-1.8.27-2.3.79-.51.53-.76,1.21-.76,2.04v.72h-1.51v1.71h1.51v7.61ZM50.12.31h-2.52v2.11h2.52V.31ZM50.12,3.86h-2.52v9.32h2.52V3.86ZM52.21,12.06c.4.43.89.77,1.47,1,.58.23,1.23.35,1.95.35,1.04,0,1.92-.24,2.66-.72.73-.48,1.27-1.28,1.63-2.4h-2.21c-.08.29-.31.56-.67.82-.37.26-.8.39-1.31.39-.71,0-1.25-.19-1.63-.56-.38-.37-.58-.97-.62-1.8h6.61c.05-.72-.01-1.41-.18-2.07-.16-.66-.43-1.25-.8-1.77-.37-.52-.85-.93-1.43-1.23-.58-.31-1.26-.46-2.04-.46-.7,0-1.33.13-1.9.38-.57.25-1.07.6-1.48,1.04-.41.44-.73.96-.96,1.56-.22.6-.34,1.25-.34,1.95s.11,1.38.33,1.98c.22.6.53,1.12.93,1.55M53.58,6.9c.07-.23.18-.44.34-.65.16-.2.37-.37.64-.51.27-.14.6-.21,1-.21.61,0,1.07.17,1.37.5.3.34.51.83.63,1.48h-4.09c.01-.18.05-.38.11-.61M61.84,11.9c.34.46.77.83,1.29,1.1.52.27,1.12.41,1.81.41.6,0,1.14-.11,1.62-.33.48-.22.87-.59,1.16-1.09h.03v1.19h2.39V.31h-2.52v4.69h-.03c-.28-.46-.67-.8-1.16-1.04-.49-.24-1.01-.35-1.55-.35-.67,0-1.26.13-1.77.41-.51.27-.93.63-1.27,1.07-.34.45-.59.96-.76,1.54-.17.58-.26,1.19-.26,1.81s.09,1.27.26,1.87c.17.6.42,1.13.76,1.59M63.45,7.4c.08-.35.2-.67.37-.95.17-.28.4-.5.68-.67.28-.17.63-.25,1.05-.25s.76.08,1.03.25c.27.17.49.39.66.66.17.27.29.58.36.94.07.35.11.72.11,1.11s-.04.76-.11,1.12c-.07.36-.19.68-.35.96-.17.28-.39.51-.66.68-.28.17-.62.25-1.04.25-.39,0-.72-.09-1-.26-.28-.17-.51-.4-.69-.68-.18-.28-.32-.6-.4-.96-.08-.36-.12-.72-.12-1.08,0-.38.04-.75.11-1.11M4.38,116.66c-1.76,0-2.42-1.52-2.42-3.03,0-1.59.66-3.11,2.42-3.11.97,0,1.82.69,1.95,1.59h1.9c-.24-2.09-1.88-3.26-3.84-3.26-2.76,0-4.38,2.09-4.38,4.79s1.62,4.71,4.38,4.71c2.18,0,3.72-1.45,3.92-3.71h-1.9c-.15,1.19-.82,2.03-2.02,2.03M12.39,111.38c-2.02,0-3.33,1.37-3.33,3.46s1.31,3.45,3.33,3.45,3.34-1.37,3.34-3.45-1.31-3.46-3.34-3.46M12.39,116.93c-1.2,0-1.56-1.05-1.56-2.09s.36-2.11,1.56-2.11,1.57,1.05,1.57,2.11-.36,2.09-1.57,2.09M18.53,112.76h-.03v-1.22h-1.68v6.56h1.77v-2.96c0-1.15.45-2.11,1.75-2.11.21,0,.47.02.64.06v-1.67c-.11-.04-.26-.06-.39-.06-.86,0-1.74.57-2.06,1.4M25.3,111.38c-.8,0-1.5.32-1.92,1.01h-.02v-.84h-1.68v8.87h1.77v-3.12h.03c.42.65,1.16.99,1.93.99,1.89,0,2.83-1.64,2.83-3.39,0-1.86-.91-3.53-2.93-3.53M24.93,116.93c-1.15,0-1.55-1.01-1.55-2.08s.37-2.12,1.53-2.12,1.55,1.08,1.55,2.12-.37,2.08-1.53,2.08M32.12,111.38c-2.02,0-3.33,1.37-3.33,3.46s1.31,3.45,3.33,3.45,3.35-1.37,3.35-3.45-1.31-3.46-3.35-3.46M32.12,116.93c-1.2,0-1.56-1.05-1.56-2.09s.36-2.11,1.56-2.11,1.57,1.05,1.57,2.11-.36,2.09-1.57,2.09M38.27,112.76h-.03v-1.22h-1.68v6.56h1.77v-2.96c0-1.15.45-2.11,1.75-2.11.21,0,.47.02.64.06v-1.67c-.11-.04-.26-.06-.39-.06-.86,0-1.73.57-2.06,1.4M47.1,113.24c0-1.57-1.55-1.86-2.83-1.86-1.45,0-2.93.51-3.03,2.2h1.77c.06-.71.5-.99,1.17-.99.62,0,1.15.12,1.15.89s-1.01.7-2.1.86c-1.1.15-2.2.51-2.2,1.99,0,1.35.97,1.97,2.2,1.97.79,0,1.61-.22,2.17-.81.01.22.07.43.13.64h1.8c-.17-.27-.23-.86-.23-1.46v-3.41h0ZM45.33,115.58c0,.39-.05,1.51-1.43,1.51-.57,0-1.09-.16-1.09-.84s.5-.85,1.05-.97c.55-.1,1.17-.11,1.47-.38v.67ZM50.67,109.59h-1.77v1.97h-1.07v1.21h1.07v3.87c0,1.31.95,1.56,2.03,1.56.35,0,.74-.01,1.04-.06v-1.41c-.19.04-.36.05-.55.05-.6,0-.75-.15-.75-.76v-3.25h1.3v-1.21h-1.3v-1.97h0ZM53.31,110.54h1.77v-1.49h-1.77v1.49ZM53.31,118.12h1.77v-6.56h-1.77v6.56ZM59.6,111.38c-2.02,0-3.33,1.37-3.33,3.46s1.31,3.45,3.33,3.45,3.35-1.37,3.35-3.45-1.31-3.46-3.35-3.46M59.6,116.93c-1.2,0-1.56-1.05-1.56-2.09s.36-2.11,1.56-2.11,1.57,1.05,1.57,2.11-.36,2.09-1.57,2.09M67.78,111.38c-.75,0-1.52.35-1.97,1.09h-.04v-.91h-1.68v6.56h1.77v-3.44c0-1.33.41-1.88,1.37-1.88.82,0,1.13.53,1.13,1.61v3.71h1.77v-4.04c0-1.62-.47-2.7-2.36-2.7"/>
</svg>