<?xml version="1.0" encoding="UTF-8"?>
<svg id="a" data-name="Layer 1" xmlns="http://www.w3.org/2000/svg" width="1500" height="420" viewBox="0 0 1500 420">
  <path d="M530.76,133.69c-3.9-.05-2.93-5.6-3.43-7.85-.58-2.65-6.21-2.6-8.43-2.32v3.4c-3.1,1.42-4.71-4.36-5.11-.06l-1.23.06c-.74-2.23-1.52-1.81-3.82-1.7v11.86l-3.82-3.39-3.38,3.25-2.54-1.58c-.81,1.69-.74,2.06-2.94,1.72l-.5-3.36,4.71-3.4h-6.77s-.12,4.96-.12,4.96c-2.75.16-3.37,1.38-4.57,3.53-1.97,1.07-4.35-4.16-5.04-4.25-2.27,1.28-2.38,3.3-5.51,2.53v3.39s-5.08-.01-5.08-.01c-.91-2.44,3.18-1.26,1.61-3.32-.09-.11-1.11.1-1.37-.29-1.6-2.42-1.45-6.96-2.38-9.08-.33-.75-3.29-3.61-4.2-3.4l-2.2,3.76c3.2.69,2.82,4.55,3.66,5.36.51.49,2.22.22,2.79.99,1.24,1.7-.21,6.61.37,8.78.27.99,3.58,1.6,3.89,3.53l-2.23,5.48-1.68-.47c-5.01-4.84-3.21-4.22-.82-9.63-1.92.31-2.25-.13-2.96-1.7-1.96,2.59-5.2,1.58-8.05,1.68,2.22-3.42,8.17-1.45,6.78-6.76-2.4.32-5.69-.51-7.89.02-.47.11-1.11,2.86-3.96,1.68v-5.08c-3.58-1.18-2.92,3.16-3.91,3.44l-9.64-.05c.57,2.62-.9,4.41-3.37,5.09v1.66c5.35.01-.16,10.58-1.71,8.48-1.55-3.2,4.15-4.67,1.69-6.77-1.03-.87-3.24,1.38-3.82,1.39-.99.02-5.83-4.07-4.65-5.63,2.87.82,4.82,1.65,6.76-1.29-1.78-2.33-2.14-3.01-1.69-6.33l-6.77,5.07c.09-1.45-.26-3.05.03-4.46.26-1.23,4.03-1.91,3.35-4h-5.08c0,2.62.69,5.39-1.67,7.2l2.98,1.17c2.48,4.48-3.1,4.51-4.42,5.46-.86.61-1.99,3.04-3.05,3.4-1.96.66-4.27-1.34-3.98.97l3.37,2.98.46-2.6c1.81-.15,4.04.44,5.74.04.31-.07,2.22-3.29,5.61-1.62l.9,5.02-2.46.06c.2,3.5-.16,3.47-3.36,4.29l-.1,4.97c4.78-1.84,6.23,1.66,5.07,5.93-2.72.79-3.57-5.62-5.49-5.08-.31,3.25-8.93,8.89-9.49,10.37-.76,1.99.16,4.09-.24,6.02-.18.87-2.53-.04-1.71,2.23,4.32,2.07,8.18-5.99,10.17-.01l1.63-.06.48-1.63,1.24.04c-.22,3.2,5.22,1.14,7.64,1.66-1.12-2.56-.68-4.87,2.54-5.07-1.76,4.22,7.01,7.39,9.6,6.78.61-.14.5-1.51,1.15-1.67,4.14-1.06,7.02,4.01,12.13,1.66.25-.25-2.58-4.16.84-3.38v3.4s8.47-.01,8.47-.01c.41-1.56-1.02-2.09-2.04-3.01-.87-.78-7.34-5.95-7.65-6.35-.48-.62-.24-2.04-.61-2.35-.54-.46-1.99.1-2.56-.19-.85-.44-.71-1.48-1.26-1.62-4.9-1.22-5.35,1.51-5.92,1.64-1.24.3-4.4.21-5.73-.03-3.12-.57-3.65-2.91-6.39-3.33v2.92s-1.68.45-1.68.45c.37-2.35-2.9-3.01-3.22-3.56-1.97-3.44,1.12-3.78,3.88-2.64,1.43.59.37,2.62,2.7,1.96v-5.92c-3.23.71-3.88-1.32-5.59-3.39l-2.87.85.05-4.18c3.72-2.18,5.85,6.8,6.78,1.73l1.62-.07,3.41,4.65-1.66,1.62,4.17,6.03c.27.17,5.64-1.21,6.23-1.5,1.41-.69.98-2.46,2.67-2.45,4.07.02,2.74,4.76,7.21,3.49v-3.4c2.79-.65,3.17.79,5.08,2.12l-2.8,1.27-.58,1.69c2.9-.76,2.58,1.82,4.28,2.9,5.17,3.3,10.45,6.19,15.43,9.19,1.79,1.08,6.96,2.41,8.01,3.37.88.81,2.27,7.2,4.48,1.49l1.68-.02c-.93,1.85,2.22,5.56,3.66,6.51.72.47,2.07.05,2.83.56,6.63,4.48,15.8,13.96,20.34,20.3.55.77.39,3.86,2.59,4.77l19.7.05c.44-.44-.43-7.83,0-9.6.27-1.1.56.77,1.01-3.51.63-6.06,1.2-9.68-1.07-15.64l-3.35-.05c-1.05-3.33,1.34-3.16,1.98-4.41,3.18-6.21,5.09-11.09,8.29-16.9.41-.75,3.07-4.34,3.22-4.74.51-1.43.12-4.19.9-5.56.41-.72,2.64-.58,3.16-2.24,1.56-.93,5.3,2.1,4.46,3.35-3.16.07-2.62,4.59-3.65,6.52-.19.35-1.4.68-1.98,1.79-3.24,6.13-4.69,11.3-8.15,16.48-.65.97-1.55,1.86-1.43,3.17l52.84,3.26c2.73-1.26.54-3.01-1.07-4-1.72-1.06-5.75-2.74-7.45-3.77-3.06-1.85-2.99-5.56-.31-7.65,2.16-1.68,3.33,3.29,5.09,4.15,1.35.65,3.1.06,4.06.6.42.24,1.57,3.11,3.12,4.07,6.8,4.21,12.62,7.61,19.67,11.23.45.23,1.06,2.09,2.82,2.66,1.63.52,4.32.27,5.12.85.85.61.52,2.55.9,2.88.49.43,2.87-.2,4.6.91,1.57,1,1.56,2.96,2.4,3.97.55.66,2.7,2.07,2.78,2.26.47,1.07.08,2.96.26,3.14.34.34,2.64-.44,3.26.13.34.31.07,1.79.55,2.41.78,1.01,2.47.6,2.82,1.02.44.51-.11,2.07.39,2.99.19.35,5.69,5.32,6.1,5.32h19.05c1.25-2.96-1.71-3.61-1.74-3.85-.17-1.51,1.49-2.99,1.78-4.99.63-4.38-.1-13.66-1.84-17.55-.32-.72-1.55-.53-1.67-1.95-.32-3.64,2.48-5.56.93-8.91l2.44-.08c-.72-2.77,1.33-3.13,1.7-4.01,1.62-3.86,2.76-8.54,3.52-12.25.08-.41,4.68-4.78,3.37-7.38,10.27.11,1.14,8.65.16,13.37-.39,1.86.52,2.84-.38,5.42-1.07,3.06-3.49,3.54-4.6,5.18-.71,1.06.48,3.02-2.01,3.6l1.86,4.47,2.72.14c1.24-3.39,2.63-.36,5.24-.04,11.47,1.42,24.81.25,35.57,1.69,2.46.33,4.24,2.52,7.15,1.73.24-3.41-3.23-2.77-4.78-3.71-2.13-1.28-1.61-3.22-2.58-4.77-1.49-2.39-6-1.38-4.49-6.76h3.38c-.79,4.45,1.02,2.76,2.96,4.21,7.39,5.55,23.88,17.18,32.42,19.26,1.49.36,5.09.04,5.27.24.23.26-.28,1.95.03,2.74,1.26,3.23,1.18,3.56,2.08,7.45.81,3.5,4.35,3.11,2.82,7.87-.43,1.34-5.18,4.44-6.34,5.92-1.29,1.65-5.29,7.99-6.69,10.23s-3.19,7.75-4.21,8.97c-2.35,2.81-1.9.84-4.91,5.66-1.91,3.05-8.57,1.63-6.48,8.76,3.55,1.51,4.13-3.16,6.32-3.45,4.89-.63,11.34.77,16.18.13,1.64-.22,1.17-1.81,1.66-1.81,2.85-.02,7.96,2.57,13.58,1.81,1.63-.22,1.12-1.75,1.74-1.81,1.28-.12,7.71-.13,9.24-.04,5.55.3,4.87,1.8,5.47,5.56.43,2.68,4.5,1.77,5.02,1.25.19-.19.23-3.72.07-4.48-.19-.89-2.52.04-1.7-2.24,3.5-.97,3.26,2.65,6.78,1.69,1.56,4.85-6.93,4.99-1.72,8.46-.34-2.8,3.3-1.64,5.39-1.55l1.41,1.94-1.84,4.56c-6.76-.35-4.85,1.05-6.69,4.58-.52,1.01-2.29.2-1.6,2.3l3.31,1.68,1.74-4.52,1.67-.5c2.59,3.2,1.61,6.12,1.72,10.14,2.3.72,1.26-1.31,2.29-1.66,2.09-.71,8.08-1.64,7.88,1.65l1.25.03c.83-3.32,5.25-.59,7.23-3.12-.48-3.95.55-8.83,0-12.61-.5-3.55-3.46-4.16,0-7.94l1.67.46c2.04,4.84,7.44,2.3,11.83,2.87v-8.46c3.89-.92,8.33,1.19,11.45-1.71l.84,1.75c3.85-2.2,7.82-1.98,12.15-1.62,1.15.72,1.26,10.47,1.03,12.22-.2,1.57-1.58,1.11-1.74,1.8-.42,1.8.22,4.25-.01,6.19l3.37-1.69c2.01,1.71,1.38,8.17,1.71,8.47.26.23,1.95-.28,2.73.03s.63,1.5,1.23,1.64c11.47,2.8,6.9-8.91,7.94-15.58.38-2.44,3.35-5.2,3.4-5.98.17-2.71-1.59-1.93-1.76-2.69-.28-1.28.29-2.79.01-3.97-.19-.83-2.59-.09-1.68-2.21l3.35-1.72c-.62,2.92,2.42,4.2,3.15,5.34.48.75.03,2.16.52,2.87s7.81,7.96,8.21,4.85c.99-5.54-1.32-9.93-1.71-15.12-.6-8.11.45-16.86,0-25.03-3.08.26-7.73-.79-6.79-4.55.21-.86,2.51.05,1.71-2.22-1.3-1.15-6.77,1.32-6.77,1.69v22.02h-1.69v-20.32c0-.15-2.31-.28-2.11-1.69-.32,1.38-2.32,3.03-2.68,3.67-2.13,3.76-.93,6.96-2.02,10.95-.15.54-2.77,1.24-1.65,3.99l-24.19-.07-1.62,1.77c-1.75-2.78-4.67-.9-7.36.1-4.18,1.56-5.67,2.18-10.31,3.27-.84.2-.36,4.04-2.9.12-.12-.19-1.03-.05-1.03-.1v-15.24h-1.69v15.24c-4.45-.34-2.45-5.09-2.62-7.11-.26-3.16-1.37-6.41-.76-9.83-2.33.14-4.74.25-5.78-2.24-.54-2.79,3.46-2.59,2.34-4.49-.07-.12-2.12-1.67-2.26-1.7-3.23-.66-7.11,1.38-9.26-2-.46-.72-.09-1.9-.55-2.87-.19-.4-2.19.06-1.41-1.92.43-.02,1-.07,1.3-.38,2.23-2.33,12.85-12,13.62-13.45,2.05-3.88-.01-1.92,3.35-5.13,5.99-5.74,10.23-13.52,15.55-19.44.74-.82,2.16-.33,2.65-1.06,1.84-2.71-.86-4.89,5.85-6.27.81,5.52-4.19,7.39-6.49,10.43-.49.64-.06,2.1-.55,2.85-.39.59-2.74,1.88-2.85,2.19-.49,1.35.02,3.04-.65,4.06-.34.52-7.79,5.86-9.5,7.84-.5.58-.05,2.29-.55,2.86-3.69,4.15-9,8.41-13.08,12.3l.66,2.36,2.05-.87,1.73,1.74c2.24-1.87,21.31-2.19,22.3-1.5.46.32-.47,1.87,1.44,1.47.78-.06.1-1.49.98-1.72,4.65-1.2,23.91,1.37,26.37-.22.13-.08.24-2.79,1.84-1.43.12.1-.14,1.19.2,1.43.53.37,12.19.33,12.95.06.49-.17.05-1.39,1.63-1.59,5.11-.64,7.59,2.17,12.34,1.75l-.81-3.87c-6.47-6.51-15.02-13.26-20.85-20.16-2.57-3.04-6.48-8.87-8.48-12.33-.33-.56-1.6-.71-1.82-1.08-1.86-3.16,2.18-7.85,3.17-6.59,1.71,2.18-2.1,3.63-1.7,4.65,2.77.37,1.27,3.33,1.73,3.79.29.28,1.95-.25,2.7.06s.56,1.33,1.32,1.63c2.08.83,3.25-1.72,2.73,3.42,2.97-.91,2.98,1.07,4.07,1.63.54.28,1.76-.16,2.48.25.65.37.64,2.4,2.47,3.05,4.48,1.6,1.82-3.5,4.08-2.39l2.13,2.11-1.71.94c-1.01,4.21,3.38,3.88,4.83,4.84.74.49,1.88,2.93,2.58,3.08,5.53,1.22,11.93,5.68,17.27,8.59,5.28,2.89,2.85,4.52,5.06,7.86,1.21,1.83,3.68,1.84,4.01,2.37.43.68-.15,2.14.33,3.01.68,1.22,5.05,2.32,6.59,1.91l-1.68,2.11c4.32,1.45,4.56,5.78,7.11,9.36,1.35,1.9,4.69,3.97,6.15,5.73.5.6.05,2.24.55,2.86.39.48,4.71,4.95,5.04,5.1,1.06.47,2.89.05,3.12.28s-.19,2.06.28,3.12c.38.84,6.92,5.85,7.95,7.27,1.12,1.55.54,6.05,5.35,4.82,1.95-8.66-4.94-10.89-8.19-15.51-.2-.28-2.98-5.25-3.18-5.7-5.06-11.53-12.97-24.39-19.19-35.66-3.03-5.49-3.71-5.91-5.03-11.96-.13-.58-4.27-3.46-4.78-4.26-1.75-2.75-3.53-8.93-5.46-12.57-13.62-25.74-28.06-50.96-42.16-75.94-1.26-2.24-6.69-9.43-6.83-10.06-1.05-4.78-4.58-10.98-7.1-16.03-.24-.48-2.43-.94-1.4-3.68-1.87-.69-6.1,1.52-4.55,3.42.31.38,2.23,1.34,2.59,1.93.75,1.21-.57,2.96,1.98,3.55l-.04,1.24c-1.72-.35-1.57,1.62-1.68,1.7-2.06,1.46-1.18-2.02-2.51-1.67l-.85,5.07c2.48.89,1.19-3.1,3.32-1.62.1.07-.05,1.04.37,1.32.7.46,1.78.18,2.28.83,1.07,1.39,1.15,4.11-.89,4.56l-.02-2.54-8.42.81-1.26-3.99c-3.98-.1-5.64,2.45-8.94,2.33-.58,2.76,3.09.78,1.27,4.23-2.52,4.77-13.18,4.42-4.66,9.74-.82,1.91-5.02,1.18-6.78,1.28-1.72,4.6,4.1,4.16,4.94,5.24.47.6-.16,2.17.32,3.03s5.45,1.98,5.47,5.37l7.9-.1-.43-3.38,3.81,1.7c.63,2.72-2.38.64-1.68,3.37l1.68.42c-3.72,3.75-4.95-.27-6.12-.69-3.51-1.28-7.94,4.05-9.11,2.81,1-5.52-1.13-8.78-6.77-6.76l1.68.84v1.68c-2.41-.4-.95,1.53-1.44,3.26,4.53.89-3.46,2.89,1.36,3.58l.07,1.62c-3.54.99-3.8,3.42-3.38,6.8h3.4s-.43,9.35-.43,9.35l-3.38.85c-.87-3-1.22-3.81-4.68-3.43.91-2.59,0-6.59,3.38-6.79l-.03-1.63c-2.87-3.32-7.7-.94-6.75,2.83.21.84,2.61,0,1.71,2.21-1.93-.39-6.94.65-8.2,1.95-.5.51-.99,2.67-1.67,3.8-2.1,3.48-2.32,4.69-3.78,8.8-.33.93-1.54.16-1.67,2.77-.19,3.72,1.31,2.59,1.73,3.62.38.91-.3,2.67.41,3.69.88,1.25,4.19-.48,3.01,4.17h3.4s-1.71,5.92-1.71,5.92l-3.4-4.21c-1.4-.9-4.04,3.08-3.37,4.21l-3.25-.98-.14-3.25c-2.53,1.37-4.08,1.8-3.38,5.08l4.23.42c-1.58,1.96-4.04.96-6.13,1.5-4.4,1.15-2.57,2.93-3.21,5.93-.16.75-3.17,2.18-3.33,2.92-2.09,9.7-6.03,13.18-9.9,21.69-1.34,2.94-1.32,4.7-2.01,7.56-.46,1.9-3.71,2.01-4.39,2.35-1.16.57-.04,2.28-2.35,1.66-1.89-3.2,3.28-6.94,3.36-7.36.78-3.92-1.39-5.85,3.42-8.47l-1.7-4.49c1.96,1.43,6.53-1.93,6.83-3.83-1.77-4.96-5.3-1.13-8.52-3.37,1.54-2.61,9.29-.5,10.11-1.33.26-6.13,8.52-12.68,7.46-19.07-.19-1.12-3.5-.85-2.27-2.85,1.32-2.14,9.51-1.42,8.57-8.41l2.39-.11-.88-2.91c2.9-.86,1.28-2.73,1.75-4.94.16-.74,3.16-2.17,3.33-2.92.27-1.23-.21-2.61.06-3.85.17-.76,3.16-2.17,3.33-2.93.93-4.24,2.95-8,5.22-12.23,7.93-14.82,16.28-30.31,23.52-45.45,1.31-2.74,1.78-2.48,1.78-2.68V30.38h15.24c.2,0,.42-2.46,2.08-3.49,1.49-.92,2.73,1.19,3.46-1.65.43-.02,4.34,1.71,4.47,1.92.41.69-.1,2,.19,2.56.43.86,1.71.65,1.7,1.09-.04,1.37-3.13,5.87-3.47,8.41-.59,4.41-.61,19.41-.03,23.81.21,1.58,1.59,1.09,1.75,1.79.27,1.22-.23,2.64.04,3.89.09.42,2.97,2.41,3.63,3.36,1.36,1.95,2.61,5.99,3.39,7.15,3.88,5.79,12.74,8.3,16.39,14.08.53.84,1.71,5.41,2.24,6.25,1.77,2.81,10.04,9.27,12.92,12.45,8.6,9.45,18.06,19.39,26.12,29.83,2.22,2.88,10.92,5.74,9.81,9.96-.18.7-2.26.22-1.7,1.78.52.41,1.85,2.13,2.11,2.13h12.7l1.06,1.24-.63,3.84h3.38s-1.73-4.54-1.73-4.54c2.83-3.8,6.53-1.61,10.58-2.27,1.36-.22,2.34-1.43,4.23-1.69,2.42-.34,10.39-.35,12.8-.02.23.03,3.72,1.68,3.94,1.79,1.17.62.04,2.26,2.35,1.66v-5.08s8.48,0,8.48,0c-.38,2.89-.21,5.83,2.95,6.79,2.88-2.48,2.2-4.83,2.12-8.48,1.49-.09,3.14.24,4.59-.06,5.62-1.18,11.4-2.48,16.96-3.36,3.69-.58,5.17-.27,7.24,2.58l.47-2.6c2.18-.08,4.57.37,6.7.02s3.9-3.69,5.17.07l4.53-.8,1.77,5.84c-1.94.26-4.38-.4-6.19.02-.7.16-.26,1.66-1.82,1.77-2.25.16-4.78-.96-7.22-.09-1.57,1.51,5.03,3.35,3.38,5.07s-1.37-2.95-3.38-1.69l-.85,5.07c3.56-1.07,6.15.51,9.31,1.7v-5.08c3.35.37,7.44-.48,10.65-.06,1.57.21,1.11,1.59,1.79,1.75,3.48.83,6.11-1.91,9.54-1.72l.04-5.04c2.2-.45,1.32.41,1.78,1.21.73,1.26,3.3,6.66,4.93,5.47.12-.09-.13-1.44.61-1.63,1.55-.39,3.63.43,5.27-.1l1.47-3.34,6.26,1.75v-5.08s-3.38,0-3.38,0c.12-2.2.52-3.1-1.71-3.81l.03-1.25,3.35-1.73-.43-1.69h-2.93c1.16-5.78,9.12-2.64,13.54-3.37-.52,3.86,3.82,8.09,4.17,1.8l-2.45-1.38c1.28-1.95,3.95-2.76,6.21-2.13.95.26-.13,2.15,1.81,1.72.84-3.14,4.62-1.28,7.21-1.7,1.42,3.03-2.71,3.59-1.63,5.02.09.12,1.15-.11,1.39.26.59.9-.09,2.43.37,3.03.15.19,3.71,1.28,4.51,1.86,3.1-6.82-3.3-6.74-2.96-11.86,1.94-.26,4.39.4,6.2-.02.65-.15.53-1.5,1.12-1.67,2.25-.65,6.04,3.26,7.44,3.45,3.53.47,6.82.83,7.19-3.08l5.15-.37c.64,3.24-1.88,5.69-5.08,5.09l-.03,2.82c4.8,3.68,2.9-.57,3.46-1.05l12.1-1.91c1.33-.12,1.89-2.69,1.4-3.25-.37-.42-10.1,5.04-8.97-.92.79-4.18,10.38-1.76,13.47-2.49,2.15-.51,9.98-3.18,11.96-3.44,4.21-.55,9.64.53,14.02.08-1.2,2.87,1.71,3.61,1.74,3.85.28,2.08-1.96,2.7-1.73,4.6h3.38c.01-2.9-.76-6.74.05-9.55.25-.86,1.94-.09,1.72-2.74-.13-1.61-1.55-1.07-1.74-1.85-.57-2.35-1.69-8.37-1.39-10.66,1.15-8.74-1.34-16.24-.39-24.79.12-1.12,1.78-8.96,1.98-9.48.13-.32,4.05-4.04,4.57-5.14,1.11-.38,8.62-.42,9.85-.12.79.2,12.64,6.25,13.88,7.02.82.51,5.34,6.41,5.34,6.93v33.45c4.94,3.34,4.62.15,6.29-.07,2.26-.3,11.91-.25,13.8.34,2.09.66,1.74,4.41,2.15,5.84.82,2.91,1.98,8.3,4.04,10.33,1.64,1.62,4.44,1.94,5.48,4.72l.87-2.59c3.89,1.2,8.38-.25,11.86-.04,1.59.1.8,1.63,2.45,1.85,2.95.39,6.63.27,8.91-1.72,3.62,4.1,13.09,4.31,18.4,7.06,1.02.53,2.59,3.71,3.68,4.34.91.53,4.45-.14,5,.49.11.13.7,3.66-.78,3.32-1.02-4.81-8.03,1.47-9.34-5.06l-1.6.09-.59,1.61-2.34-.02c-1.44-3.93-4.19.42-7.3,0l-.44-3.37c-1.65-.63-.62,2.64-4.1,1.68l-1.78-1.75-1.63.04-.6,1.61-1.6.09-2.34-3.37c-3.42-.01-9.32.67-12.37.01-.89-.19.03-2.52-2.24-1.71-.27,6.6,9.47,8.5,11.87,13.53l1.61-.08.61-1.63,1.55-.05c3.11,2.11,6.43,1.17,9.18,1.79.56.13.57,1.28.86,1.39,2.45.97,5.38,1.6,6.52,4.94-2.3,3.04-4.3,1.53-6.79,2.12-.05-.55.11-1.12-.01-1.67-2.2.08-3.08.51-3.8-1.73l-1.24.05c.35,1.61-1.56,1.58-1.66,1.71-.64.92,2.01,3.32,2.21,3.35,2.49.46,3.35-1.44,4.5-1.71.34,4.09-1.8,3.53-1.7,3.8.19.49,6.5,7.61,6.99,7.8,1.18.45,4.85.57,6.01.26.69-.18.34-2.76,2.22-1.68,1.53.88,1.55,4.83,1.75,5.02.22.23,2.06-.19,3.12.28.48.21,1.86,2.98,2.54,3.1,1.8.34,3.75-.27,5.55.07.71.13,2.19,3.17,2.92,3.33,1.25.27,2.68-.23,3.89.04.65.15.53,1.53,1.15,1.67,3.29.75,9.23.79,12.46,2.64,2.19,1.26,1.66,2.94,2.48,3.87,1.19,1.35,4.1,2.05,5.71,4.07.68.85.62,2.61.92,2.86,1.27,1.08,4.15-2.01,3.27,3.5,1.06.03,2.12-.2,3.15.25s14.17,14.02,15.12,15.32c1.55,2.11,3.01,6.36,3.99,7.89,27.04,42,52.33,85.71,77.74,128.26,2.15,3.6,4.14,6.32,6.33,9.52,1,1.45,3.2,4.43.8,4.75-2.04.27-7.39.33-9.39.07-1.43-.19-1.48-2.58-6.78-1.82-1.58.23-1.11,1.58-1.79,1.74-2.42.57-6.1-.35-8.73.01-.99-.93,5.72-7.07,1.25-6.8-.69.04-7.65,1.95-8.01,2.17-1.07.65-.68,2.42-3.01,2.97-3.95.93-4.27-5.58-9.71-3.42v3.39s-2.11-1.7-2.11-1.7c-2.91,3.86-5.25.41-7.67.04-4.88-.74-10.54,1.79-13.94-2.16-.04-.17,1.53-2.96,1.7-2.96h20.32c-1.05-2.69,1.18-3.23,1.4-3.68.46-.95.13-2.11.58-2.82,4.05-6.35,6.82,3.55,10.26,3.2,1.79-.18,2.52-1.26,3.66-1.56,3.4-.89,6.68,0,6.12-5.3-2.76,1.02-3.19-1.16-3.68-1.41-3.81-1.93-8.36-2.41-12.35-4.16-9.42-4.13-22.14-17.13-29.44-25.19-7.03-7.76-13.97-18.27-20.95-26.51-3.73-4.4-15.84-15.5-18.08-19.18-4.87-8.02-14.66-19.07-20.79-26.61-6.24-7.66-15.26-14.83-20.13-23.26-4.42-7.65-8.73-14.6-13.5-22.1-9.49-14.92-19.75-30.85-30.41-45.32-.58-.78-5.1-9.79-6.82-7.37-.84,1.51-.67,4.25.44,5.5,1.31,1.49,3.32-.42,3,2.97-.2,2.08-4.49,2.68-3.41,5.02,1.28,2.78,9.34,1.9,10.21,5.98l-.64,2.18-2.83,2.88,2.95.42.43,1.69-1.59.66-5.16,6.13c2.03-1.02,4.76,1.37,5.5,1.38,1.89.04,7.82-6.01,5.5,3.7,1.67.04,3.03-.67,2.54,1.69-4.58-1.27-5.12,2.62-9.31,1.7-.72,3.32,3.66.72,5.08,2.11-2.45,1.57-4.42,4.34-6.84,5.87-1.04.66-2.46.42-3.75,1.33-1.5,1.05,2.7.5,1.28,2.54h-3.39c-1.08,3.67,1.84,2.58,1.71,5.08l-4.22,1.27c1.7,2.62,3.1,2.22,2.58,5.94-.31,2.24-4.91,2.75-3.45,6.35-2.79.64-.62-2.39-3.37-1.68.12,1.8-1.75,2.6-3.4,2.53v-1.92s-1.68-.6-1.68-.6l-5.12,6.74c-.83.65-3.04-1.73-3.09-1.91-1.72-5.52.47-17.36.24-23.53-3.67-4.6-7.17-9.64-9.28-14.9-.28-.69-2.36-.7-1.41-4.82.2-.89,2.58-.03,1.7-2.24h-6.77c2.03,3.38-3.24,8.45-3.37,9.07-.5,2.43,2.19,9.39-1.7,7l-.08,2.45c-4.87-.57-4.31,3.56-6.75,6.4l.54,2.18c6.14.8,3.57-2.06,7.97-3.39v3.39s3.39,0,3.39,0c.81,2.27-1.53,1.35-1.71,2.23-.29,1.39.19,3.08.02,4.54-5-.19-9.92,5.22-10.2-3.34l-5.55.72c-2.39,1.85-.69,12.15-1.23,15.71-.26,1.71-2.39,3.28-1.65,5.54,5.64-.17,11.81.79,17.43.08,1.67-.21,1.07-1.83,1.63-1.8,2.31.12,5.06,2.48,10.21,1.79,1.46-.19,1.22-2.88,5.72-1.73.71.18.2,2.42,3.37,1.65.25-.06,3.56-3.42,3.71-3.63.55-.8.66-5.33,3.66-4.81.82,6.42-.11,6.63-5.07,9.74l4.58,1.29c1.22-3.26,4.98-1.52,3.89-5.42-.2-.71-2.76-.21-1.3-2.26.13-.18,3.01-3.02,3.22-3.1,1.25-.53,2.71-.09,3.99-.68,1.09-.5,1.66-2.27,3.17-2.81,3.71-1.32,5.75,6.05,7.81,4.87.12-.07,1.68-2.09,1.72-2.23.82-3.21-1.58-2.88-1.69-3.21-.31-.94-.27-2.67,1.28-2.13.74.26.5,1.4,1.37,2.04,1.01.74,4.15,2.01,4.92,2.69,1.05.93,1.79,4.11,4.3,5.03-1.24,3.78-4.57,3.02-7.91,2.94-.89.23-.46,1.71-.55,1.71h-16.94l.38,2.59,8.09.8c.83,3.01-2.85,1.14-3.39,1.69-1.4,6.37,8.45,11.22-.04,15.7,2.73,3.44.85,8.88,1.01,12.78s.21,9.7.68,13.49c.25,2.03,1.71,3.17,1.84,5.04.22,3.37-3.74,4.99-.05,5.93l-1.77,4.22c3.33,1.18,1.44,8.5,1.76,11.77.05.56,2.5.22,1.66,3.36-.16.61-2.68.3-1.64,5.16,1.18,5.52,2.52,9.99,1.71,16.19-.2,1.57-1.58,1.11-1.74,1.8-.28,1.21-.26,5.34-.08,6.68s2.85,1.7,1.76,4.59h3.39s0,2.97,0,2.97c-2.42.3-4.55,1.09-5.11,3.8-5.21-3.97-12.21-1.18-15.65,3.41-1.3.27-3.7-2.7-2.95-3.4l3.38-1.69c-6.69-2.15-6.46,6.86-13,5.08-.96-.26.13-2.14-1.81-1.71-.73,2.67-2.59,1.61-5.03,1.76-.61-.17-.12-3.73-3.36-3.49-.45.03-.46,1.33-.77,1.45-1.03.42-2.19.14-2.87.54-1.03.61-2.54,4.03-5.33,3.13-1.18-3.53,1.99-2.98,1.7-4.65-5.19-3.4,1.77-4.03,5.06-4.23-2.86-2.45-6-.01-8.46-3.39,1.07-2.63,13.34-.59,16.35-1.29.69-.16.23-1.54,1.8-1.74,5.88-.77,13.63.86,19.57.12.69-.09,2.82-2.03,2.89-2.37.81-4.08,0-12.82-.29-17.41-.82-13.47-1.22-27.21-1.35-40.76,0-.56-1.56-.07-1.78-1.69-1.5-11.08,2.38-24.81-1.91-35.8-.97-2.49-4.29-1.6-5.9-1.96-.46-.1-1.1-2.87-3.96-1.69v3.4c-.39.42-9.56-.33-11.48-.05s-3.39,1.9-4.96,1.79c-.42-.03-3.8-5.38-7.27-3.45v3.4c-.67.72-16.21-.97-19.72.04-.85.24-.12,1.95-2.68,1.73-4.3-.37-4.66-5.1-9.78-3.47l3.38-3.38h-11.86c-.19,0-.75-2.72-1.68-3.36l3.37-1.72v2.94s1.68.43,1.68.43l1.75-2.13c-3.57-3.28,1.31-6.77,4.55-6.39.73.09.06,2.81,2.18,1.75l-.76-7.13,4.2-1.89-.14-4.45-3.31-.07c-.99-4.04,3.89-4.84,5.09-8.46-1.86,0-4.43.48-5.07-1.69,3.78-.26.87-6.06,2.08-8.5.44-.89,3.86-2.63,4.38-3.64,1.03-2.01,1.28-5.91,2.31-7.92.77-1.5,4.45-1.87,3.08-5.35-2.54-.03-1.56,2.81-5.07,1.68-1.02-2.32,3.22-1.34,1.65-3.35-.08-.1-1.44.23-1.66-.58-1.61-5.9,4.31-4.55,3.4-9.61-4-.72-7.38.72-6.78,5.08-2.9,1.45-3.6-2.65-5.05-1.65-.26.18.64,2.45-1.72,1.64l.85-3.38-2.43-.08c-.59-3.71-.3-3.57,3.27-3.32.55.53-1.32,4.22,1.69,3.39l.06-4.59c-1.57.01-2.99-2.09-3.2-2.15-4.41-1.11-8.31,2.57-12.47,3.35l-1.32-5.07c-2.41-.96-1.15,2.97-3.37,1.67-.16-.09-.93-2.47-1.98-3.1-1.92-1.16-5.01-.17-4.81-5.35l4.22,1.69-.96-3.32c-3.05.07-5.64.28-7.15,3.37l-4.57-1.76c1.26-4.52,3.82-3.86,6.76-.83l.05-2.47,5.89-.08-.65-1.55c3.44.36-.03-3.3-.79-3.5-2.94-.77-5.34,5.31-6.19-1.72-2.71-.57-1.44,1.68-1.69,3.39-3.5-.8-5.87,4.11-9.64,3.43-.5-.09-.68-2.79-3.06-1.73,1.58,3.75-1.35,6.79-5.54,6.69-.23,3.99-.74,7.45-5.47,6.86v-3.4c-.57,0-1.13,0-1.7,0,.83-1.9,3.16-3.17-.02-4.67-1.57-.74-8.56.78-8.48,2.95-2.94-3.4-8.11-.42-8.43,3.41,5.33-2.06,11.23-1.57,16.93-1.69-1.17,2.68-2.34,3.84-1.81,7.51-5.61,3.34-4.65-1.82-8-2.45-1.93-.36-3.3,3.11-6.32,2.11l-4.21-7.16c-1.96-1.41-5.24,5.74-5.59,5.99-1.23.88-5.84,1.11-7.35.75-.58-.14-.55-1.29-1.26-1.58-2.93-1.18-5.54.56-3.69-3.8l-2.42-1.35v5.08c-2.93-2.17-8.38,5.16-8.92,5.12-1.39-.1-2.13-1.91-4.14-1.76-2.95.22-4.74,5.58-9.82,3.42l.04,2.99c-9.62.72-7.33,9.42,2.48,5.03.84-.38,1.93-1.81,2.45-2.64,1.05-1.68.19-4.29,2.63-3.69l1.66,4.69c2.76,1.34,5.47-1.7,7.94-1.34.53.08,7.22,7.06,5.67,8.49h3.39c.77,2.29-1.46,1.34-1.71,2.28-.22.84.05,1.9.01,2.8,2.33.38,1.89,2.67,6.23,1.7.49-.11.84-3.27,2.24-1.7.73.83-2.28,3.88-2.96,4.3-1.01.61-5.65.98-6.71.78-1.44-.27-2.27-1.72-3.43-1.74-.44,0-.37,1.29-.69,1.44-1.87.86-5.03.67-4.93,4.06.03.98,1.65,7.14,2.05,8.27.8,2.27,2.72,3.06,2.89,3.43,1.23,2.64,1.36,11.22,6.5,9.95.85-.21-.06-2.52,2.21-1.71l-1.7,11.85c-4.08-4.04-10.03.11-10.43,4.81l-4.81,3.65v-25.4c0-.07-1.12.25-1.47-.21-.99-1.31-4.63-10.76-5.59-13.07-.28-.68-2.72-1.96-1.4-5.35,4.38.52,5.41,5.01,11.01,3.38l-.85-5.07,8.47-2.55.09,2.44,3.3.11c.06-1.12-.05-2.26,0-3.39-1.04-.17-2.3.13-3.39,0l1.69-3.37c-1.83-.06-7.54-2.26-8.28-3.6s1-4.47-4.03-3.68c-1.05.16-2.54,2.83-4.62,2.2-.47,3.16,4.17.65,4.99,3.96,1.22,4.88-9.22,4.96-12.25,4.56-1.74-.23-.62-2.07-3.35-1.83-2.7,3.23-5.73.94-9.13,1.94-3.8,1.11-.55,8.39-6.09,8.29-2.88-1.87.4-2.9.45-4.64,0-.19-2.68-.91-1.74-2.97l-10.15,2.53c-.33-2.38.31-4.51.84-6.77,1.97-.07,3.96.05,5.93,0l.39-5.13,2.99.04-5.07-4.66,1.67-.43c.93-2.07-1.19-1.46-1.44-1.86-2.51-3.99,4.11-4.29,4.7-5.06.43-.58-.07-1.87.16-2.59.32-1.01,2.39-.17,1.66-2.31-2.44-1.51-3.49-2.32-6.74-1.7.86,6.42-6.18,4.08-9.32,8.03l7.61.42-1.69,3.38,1.66.02c.43.4-1.5,3.22-1.68,3.35-2.05,1.42-1.17-2.47-2.94-1.68l-.85,1.7c-1.97-.72-2.89-6.55-4.65-5.07l-1.7,3.74c1.26.85,2.32,2.12,3.38,3.02h-5.08s.04-4.52.04-4.52l-2.16-1.39c-2.09,1.46-.78,4.02-1.68,5.93-.69,1.46-2.73,1.4-2.98,1.67l-1.78-5.55c-.38-1.52,3.01-1,1.75-2.9-.11-.17-2.93-2.05-3.78-1.71-2.25.9.27,5.51-1.91,7.32l.54,2.33,5.16.5c-.52.56-1.93,3.61-2.91,4.25-2.39,1.56-11.09,2.43-2.17,5.06l.07-2.44,5.01-1.79c-.62,2.01,1.4,2.82,1.7,3.39.47.87,2.15,4.34,1.65,5.04l-5.67,1.17c-4.22-6.94-6.67,4.71-9.95-1.13-3,3.65-6.9,1.33-10.18,1.61-2.55.22-3.99,2.62-7.46,1.76-.31-.08-1.65-3.11-4.81-1.69.82-2.73,3.86-7.51,7.11-6.8,1.19,3.38,2.25.69,4.5.21,2.71-.58,6.75.76,7.01-3.56l-6.84-.39-1.19-3.85-4.73,5.87-4.45-2.35c-3.37,1.97-6.49,5-10.59,3.97l-.61-3.26,3.93-2.19-.9-7.97c1.27.39,4.39,4.98,4.81,5.1,2.15.6,3.23-.13,3.38-2.27.27-3.93-2.2-2.23-3.69-3.1-.3-.17-.41-.99-.98-1.32-.77-.44-5.83-1.85-4.37-3.48l8.87-3.41,1.3,3.4c3.69-1.14,6.07-2.88,10.14-1.66.07,1.83.61,3.36-1.51,3.49l-.16,1.12,3.44,3.77c3.89-2.65,8.6.26,9.87-4.83.9-3.57-1.36-5.74-4.86-5.28l1.69-3.38c-1.13-.09-2.05-.13-3.15.28-2.5.93-.87,5.36-3.61,4.8l-1.8-5.53c2.29-2.21,1.21-2.29,1.55-5.25s-5.36-.23-4.86,2.31l-1.6-.09c.36-2.33-3.84-2-5.48-1.45-1.06.35-1.08,1.88-2.02,2.39s-2.59.35-3.76.93c-3.2,1.57-2.05,8.06-7.45,6.69l1.64-2.84c-2.3-1.51-2.45-5.49-5.01-5.63l1.67-3.37c-3.24-1.52-12.16,8.93-7.2,9.29,1.81.13,3.32-4.65,5.5-4.21.91,3.85-1.89,4.35-4.94,5.2-2.08,2.44,4.85,11.5,5.18,14.93,4.84.12.68,2.18.81,4.69.09,1.73,1.82,3.46,2.3,5.27.39,1.46-.25,3.34.07,4.87.09.41,4.33,4.84,3.37,7.37,3.35-.57,4.36-1.92,4.24-5.08l6.41,3.42,4.25-3.42,3.71,1.71-4.6,3.89c-5.21-2.76-4.97.89-6.13,1.19-1.27.33-5.83-.39-6.19-.02l13.69,43.88c.59.36,12.32.42,13.89.21s1.07-1.55,1.81-1.73l11.25-1.72c.61,2.59-4.7,3.04-3.3,5.02.22.31,2.44-.57,1.61,1.74-2.3.27-5.03-.36-7.24-.04-1.9.28-2.8,1.42-4.22,1.7-2.7.54-6.06-.99-7.17,2.99,2.15.54,3.23,3.79,4.6,4.71,7.83,5.22,6.89,5.28,12.46,12.13,3.72,4.57,5.89,4.8,11.74,3.07.27,2.83-2.78,2.7-4.52,2.54-2.87,4.73,5.92,3.71,1.15,8.45.81-.21,3.27,1.99,3.35,2.31.93,3.68-2.11,2.07-1.68,4.05,2.23.75,1.81,1.51,1.71,3.81l-5.06.5-1.73-.92v-14.82c-4.87.77-3.11,5.42-3.42,7.95-.04.29-2.8.72-1.66,5.06.17.66,2.95.48,1.65,2.2-.07.09-1.19-.22-1.62.67-1.02,2.14-.06,7.28.82,9.52-4.37-1.68-3.36.88-4.39,1.51-2.79,1.71-3.44-2.75-6.62-1.51,1.71,6.49-4.48,7.33-7.82,10.21-2.79,2.41-5.18,7.37-9.11,6.75l-.02,3.36c7.51,2.04,7.93-3.33,12.13-6.5.56-.42,1.89-.1,3.13-.86,1.6-.97,2.07-3.87,3.1-5.14,3.05-3.73,7.09-6.33,12.13-6.14l-1.69-3.37c2.15-1.27,4.34.25,6.17,0,.59-.08,2.17-3.22,2.91-3.37,3.12-.64,7.7.64,10.66-.05.69-.16.23-1.54,1.8-1.74,8.33-1.09,16.83.74,24.66,1.72,3.11.39,6.54-.18,9.7.04-.51,2.89.06,5.64,2.75,7.04,2.42,1.26,3.72.98,5.48,1.7,3.09,1.27,5.02,4.54,11.49,6.53.78.24.54,2.87,2.27,1.63.28-.2-.64-2.48,1.71-1.66-.67,3.66,1.19,3.53,2.78,5.09.73.72.56,1.61.63,1.67,1.55,1.11,2.63-2.55,3.63-3.1.87-.48,2.28,0,2.92-.5.46-.36.13-1.47.21-1.47h11.86c-.24,1.94.4,4.38-.02,6.19-.16.68-1.54.23-1.74,1.79-.5,3.82.31,11.86,4.73,7.26.42,2.68,2.84,1.17,3.65,1.84.36.3.16,1.73.64,2.29,1.34,1.52,2.89,1.63,3.35,4.39,2.03,1.09,4.47-3.4,6.32-1.74,2.02,1.82-4.75,4.49-5.03,5.7-2.09,9.26,9.4,5.17,14.57,6.19,2.26,1.26,1.86,3.19,2.61,4.75.14.28,1.08.25,1.35.92.85,2.16-.94,5.71,4.57,4.44.56-.13,1.57-3.96,5.63,0,.69-3.55-4.74-3.16-5.01-3.46-.35-.39.2-1.96-.09-2.67-.44-1.05-2.46-.51-1.66-3.17l5.06-2.55,1.72,5.06h8.47s0,3.4,0,3.4c2.77.42,6.42.1,6.77-3.39-2.33-.17-5.15.82-6.75-1.27l1.62-3.3,1.74-.5c.5,3.1,5.25,4.31,7.24,5.91.87.7,4.51,6.11,4.61,6.52.61,2.64-1.01,4.12,2.45,6.06,7.88,4.43,6.45.21,11.69-1.46,1.91-.09.22,1.76,3.27,1.63,2.05-.09.37-2.41,2.93-1.74-.23,1.94.4,4.38-.01,6.19-.14.61-2.53.39-1.7,3.45.2.74,2.72.2,1.69,2.19-2.45,1.73-4.7,2.42-7.87,1.7-.64-.15-.34-2.53-3.41-1.67-.46.13-.71,2.87-5.08,1.69-.68-.18-.39-2.77-2.23-1.68-.73.43-2.81,7.14-5.51,1.67-2.43,1.46-3.06,4.25-6.36,3.39v-5.09s-8.46.01-8.46.01c.59,3.81-2.44,5.99-6.18,5.03-.56-.14-.51-1.19-1.27-1.57-1.64-.82-4.25.09-4.42-3.47l-2.15,3.44-2.91-.05v-3.4s-3.39,0-3.39,0v3.4s-7.23.06-7.23.06c-2.25-.27-.94-3.48-5.94-3.55-2.73-.04-6.84,8.43-8.87.52,2.89-.68,1.29-2.74,1.75-4.89.14-.66,2.99-2.2,3.1-2.52.85-2.55-.04-5.6.25-8.25h-2.96c.33,3.7-2.42,3.66-3.54,5.35-.4.61-.16,1.85-.56,2.84-.12.29-1.23.31-1.38.87-.85,3.31,2.88,14.15-3.8,5.48-5.87-.03-4.89,4.6-9.69,3.99l-.09-11.33c-4.08-1.86-2.81,2.36-3.67,4.41-.74,1.76-3.52,1.7-4.54,2.19s-1.58,3.48-5.33,1.44v3.4s-3.39,0-3.39,0l.42-10.17c1.21-2.48,9.58-.8,8.05-6.22-.14-.5-2.89-.94-1.66-3.9,5.22.19,9.04-5.05,13.52-5.12v-3.39h13.55v-3.38c-3.83,1.36-4.71-1.25-5.74-1.67-.75-.3-2.39.24-2.7-.06-.27-.26.18-1.87-.09-2.66-1.17-3.46-5.63-1.9-7.96-2.43-1.78-.41-4.85-1.21-6.6-1.71-.87-.25-2.25-3.2-2.94-3.33-4.54-.86-6.02,3.2-6.76,3.36-6.23,1.33-13.84-2.31-19.33,2.51-.15,3.74-2.15,5.26-3.88,8.67-.75,1.47-2.54.96-1.56,5.16.09.37,4.9,5.32,5.25,5.45,1.23.45,2.59-.02,3.36.3,3.77,1.54.96,5.24,1.51,8.41,2.62-.58,4.42.9,5.09,3.37,2.03,1.5,1.48-3.96,3.61-4.78.8-.31,2.84-.86,3.16.21,1.03,7.47-4.36,6.48-10.17,6.28.58,3.32-.2,4.28-1.71,6.77l-5.02-1.73-.05-5.04c-3.2-.64-5.71,1.86-5.08,5.09-4.34,1.06-4.79-3.7-8.01-5.14l-13.39.09c-2.13,2.4-2.68,4.19-6.54,3.35-.75-2.12,1.97-3.07,2.28-3.65.46-.85.05-2.1.53-2.86s2.9-1.84,3.07-2.58c1.08-4.64-1.49-4.44-1.65-5.02-.68-2.46,2.11-5.21,4.52-4.52.67.19.18,1.55,1.77,1.76,3.29.43,7.47-.45,10.91-.03l1.42-3.42h-6.77s0-5.09,0-5.09c-5.05-.29-12.46,2.05-11.86-5.08-2.87-1.18-3.5,1.58-3.96,1.69-1.37.3-2.75-.29-4.3.26-.22.08-3.24,3.16-3.34,3.38-.49,1.11-.09,3.15-.25,3.15h-11.86c-.14,0-1.63,2.16-1.66,2.3-.25,1.15-.27,3.78-.1,4.96.24,1.65,1.75,1.17,1.8,1.66.26,2.32-3.89,4.58-.13,4.68l.07,1.62c-2.11.17-2.28,4.13-3.79,0l-1.24.04c.45,3.62-10.96.64-11.87,1.67.55,2.35-.8,4.27-2.94,5.13-4.29-.37-9.44.21-13.6-.19-2.16-.21-3.73-2.78-7.17-.72-.9-3.31,2.2-1.58,1.68-4.23h-6.77s.84,3.38.84,3.38h-9.31s-1.28-5.07-1.28-5.07c-1.77-.35-2.73,4.43-4.01,4.81-2.5.76-4.54-.94-5.3,1.96l-1.23-.06c.47-3.25-4,.04-3.42-3.34l5.08-1.69c-2.88.29-5.49-1.1-8.16.31-.74.4-1.96,2.9-2.62,3.03-2.27.46-5.13-.44-7.27.06-.52.12-.61,2.77-5.09,1.65-.67-.17-.31-2.5-3.42-1.66-.64.17-.17,1.54-1.76,1.75-6.46.86-12.24-2.8-19.6-1.83-1.64.22-1.17,1.81-1.66,1.81-1.1,0-2.92-1.55-5.03-1.77-5.27-.54-15.09,1.15-19.38.04-.63-.16-.56-3.05-2.22-1.67-.12.1.14,1.19-.2,1.43-1.05.74-23.01.64-25.71.3-1.38-.17-2.16-2.97-7.41-1.74-.46.11-1.13,2.87-3.96,1.67-.27-3.48.8-7.77,5.07-6.77v-10.17c3.03-1.13,3.15,1.58,4.6,1.76,5.37.69,12.42-.87,17.8-.03,1.31.2,2.2,1.46,3.49,1.69,1.41.25,6.28-4.88-.96-6.77-2.22-.58-4.16.88-6.01-2.01-.49-.76-.06-1.94-.32-2.46-.57-1.16-2.28-.05-1.66-2.35,1.93-.26,4.39.41,6.19-.02.39-.09,5.85-3.26,6.24-3.35,1.7-.39,3.84.24,5.63.02l1.42-3.42c-2.21.83-2.4-1.7-3.78-1.8-4.36-.29-15.59-.5-19.56.03-.25.03-3.38,1.63-4.34,2.04-.33.14-.31,1.39-.74,1.45-1.86.25-3.51-2.32-4.54-1.68-.07.05.03,1.24-.64,1.64-1.2.73-2.63,1.04-3.88,1.72-.53.29-.54,1.5-1.17,1.66-3.16.83-2.81-1.42-2.98-1.5-.55-.27-9.79,4.36-10.8,5.36-1.04,1.02-.72,2.52-1.02,2.79-.6.55-2.9-.32-4.16.52-.68.45-.59,2.06-1.14,2.67-1.84,2.03-4.19,2.74-3.65,6.59.24,1.72,2.72,3.33,2.32,5.59,2.69,2.93,1.32-8.12,1.68-8.47l4.56-.05c.69,4.36,3.57,3.86,5.37,5.42.19.16,1.81,3.7,2.28,4.43.36.55,2.04.14,1.3,2.02-4.46,2.92-13.48,7.06-13.52-1.65h-10.16s0,5.07,0,5.07h-7.99s-.51-3.36-.51-3.36c-4.08-.41-6.13-2.09-10.51-1.69-1.3.12-2.61,1.38-3.42,1.33-1.85-.1-7.19-3.84-9.49.57-1.45,2.78,1.07,3.42-5.34,3.98-.74-.74,3.04-5.29,3.19-6.52.27-2.15-4.17-6.1,3.57-6.18.57.54-1.22,5.9,1.27,5.09.8-.26.1-1.49.98-1.71,2.4-.62,6.62.65,9.06.01.69-.18.48-1.74.99-1.72,1.52.05,2.7,2.48,5.78,1.73.61-.15.49-1.54,1.14-1.68,1.36-.31,2.75.29,4.3-.26.3-.11,3.65-4.68,4.19-4.81,3.22-.8,2.56,2.73,6.18,1.68-1.25-4.39,2.17-4.87,1.7-8.47-4.57.71-6.64-.72-7.25-5.12l-4.61.03-.36,4.3c-.84,1.26-3.08.41-4.1.83-.75.31-.6,1.48-1.2,1.63-2.22.53-17.47.44-20.22.09-1.46-.19-1.56-2.88-4.6-1.77.64,3.82-2.82,3.37-1.67,7.89.15.6,2.7.5,1.64,5.07-.06.24-3.12,3.46-3.34,3.57-1.37.68-13.54.76-15.73.47-.19-.02-2.77-1.66-2.86-1.8-1.12-1.7,5.34-3.71,3.33-6.72h3.39s-.02-10.16-.02-10.16c-2.71,1.15-3.56-1.58-3.96-1.68-4.11-1-8.64.31-7.89,5.05h8.47s.85,5.08.85,5.08l-3.8-1.68c-2.18,2.81-4.93,3.82-3.83,7.91.18.68,2.77.39,1.68,2.23-.09.16-2.44.91-3.09,1.98-.47.78-.08,2.03-.57,2.83-1.56,2.56-6.47,2.49-9.25,1.94-1.27-.25-2.11-3.35-2.31-3.35h-18.63v3.39c-3.63-1.03-9.28,1.91-10.1-3.35,2.74-2.03,3.2-2.05,6.71-.89-.68-5.25,1.85-6.52,6.79-5.92v-6.78c1.93.24,4.39-.4,6.19.02.75.18.06,1.99,2.7,1.75.71-.06,3.95-2.65,2.97-3.46-3.1.44-7.46-2.84-9.92-3.23-1.1-.17-3.32,2.43-5.32,1.53v-6.78c-1.77-.69-6.45.46-6.77,2.32-.28,1.61.61,3.18.41,4.6-.06.44-3.69,6.77-3.79,7.2-.41,1.84.81,6.76-1.94,7.62-5.64,1.78-17.31-3.37-16.71,5.36-2.54,1.14-4.93-1.68-6.34-1.73-.24,0-.82,2.97-3.81,1.73v-3.39h-16.94c-.23,0,.57,2.76-3.38,1.7.26-1.88-.43-4.49-.02-6.19.23-.96,2.4-1.04,3-2.25.74-1.5.08-3.18.45-4.48.62-2.16,4.71-2.87,6.72-2.32.65,2.53-1.56.88-1.76,2.9-.11,1.1.18,2.32.07,3.45l1.68.41c-.23-1.83,1.03-1.87,2.56-1.68l-.85-5.07,18.05-.02,3.97-3.37c-5.99-.61-13.3.78-19.11.06-1.67-.21-.87-1.85-2.46-1.83-2.7-.2-1.94,1.56-2.71,1.74-3.59.85-9.29-.38-7.62-4.84,2.14-2.98,5.08-1.37,8.19-2.33-3.39-2.18-4.54-3.64-8.92-3.02-2.78.39-3.5,5.64-4.74,7.79-.62,1.08-3.15,2.53-3.24,3.03-.34,1.82.33,3.88-.05,5.59-.17.74-1.93,0-1.75,2.69.09,1.32,4.79,3.46,1.16,6.39s-4.77.29-7.48,0c-4.84-.53-10.81,1.54-14.6,3.26-4.8,2.18-3.21-1.89-6.52-1.68l-3.4,3.46-2.04-3.02c-.8-.55-13.08-.68-14.94-.44-1.45.19-1.58,2.89-4.6,1.76-1.25-4.52,2.34-4.94,1.75-8.92-.1-.69-2.65-3.99-3.44-2.94-.16,1.44.32,3.16-.01,4.51-.19.78-3.24.34.06,5.15-2.02.61-3.58,4.75-5.11,3.85-.16-.09-1.14-2.82-1.93-3.1-1.4-.49-6.33-.18-6.61-1.63-1.16-1.48,4.85-8.45,5.34-8.62,1.57-.55,3.37,1.44,4.88-1.45-6.38-.88.12-7.41-1.69-12.28l-6.31-.03-2.18,5.1-1.69-.43v-2.94c-2.83,1-3.29,2.74-4.65,5.08-.72-2.93-2.73-1.23-4.92-1.7-.64-.14-.5-1.51-1.16-1.66-5.71-1.36-3.79.83-4.53,2.72-.37.96-3.07,1.95-1.66,5.73h3.38s0-5.09,0-5.09h3.38c.24,2.1-1.11,5.07,1.54,5.22l.15,1.13c-.7,1.9-4.13,1.42-3.38,3.82,2.86-.9,4.89,1.63,7.22,1.79,1.86.12.55-2.5,2.93-1.78,4.72,8.96-2.88,5.83-7.84,6.8-1.37.27-1.51,4.74-6.8,3.32-.58-.16-.58-1.25-.87-1.38-5.59-2.38-17.37-2.9-23.91-2.05-1.07.14-2.88,3.29-6.29,1.76-.9-2.2,1.53-1.36,1.71-2.23.26-1.25.69-9-.13-9.51l-10.05-.11c-.53,4.11,2.06,10.84-3.38,11.86v-11.86l3.36-2.3c-.21-4.7,1.77-10.49,3.69-14.4.19-.38,1.64-.1,1.43-.65-1.71-2.44-3.81-3.12-3.81-6.36-1.77,1.07-.84,3.2-1.33,4.45-.86,2.23-.87,1.54-1.65,5.13-.14.65-1.51.51-1.66,1.15-.26,1.08-.27,4.55-.03,5.65.19.89,2.52-.04,1.7,2.23h-5.08c.43,2.59-1.44,6.36,1.71,7.21l-.04,1.24c-3.1-.25-1.21,4.48-1.66,6.8-.53.52-12.49-.38-14.87-.05-3.31.46-4.64,2.46-9.33,1.8-1.57-.22-1.11-1.58-1.79-1.74-7.71-1.8-12.78,3.34-20.81-.06-1.05-.45-.03-2.33-2.31-1.65.29,8.55-5.21.1-5.68-.02-1.27-.31-5.85.37-6.19.01v-3.38s3.4,0,3.4,0v-5.09s-3.4.01-3.4.01c1.5-5.18-5.21-9.66,1.68-11.88l-.07-1.61c-2.73.1-1.38-3.04-1.6-5.14l3.38,1.68c.47-.57-.41-7.7.02-9.58.07-.32,3.46-1.68,1.18-3.98l-4.58.02c1.62,3.58-4.84,5.68-5.14,8,.52,4.02-.52,8.93-.01,12.79.2,1.57,1.58,1.11,1.74,1.79.37,1.59-.16,3.65.01,5.35l-6.77-.84c-.59,4.34,2.78,5.8,6.78,5.07v8.48c-3.55-.56-7.85.6-11.16.36-2.76-.2-1.69-1.88-3.65-2.06-1.39.62-1.82,3.18-2.73,3.4-1.45.35-9.91.27-11.71.04-2.15-.28-2.1-3.76-5.03-3.52-2.31.18-2.01,4.88-7.5,3.45-.67-.17-.58-1.67-1.04-1.72-1.91-.23-3.87,2.56-6.3,1.74-2.45-13.31,10.11-6.9,18.01-8.51.89-.18,1.81-3.17,3.55-3.4,1.38-.18,5.41-.22,6.65.07.46.11,1.11,2.86,3.96,1.68,1.33-3.38-1.15-4.73-1.4-5.36-.41-1.01-.14-2.11-.54-2.85-.8-1.49-4.57-3.07-3.14-7.03-2.39-.1-2.67,3.29-5.5,3.35-1.35.03-2.7-1.47-4.28-1.62-4-.38-8.22.19-12.24-.05v-3.38c.35-.37,4.94.35,6.22,0,.91-.24.46-1.71.55-1.71h11.86l-2.93-3.46-17.17.34c-2.33,1.81-1.66,3.76-2.7,6.19-.6,1.41-2.5,2.13-2.59,2.6-.79,3.94,1.37,5.8-3.39,8.49l1.68,6.15c-3.08,1.45-6.92,1.08-9.61,1.7-.67.15-.58,1.72-.94,1.68-3.09-.34-5.34-2.4-10.26-1.75-1.62.21-.81,1.62-2.42,1.82-2.47.31-15.17-.63-15.73-.07v5.09c-6.6,1.24-14.91-2.09-3.38-3.4l-2.54-5.07c1.96,1,4.4-1.7,4.66-1.7h13.13c.47-2.72-.94-1.24-2.11-1.66-2.26-.82-5.21-2.38-7.51-1.74-.67.19-.45,2.95-2.21,1.67-.33-.24,1.12-1.97-2.99-1.73-3.01.17-6.45,3.8-7.62.07l-1.24.05c-.03.42.06,1.24-.21,1.42-.7.48-4.95.46-6.02.21-.65-.15-.52-1.5-1.12-1.67-3.05-.88-2.8,1.54-3.41,1.67-4,.89-10.41.84-14.09,1.73-.57.14-2.16,1.06-5.09,1.69-.7.15-.27,1.72-1.82,1.79-2.71.11-4.03-1.98-6.77-1.88-2.03.08-3.43,1.54-5.15,1.73-6.13.68-13.61-.79-19.49-.02-1.57.2-1.11,1.58-1.8,1.74-2.57.61-6.36-.63-9,.18-3.22.99-1.85,5.98-7.77,6.61-1.6.17-5.48.87-4.68-1.69,3.23.64,5.74-1.88,5.08-5.08-4.72,1.12-11.11-1.99-14.82,1.69-.83-3.14-4.62-1.25-7.19-1.7-.2-2.18,1.43-3.26,1.73-5.45.82-5.81-1.83-12.64,1.69-17.79-2.19-1.57-4.09-2.36-3.44-5.53l-3.25-.11-.08-6.64,3.35-.03c-.34-2.41.49-5.69-.02-7.9-.17-.73-1.84-.28-1.77-1.82.13-3.09,2.57-5.67,1.85-11.09-.19-1.46-2.88-1.56-1.77-4.6l4.29-.4c.09-7.61,4.11.27,4.78.41,1.18.26,2.76-.31,4.02.02,3.62.94,6.38,4.09,8.98-1.25-3.11-3.57-.91-8.14-1.72-11.79-.18-.81-2.55-.14-1.7-2.24,4.38-1.32,8.98,2.14,11.43-3.39l3.35,3.44,8.37-.04c1.88-5.22,3.46,3.12,5.56,1.59.12-.09-.13-1.42.62-1.62,1.2-.32,15-.46,15.79.02.52.31.5,1.57,1.19,1.71,1.44.28,8.36.04,9.57-1.29-1.16-.72-2.68-.31-4.21-.9-1.65-.63-2.88-2.89-3.15-2.93-2.29-.35-4.94,1.66-7.08,1.2-3.17-.68-1.23-5.12-8.23-1.43-1.46.77-.45,2.52-2.73,1.95-.35-2.7-1.34-6.02-4.53-5.07-.55.16-.55,2.63-3.48,1.73-.5-1.94-3.06-7.41-5.55-5.12-1.28,1.18,3.44,4.32,0,5.07l-.89-5.04c-3.2,1.28-4.48-1.64-4.78-1.71-3.51-.85-3.94.27-8.17-1.42-.99-.4-2.22-.16-2.84-.56-.35-.23-1.74-2.12-2.34-2.75-.41-.43-2.37-.43-1.23-2,.1-.14,1.16.05,1.36-.25.8-1.22.69-26.14.31-29.09-.14-1.07-3.27-2.87-1.76-6.3,2.29-1.29,5.2,1.7,5.5,1.7h19.9c.68-.94-2.11-3.31-2.31-3.35-3.36-.69-8.22.48-11.72.03-1.63-.21-.82-1.64-2.42-1.83-3.48-.41-8.18-.32-11.73.08-5.22-3.96-1.14-10.84-.58-15.65.34-2.92.41-10.79.04-13.63-.2-1.54-1.48-1.04-1.72-1.82s-.79-5.37-.09-5.77c5.07-.89,8.26,2.18,14.07,1.34,2.85-.41,4.13-3.46,5.04,0,1.83-.43,3.08-1.81,5.11-1.83,1.53-.01,1.08,1.6,1.81,1.77,2.2.52,5.49-.32,7.89.01l-3.97-3.36c-4.69-.62-10.6.4-15.1.07-1.57-.11-1.13-1.61-1.82-1.77-1.6-.37-3.65.18-5.35-.02-.32-.92.84-1.85.84-2.11v-28.37c0-.19-2.98-1.93-3.37-1.68.16.66-1.75,3.04-1.92,3.11-3.25,1.29-2.7-.79-3.88-1.35-.98-.47-3.05-1.64-3.25-1.7-.83-.26-4.83.45-6.21-.07l-.14,4.97c-1.07.31-2.17.1-3.25.1.4-1.64,1.44-7.33-1.68-6.77l-1.7,6.77c1.12.01,2.26,0,3.38,0-.92,3.73-5.4,5.11-7.83,6.81-2.6,1.83-2.1,4.7-7.41,3.35-.42-2.21,2.51-2.39,3.27-4.09.64-1.43,1.38-2.44-.31-3.51-1.23.55-4.24,5.43-4.87,5.66-4.67,1.69-5.16-2.16-8.03,5.15-.68,1.73.86,4.18-1.91,3.57-.42-3.24-1.44-5.96-5.1-5.08-.69-2.93,1.85-4.14,2.97-6.77,3.03,5.69,3.15,2.74,6.78,0l.42,1.68,1.26.02c.69-2.25,1.61-1.81,3.81-1.71l-.11-4.11-4.97-1.4,5.07-2.51c-3.87-6.75-6.22,1.47-7.81,2.36-3.19,1.8-1.75-1.78-3.6-1.1l-2.14,4.23c-4.98-3.97,1.18-5.24,3.43-7.14,4.02-3.39,5-6.97,11.25-5.54.81.18.2,2.34,2.68,1.69.27-.07,1.14-3.12,4.66-1.72.42.42-.99,4.26,1.25,3.38l9.75-5.06-5.33-1.72c-1.03.15-2.09,4.31-3.98,3.4,1.29-4.35-2.21-4.87-1.7-8.47-4.52-.45,1.06,5.8,0,6.78-3.04,1.14-3.13-1.58-4.63-1.76-2.82-.33-1.66,2.55-4.68,1.76,2.11-3.74-.15-2.78-.82-4.03-.32-.6.49-3.62-2.15-3.56-2.13.05-.91,7.26-1.26,7.61h-5.09s0-3.39,0-3.39h3.39c0-2.51-2.81-1.63-1.7-5.09h-6.77c1.16,1.99.98,5.07,1.76,6.97.37.91,3.97,3.78,3.28,4.87l-10.12,3.41c-.66-3.22,1.88-5.72,5.08-5.08,1.59-1.48-3.48-4.81-5.09-5.08.93-2.78,2.09-5.5,1.69-8.46-4.24-.34-5.58,5.06-5.08,8.47,1.09.13,2.36-.18,3.39,0-.58,1.72-2.89,7.01-3.66,8.2-.85,1.31-3.75,1.64-3.11,3.64,2.66.8,2.64,2.35,5.07.02l-1.68,8.46h6.77s-1.73,4.65-1.73,4.65c.03.28,3.12.59,1.73,2.12-1.14,1.26-3.72-.84-5.53-.17s-1.4,2.13-2.93,2.71l-.43-2.54-1.74,3.43-2.91-.04v-2.93s-1.68-.45-1.68-.45c.38,1.73-2.2,2.08-2.31,2.88s.83,2.14.66,3.36c-.11.81-2.79.08-1.76,2.21,3.43.09,7.07,1.32,9.75-1.69,1.55,4.16,1.84.41,3.79-.84.48,6.25,5.17,3.61,9.04,3.7,2.21.05,11.74,1.03,12.81.3.19-.13.12-2.68,1.84-1.43.09.06-.22,1.47.57,1.68,1.6.42,3.89-.4,5.65,0,.63.14.51,1.5,1.16,1.66,5.2,1.24,15.71-3.43,14.74,5.53-.41,3.74-7.9.45-10.24,1.25l-.03,3.36-4.63,1.71c-1.33-1.85-2.77-2.33-2.11-5.06-4.43,2.29.1,7.87.06,9.71-.01.44-1.57.35-1.73,1.01-.9,3.56,1.4,6.74,1.69,10.02.81,9.05-1.17,20.15-.07,28.85.2,1.62,1.62.81,1.83,2.43,1.13,8.97-1.32,20.85-.14,29.76.22,1.64,1.81,1.17,1.81,1.66,0,1.17-1.48,2.62-1.7,4.25-.29,2.16.32,4.55-.07,6.55-.17.88-5.37,3.9-5.06,5.27l1.75,2.06,1.63.04c-.13-2.47,2.83-2.22,4.45-3.41,1.13-.83,2.3-3.65,3.6-3.36l3.86,5.53-1.74,4.64c-2.56.65-1.53-2.49-3.96-3.24-1.67-.52-3.43-.39-4.48,1.12,3.99,3.93,0,5.7-.06,6.06-.22,1.4.79,2.83.72,4.11-.81,15.89-1.49,31.2-4.03,46.61-.85,5.15,1.78,8.84-3.41,12.66,2.19,2.27,6.23-.33,8.24-1.06,3.38-1.22,2.23,2.68-1.87,3.22-2.47.33-7.89.76-8.63-1.73h-2.3c-1,2.84-1.89.82-3.99,1.19-1.29.22-2.86,3.92-6.71,2.19l.05-2.99c-3.93-2.29-5.39,1.22-5.71,1.28-1.34.29-2.67-.23-4.29.27-.89.27-1.72,3.13-1.9,3.13h-24.13l-1.27-1.27v-13.97c-3.7-.67-.86,5.98-1.08,7.27-.15.9-2.08.82-2.33,1.79-.35,1.32.4,5.82.03,6.19h-8.48s-.43-3.4-.43-3.4l-1.26,3.39h-16.94l1.67-3.37-2.2-1.76c-2.94-.26-4.62,3.29-5.15,3.41-2.82.61-6.84-.41-9.94.06-1.34.21-2.34,1.43-4.23,1.7-6.35.89-14.64-.79-21.25,0l-3.36-3.45-3.57,3.36-7.25.05c-3.63-3.17-1.81-8.11-2.34-12.24-.22-1.68-1.43-3.01-1.67-5.1-.44-3.83.38-8.37.02-12.3l-2.11,2.53c-4.19-1.68-2.45-6.95-3.01-10.54-.87-5.63-2.7-12.17-3.3-17.87-.7-6.67-.42-19.48-1.76-25.2-1.28-5.46-.87-7.51-1.63-12.9-4.43-31.5-7.72-63.21-11.93-94.77-.27-1.99.21-4.33.02-6.39h3.4c1.16-2.99-1.55-3.43-1.7-3.94-.85-2.92,5.99-7.99,6.77-7.06.12,1.17-.29,2.6-.01,3.69s3.83-.29-.07,3.49c.68,2.1,2.04,6.33,1.81,8.37-.07.58-1.55.46-1.71,1.11-.51,2.05.33,5.21-.01,7.47l1.68.41c.46-2.75,5.3-5.13,6.52-7.02.52-.82,1.75-5.02,2.25-6.23.12-.3,1.24-.3,1.38-.87.46-1.87.4-14.49.09-16.82-.19-1.48-3.16-1.35-1.5-6.08.26-.75,9.96-9.28,11.55-11.03,12.41-13.65,25.02-26.97,37.65-39.66,2.71-2.73,6.48-5.46,8.13-8.78l1.6.09c-.02,2.25,1.59,1.58,3.47,1.59l.25-3.16,4.83-3.62.8,8.09,2.58.37c.2-1.41-.35-3.25,0-4.53.25-.95,2.13.13,1.72-1.81-2.23-.75-1.81-1.52-1.71-3.81,8.09.79,18.05-1.05,25.89-.07,1.71.21.88,1.96,2.46,1.86,1.69-.11,2.79-1.45,3.44-1.49.91-.06,2.07,1.45,3.34,1.44.26,0-.06-2.43,4.31-1.81,1.71.24,1.09,1.85,1.65,1.8,1.23-.1,1.87-1.37,2.54-1.43s2.52,1.36,4.24,1.47c1.9.12,8.27.13,10.18.03,1.68-.09.86-1.98,2.48-1.89,2.29.13,5.98,1.76,9.31,1.82,3.76.07,10.88-2.45,11.48,1.65l1.25.03c.6-2.38,6.13-2.35,8.69-2.35,17.58,0,35.43,1.35,53.1.62l4.67-3.37c1.22,3.87-1.33,6.73-1.73,9.69-.35,2.56.55,5.88,0,8.32-.25,1.11-7.23,7.78-8.34,9.79-.99,1.81-1.95,3.93-1.79,6.07l-10.15-1.69c-.48,2.37,6.19,4.98,5.06,6.75-2.52,1.62-8.27,5.6-6.75,8.48h-3.39c-.87-2.71,4.05-4.81,1.25-6.77-5.4.81-2.59,3.55-3.1,4.91-.15.41-6.06,4.72-6.62,5.69-.22.49,2.45,3.31,2.94,3.82,1.77,1.83,4.91,1.51-1.15,3.48.44,7.47-9.1,9.72-15.35,9.2,0,3.01,1.57,4.22,4.52,3.39.96-.27-.11-2.14,1.82-1.71.72,2.65,2.58,1.63,5.02,1.75,1.3-4.84,5.9-7.16,8.69-10.48,6.21-7.37,12.52-16.65,18.95-24.48,2.37-2.89,5.03-6.53,6.99-8.87.82-.97,6.38-5.46,6.48-5.95.6-4.71-.65-10.56,0-15.1.29-2.05,1.74-3.22,1.83-5.06.08-1.58-1.64-.75-1.86-2.46-.87-6.91.91-22.21,1.81-29.65.24-2.03,2.27-4.08,1.64-6.63.46-1.72,8-1.81,9.58-1.44.69.16.23,1.54,1.8,1.74,4.05.53,19.63-1.07,21.68.33l2.54,5.16c.42,1.41-1.54,1.04-1.71,1.78-1.21,5.22,2.51,6.7,1.8,11.61l3.74,1.28c1.63.97,1.63,7.82,1.09,8.44-.34.39-4.61,1.03-4.97,2.39l.02,2.27c3.78,1.25-.73,3.63-.06,6.75.19.89,2.44,1.01,3.04,2.23,1.03,2.07-.39,5.32,2.74,6.8s11.19-1.27,6.09,6.32l1.91,1.97,6.6-1.51-.81,3.87-4.26-.49c-.28,2.89-2.47,4.69-1.69,7.9.07.29,4.5,2.94.09,4.04l-.08,1.6c2.15-.27,2.18,2.85,3.95,3.32,2.05.54,7.42-2.13,7.05-4.99h-1.93s-.6-1.68-.6-1.68c2.73-.73,2.29-2.59,5.06-3.4.37,1.1.46,2.19.09,3.29l4.89-.02.1-8.35-4.23,1.7,1.69,3.37c-.78.14-1.89-.19-2.54,0-.93-2.74-2.35-2.9-2.96-4.25s-.13-2.75-.48-3.6c-.39-.98-2.31-.4-1.66-2.72l2.91-1.34c2.1,4.61,3.15-.42,2.19-3.32,3.21.52,8.44-.74,11.3,0,.87.22,0,3.57,3.94,0l-1.68,5.07,4.02-1.23-.63-3.84c3.59-.5,4.08,2.97,8.46,1.69-1.79,8.13,2.43,1.06,3.66.27.65-.42,1.86-.14,2.85-.56.55-.24,2.38-3.94,4.09.3l1.23-.05c.75-4.74,5.62.03,6.35.11,3.27.32,1.01-2.17,3.84-1.76l.44,3.4c2.92-.06,3.15-6.61,5.08-1.69l1.24-.05.55-1.71,4.49.97.07,9.25,1.69-3.39c2.55-.02,1.55,2.81,5.07,1.69l-1.69-5.07c2.66.94,4.56-1.38,6.44-1.68,4-.64,11.76.52,6.65,5.04-1.38.57-2.64-3.26-3.52-3.38-2.15-.29-3.46,1.16-5.26,1.84l.78,4.11,4.59-.83,1.05,1.25-.57,2.11,4.12-.1c.55-3.52,2.2-4.75,2.69-7.88.19-1.18-.82-2.54,1.22-2.17l2.11,2.13c.68,1.59-1.91.99-2.14,2.86-.18,1.47,1.66,3.16.47,5.16,3.49-.77,6.7-1.22,10.16-1.69.21,1.77,2.97,4.8,5.08,4.23.1-1.19-.26-2.55-.02-3.69.19-.89,2.53.04,1.71-2.23-3.81-1.28-4.8,1.42-6.77,1.69-.26-2.12-.75-4.98,1.69-5.5l-3-1.36c-1.57-.09-.82,2.76-4.19,1.77-1.86-.55-.88-2.27.43-2.93,6.58.22,14.43-1.19,20.79-.5,18.37,1.99,38.02,2.66,56.65,3.48,20.05.88,46.06-.83,65.29,1.6,1.62.2.81,1.62,2.43,1.83,12.35,1.56,29.13-1.03,41.58-.16,1.59.11.82,1.65,2.45,1.85,11.82,1.49,27.64-.04,39.91,1.56.54.07,8.66,3.45,9.2,3.52,5.21.68,13.93.36,18.67-1.81l.91,1.78c7.49.26,18.01-1.04,25.41-.1,1.62.2.8,1.62,2.43,1.83,3.05.4,7.43-.19,10.59-.5,6.05-.59,8.32.99,14.06,2.09,6.95,1.33,13.58.75,20.33,1.69,2.21.31,3.28,1.72,5.92,1.84s1.41-1.97,4.15-1.89c3.45.1,6.11,2.64,9.79,1.78v4.24c-1.9-.89-4.6-.41-6.2-.86-.77-.22-.97-3.97-4.4,1.72h-1.26c-.02-.69.2-1.79-.16-2.32-1.51-2.17-18.74-.62-22.35-1l-1.63-1.78-3.41,1.77c-2.88-3.21-5.53-1.33-9.14-1.23-1.6.05-3.99-1.33-5.48-.3-.44.31.47,1.88-1.44,1.47-.78-.06-.11-1.49-.98-1.72-3.61-.94-10.95.65-15.16.06-9.53-1.35-20.24-1.37-28.91-3.41-1.37-.32-9.02-.52-10.89-.45-3.02.12-1.98,5.67-5.03-1.24l-3.37,1.72c-.39-2.43-4.57-2.21-6.65-1.72-.65.15-.52,1.49-1.13,1.67-2.51.75-4.76-3.08-7.48-3.42-.91,3.12-2.27,1.17-4.39,1.21-8.76.16-19.26-.7-27.79-2.9-2.29,4.53-9.42.45-12.67-.01-7.07-1-17.04,1.09-24.47.06-1.97-4.73-2.14,1.47-3.91-.04-.11-.1.15-1.18-.2-1.43-.5-.35-10.06-.53-11.13-.24-.68.18-.38,2.78-2.23,1.69-.16-.09-1.14-2.81-1.92-3.11-3.6-1.38-3.17,1.48-3.61,1.46-1.34-.04-2.34-1.96-5.1-1.83-1.53.07-1.12,1.61-1.82,1.77-2.74.65-6.16-.67-8.36-.45-1.5.15-2.48,1.8-4.23,2.13-2.08.39-4.57-.17-6.73.04l.19-1.71,1.92-1.68-3.01-.63c-1.96,3.69-4.41,4.81-4.61,9.1,1.11.01,1.51-.1,2.51-.48,2.34-.9,2.01-3.08,4.26-2.9.53,5.95-.78,4.25-4.5,5.08-.97.22.02,2.47-2.27,1.69,0-1.12-.06-2.27,0-3.39ZM850.71,42.38c-2.26-.31-6.75-.84-7.91,1.54-1.08,2.22-1.05,11.22,1.89,11.82,9.6,1.95,9.22-6.79,6.01-13.36ZM847.45,79.49c.17-.17,1.63-4.26,1.57-4.53-.62-3.13-3.1-1.27-4.94-.53l-.02,1.25c2.21-.64,1.31,5.82,3.39,3.81ZM826.85,111.45c.35-.64.76-2.12-.12-2.3-3.63,1.01-6.69,4.77-2.54,7.6,2.12.83,1.01-3.34,1.27-4.51.14-.63,1.31-.65,1.38-.79ZM327.53,125.22c-.07-3.23,1.72-6.78,1.55-7.8-.32-1.85-2.52-5.46-4.93-4.9v12.7c1.11.05,2.26-.07,3.38,0,.02,1.07-.48,2.76.51,3.48l6.27-.1v-2.53c-3.96,1.95-3.08-.56-3.99-.84-.86-.26-1.9.04-2.78-.01ZM822.37,118.12c-.41-.71-.4-1.43-.32-2.21-3.72,1.08-3.7,3.24-3.37,6.77l1.69-2.54,3.38,1.69c.95-2.9-.97-2.99-1.38-3.71ZM357.79,118.72c-5.97-2.85-7.01,5.54,3.61,3.11.56-2.79-1.6-1.14-3.15-1.95-.27-.14-.25-1.05-.47-1.15ZM501.81,123.3c-1.66.88-2.93-1.15-4.54-1.43-2.88-.51-6.32.4-9.23-.08-2.71-.45-5.05-3.97-8.08.48l1.68,2.94-3.19.68-3.15-4.07-2.21,3.8,3.47,3.49-.84,2.88h4.24s0-3.38,0-3.38l3.38,1.7c-.86-4.81,4.8-6.67,3.39,0,4.48-.15,8-3.77,12.29-5.98l1.16.14c1.18,2.9,3.36,6.68,6.87,5.83.83-2.27-1.55-1.35-1.71-2.23-.47-2.55.51-3.66-1.69-6.21-2.02-.86-1.57,1.31-1.83,1.45ZM459.9,128.39c-.79-1.86.57-4.36-1.52-5.67l-3.46,1.6.04,3.45,3.88,1.22.8,3.01c4.57-.21.35-3.38.26-3.61ZM232.63,123.6c-2.79-.16-3.67,2.72-3.33,5.01h3.4s0,5.09,0,5.09h3.38c.87-5.36-.47-6.45-3.44-10.1ZM371.88,128.95c3.37-3.21,3.32-4.45-2-4.57v5.93c2.16.6,1.41-.79,2-1.35ZM380.03,124.38c-4.16-.28.46,6.56-.09,8.81l3.48.5c.78-3.83-3.18-5.92-3.39-9.31ZM405.82,126.54c-.58-.71-1.03-1.48-1.65-2.15-4.01,2.02-3.91,5.11-5.57,8.83,4.64,1.86-.67,4.55,4.29,7.24-4.08-1.19-4.01,2.47-7.62,1.71.62-2.62-.75-3.31-2.12-5.1-3.15.94-3.35,3.94-2.95,6.78,2.19.9,1.54-1.65,2.1-1.71,2.27-.27,5.89,4.4,6.38,6.79,3.16.83.87-3.13,1.8-4.11l3.26-.96v6.78s2.54,0,2.54,0l-.85-6.77h3.4s-.01-5.09-.01-5.09h4.23s-3.12-3.36-3.12-3.36l-4.93,1.75-2.92-1.8,2.51-5.05,2.53.85c.54-3.13,0-3.01-1.3-4.61ZM366.22,133.48c1.39-2.4-1.93-5.8-3.12-4.86-1.36,1.07,2.07,6.38,0,8.46,2.79.56,1.14-1.6,1.95-3.15.14-.27,1.06-.24,1.17-.44ZM393.58,130.31c-3.53,1.76-5.17-1.27-8.46-1.69-.34,3.03,3.63,3.01,4.81,3.64,2.23,1.19,3.96,5.92,3.64-1.95ZM419.32,133.47c-.33-1.04,0-2.8-.35-4.01-1.95,1.12-6.92,2.81-4.96,5.82.64.98,4.86-.27,3.28,5.18,2.27.82,1.35-1.52,2.24-1.7,1.37-.29,3.08.18,4.53.01l-1.27-2.21-2.11.53c1.09-2.71-1.29-3.42-1.36-3.62ZM223.99,130.58c-5.09-2.1-2.44,2.11-1.13,4.47l4.74,4.56c.83-1.95-2.07-8.4-3.61-9.04ZM217.44,134.54c-2.8-.54-1.15,2.63-3.37,3.82-3.42,1.84-3.42-1.15-3.95-1.29-1.64-.44-5.06,1.65-4.53,2.95,4.19,3.11,8.89.51,11.84,5.52-1.2-5.43,1.85-3.56,4.24-6.77h-4.24s0-4.24,0-4.24ZM247.08,135.39c-3.6-.77-6.57,1.31-5.92,5.07,2.33.72,1.21-1.33,2.32-1.68,2.41-.77,2.6,1.17,3.6-3.38ZM356.27,135.46c-4.05.12-3.01,4.99-3.34,8.38h-2.91c-2.08,1.71,1.06,1.55,1.24,2.25.34,1.29-.21,3.12-.02,4.54,1.44.17,3.18-.33,4.54-.02,1.03.23-.41,3.47,3.92,0-3.81-4.41-.61-9.21.64-13.98l-1.9-1.26-.45,1.67-1.64.02-.07-1.58ZM364.79,157.4c.1.49-.13,1.14,0,1.68,3.3-.93,3.1,1.21,4.41,1.99,4.66,2.77,8.73,6.02,13.24,8.07,2.74,1.25,6.98,4.16,6.11-1.2-.24-1.5-2.5-1.53-1.76-3.77-2.36-.83-1.43,1.43-1.71,1.65-1.61,1.23-1.72-1.32-1.9-1.4-.97-.45-2.12-.07-2.88-.54-2.2-1.37-2.61-3.74.17-4.78,1.44-.54,2.07,2.98,4.23,3.38,2.03-4.65,3.95,1.13,7.17,0l.07,3.31c5.24,1.75,5.5-1.01,8.42-3.74.43-1.54-3.74-3.87-5.09-2.97l4.58-2.58,1.86,2.54,4.57-.79-4.23,7.61h5.92s-.77-4.14-.77-4.14l3.3-.93c-.65,4.3,1.43,10.54-4.51,10.19-1.44-2.93-3.62-3.38-6.2-5.02-2.01,1.52-2.75,2.1-6.23,1.6-1.22,4.54,3.29,3.61,5.09,6.76-1.06.44-5.56-1.17-5.06,1.26.63,3.09,6.48,4.25,8.94,3.89,1.45-.21.98-1.28,1.91-1.68,2.12-.92,4.48-1.59,6.02-4.13,2.23-3.67,1.74-7.84,3.71-10.92,2.26-3.53,4.44-2.63,6.79-8.45.15-.38,2.67-1.4,1.4-4.51l-4.95,2.38c-.14-.1-.03-1.36-.68-1.54-1.08-.29-9.01,1.3-10.66,1.75-.51.14-2.42,2.45-2.35,3.31-1.57,1.02-4.4-3.66-3.37-5.06-2.75-.36-2.58,4.42-5.91,3.39l-.87-8.47c-2.68-2.46-1.33,6.44-1.69,6.77-3.42,1.7-4.5-3.01-5.09-3.37-2.21-1.34-.88,2.54-3.37,1.67.55-2.39,1.2-5.84,4.23-5.08l-.85-4.23-3.37.85c2-4.79-4.12-9.72-5.93-4.64-.64,1.79,2.53,1.64,2.53,2.53v13.97l-5.08-1.69,3.38,5.07c-1.9.29-4.49-.44-6.21,0-.69.18-.48,1.74-.99,1.72-.34-.01-4.55-1.39-6.34-1.73-.47-2.39-1.89-1.65-1.69-2.11l3.3-1.35c.84-2.21-1.21-3.71-1.59-5.51-.5-2.4,2.7-5.3,3.34-7.95-2.1-.64-2.2-2.54-5.05-1.71-.04,1.79.54,3.31.45,5.13-.17,3.23-1.99,2.86-2.22,5.47.17,1.52,2.9,1.57,1.78,4.64h-2.93s-.44,1.68-.44,1.68c2.28,1.73,2.77,1.28,5.06,1.71ZM1104.9,140.47c-2.23-.28-3.81.27-5.07,2.12-.55,1.52,1.24,1.11,1.48,1.47.44.67-1.12,2.43.64,3.16,2.11.88.66-5.9,2.95-6.76ZM230.99,142.16h-5.08c1.33,3.39-1.15,4.72-1.4,5.36-.4.99-.16,2.23-.56,2.84-1.1,1.67-4.31,1.75-3.11,5.34,2.54.61.86-1.47,2.91-1.73,3.32-.42,2.01,1.3,2.17,3.42,2.27.81,1.35-1.52,2.23-1.71,1.38-.29,3.08.18,4.54.01.06-1.34.17-2.76-.76-3.89-1.95-2.35-5.79,1.03-4.28-5.65.28-1.25,4.02-1.9,3.34-4ZM178.21,145.87c-1.34-.59-6.24-1.76-7.64-1.72-3.93.11-2.82,4.88.94,2.81.26-.14.2-1.15.36-1.23,2.08-1.01,3.66,2.85,3.28,4.86l5.05.04c.56-1.56-.59-4.15-1.98-4.76ZM210.67,143.86h-5.09c.08,1.77-.62,5.9,1.28,6.77,1.38-2.61,4.82-3.05,3.81-6.77ZM1196.35,145.55c-3.87-.78-.97,6.37-1.68,6.77-.39.22-1.92-.29-2.75.03s-.62,1.48-1.23,1.64c-3.03.81-4.87-.22-6.16-2.84l-1.67-.46-1.84,2.88,1.79,5.52-4.3.36-.79,3.03-4.21-3.38-.99,4.98-2.4.52c1.12,2.26,4.88,1.86,7,1.22.22-.06,3.56-1.79,3.74-1.91,1-.64,5.33-6.33,5.96-6.46,4.78-1.03,6.8,1.88,10,1.76,1.54-.06,1.13-1.63,1.82-1.78,2.14-.48,4.89.61,7.1-.39l.79-6.41c-2.87-1.18-3.47,1.55-3.96,1.67-4.8,1.21-7.12-2.3-6.2-6.74ZM371.52,147.29c-.54-.37-3.21,1.51-3.31,1.67-1.15,1.84,1.49,1.53,1.67,2.21.34,1.29-.2,3.12,0,4.53,3.76.49-.35-4.94,3.39-5.5l-1.75-2.91ZM1096.42,148.94c-2.39.78-5.29-1.71-6.76.42l1.63,2.91c-2.54.41-6.39,8.35-5.03,10.21,2.13.46,1.49-.51,2.19-1.59,1.32-2.04,2.02-4.76,3.25-6.55.66-.96,5.97-4.38,4.72-5.41ZM1030.2,152.53c-.42-.42-1.45-.49-1.96-1l-4.65,5.85-1.69-.45.02-2.93c-1.93.24-4.39-.4-6.19.03-.56.14-.58,1.26-.87,1.38-.98.39-2.16.15-2.83.58-2.94,1.85-1.88,5.08-1.97,8.17,2.02.77,3-3.21,3.81-3.39,2.77-.61-.44,4.27,2.95,3.39l.12-4.11c3.41-1.22,5.72-2.47,4.97,2.42,3.56-.61,4.11,3.18,8.33,1.56l.98-3.25-2.56-.44c.46-2.16,3.5-5.83,1.53-7.82ZM1165.74,152.47c-2.68-1.07-4.84,4.66-1.57,6.2-2.79.71-1.52,3.03-1.69,5.5h6.78s-2.58-2.14-2.58-2.14c-.37-2.05.8-2.71,2.57-2.96l.02-1.25c-2.12-.2-1.93-4.71-3.53-5.35ZM1006.35,157.74c-.81-.3-3.47-1.21-3.96-.83l-1.67,5.07,2.56,1.77-1.69.84c1.69,1.98,3.83,4.39,6.39,2.16l1.24-7.22c-1.2.37-2.51-1.66-2.87-1.79ZM969.05,160.47c.21-.39.74-.78.81-1.35.43-2.51-4.76-2.31-5.52-.44-.58,1.4,2.44,6.08,4.71,1.79ZM999.9,160.79c-4.5.53-7.72-.31-11.86-1.69v5.07c2.39-1,4.51,1.35,5.67,1.53.65.1,4.02-2.01,5.68-1.44l.5-3.47ZM1157.4,159.09c-14.38-1.01-1.97,8.31-.08,5l.08-5ZM1071.02,160.79c-2.37-.89-4.17-.86-5.89,1.25l1.64,2.56-2.54,2.53c1.42.45,2.42,3.73,3.37,1.47l.13-1.75,4.12-1.41-2.52-1.29,1.69-3.36ZM236.92,162.49l-8.49-.48-.82,7.25,2.51-3.87c.9-.7,6.74,2.34,6.8-2.89ZM1042.23,170.95c2.81-.04,5.72.4,8.47-.42l1.54-1.88c.92-2.69-.89-2.5-1.96-4.47-1.66.73-3.68,4.74-3.98,4.9-2.02,1.07-3.43-1.5-4.07,1.87-1.13.02-2.26-.04-3.39,0-.1,1.46.27,3.04-.03,4.47-.26,1.22-4.04,1.91-3.35,4h9.31c-1.52-3.03-5.56.02-4.21-4.51.2-.67.97-.22,1.67-3.96ZM1001.39,169.44c-.29-.54-4.37-2.42-4.88-1.87-.49,3.67,1.43,5.56,5.07,5.07-.07-1.03.31-2.27-.19-3.2ZM219.14,176.03l-4.82,3.59-.25,4.87h3.38c-1.27-4.24,2.14-4.85,1.69-8.47ZM1240.08,184.23l.29-7.36c-7.34.8-5.13,5.71-3.37,11.01l3.07-3.65ZM974.48,186.19l-.38-4.27c-3.43-2.21-5.15-2.01-4.7,2.57l5.07,1.7ZM139.42,184.63c-1.22-.44-3.38,1.65-4.62,1.92l-3.72,4.72c3.59,1.52,4.77-3.17,5.64-3.41,3.57-.96,1.81,2.06,4.51,1.71.9-1.05-1.26-4.74-1.81-4.95ZM1054.09,186.2h-6.35s-.41,1.67-.41,1.67c2.56,1.04,3.81,4.02,6.79,1.17l-.03-2.85ZM158.36,192.76c-.57-1.29.89-2.63.26-4.02-.37-.83-1.46-2.11-2.56-.85-2.37,2.68-.64,6.79-1.26,9.61-.2.88-2.6.03-1.71,2.24,5.52,1.69,4.85-3.7,9.48-1.6.75.34.7,1.44,1.27,1.58,5.76,1.33,3.76-.8,4.51-2.71.35-.9,1.83-.4,1.77-1.88-.08-2.01-1.97-3.45-1.8-5.53l-2.2,1.28.52,2.11c-2.1.24-5.28-1.14-5.14,1.62l-1.2.08c-.23-1.04-1.88-1.78-1.93-1.9ZM80.19,189.67l-2.06-.91c-1.27,2.74-2.97,2.88-5.13,4.12-.64.37-2.3.08-1.19,1.77.12.18,3.35,2.19,3.8,1.79,3.45-3.88,5.2,1.21,9.58-1.91.65-2.9.43-3.95-2.69-3.25-.86.19-.05,2.58-2.24,1.7l-.08-3.3ZM95.29,189.85c-2.89-1.36-5.44.95-8.1,1.56l-.11,3.2h15.15s.04-5.02.04-5.02c-2.21-.35-3.39,1.7-5.53,1.78-1.49.06-1.18-1.38-1.46-1.52ZM1186.08,196.24l-.31-5.81-4.66,5.91c1.82.47,3.23.94,4.97-.11ZM147.8,191.55c-1.05-.55-2.08-.24-3.18-.27l1.69,3.37h-8.46s0,3.39,0,3.39c.32.34,5.86-.24,7.26-.06,1.74.22.78,2.83,4.38,1.49,2.58-.96,1.3-6.31,3.61-8.19l-3.84,1.72c-1.26.57-1.15-1.3-1.46-1.46ZM132.77,192.96c-9.48-1.33-2.51,7.45,0,5.09v-5.09ZM1281.01,192.99l-1.68.41c-1.22,4.36,6.57,5.66,8.18,8.32,5.13,8.41,11.33,11.55,16.86,18.68,2.12,2.74.73,5.94,6.29,4.75l-.95-20.23c-3.64,1.17-4.84-1.47-5.62-1.73-7.9-2.66-15.53-5.38-22.41-8.57-.82-.38-.76-.87-.68-1.64ZM1238.43,201.23c1.42-2.53-2.09-5.82-3.13-4.87-1.72,1.57,2.51,1.59,1.72,2.94l-2.56,8.06c4.01-.89,1.96-2.7,2.54-5.36.14-.63,1.32-.57,1.43-.77ZM163.25,218.37v11.86c3.16.55,1.29-5.7,1.71-8.02.28-1.55,1.63-2.04,1.68-3.4l-3.4-.43ZM178.49,225.14c.85-2.73-6.25-3.92-6.77-3.38v3.38s6.77,0,6.77,0ZM1177.71,233.61c.39-2.09,1.99-4.37-.47-5.9-2.39.22-3.78,1.77-3.75,4.2l4.23,1.7ZM1340.3,247.16c-3.35,3.55-4.58-.41-8.45,0,.05.9-.19,1.89.03,2.78s9.17,8,9.87,9.32c.5.96,0,2.41.38,2.99s2.07.42,2.73.92c.71.53.4,1.78,1.13,2.59,1.65,1.81,5.92,6.23,7.69,7.56,4.11,3.09,4.03-3.47,3.63-6.32-.22-1.57-1.58-1.11-1.74-1.79-.41-1.74.41-8.24-.02-8.73l-3.28.79c-1.4-4.34-6.6-8.57-11.1-5.87l-.87-4.24ZM905.05,255.63v11.86c0,.09-1.45-.36-1.7.55-1.62,5.98,4.9,4.75,3.4,10.45l3.25-.98.09-7.72c-5.89-4.13-1.9-3.59-1.65-4.55.69-2.62.62-9.56-3.4-9.61ZM923.68,260.71v15.24c0,.23,2.79-.57,1.7,3.39h1.69v-16.94c0-.14-2.11.19-1.71-1.68l-1.68-.02ZM747.53,265.81c-1.37-.91-3.9,2.68-3.37,4.51.18.61,1.51.48,1.67,1.13.56,2.34-.38,5.86-.05,8.37.21,1.57,1.59,1.12,1.74,1.79.39,1.71-.2,3.88-.04,5.69l3.44,1.36c1.06-2.33-1.55-2.5-1.67-3.11-.61-3.16-1.14-13.02,3.37-13l-.02-1.66-5.08-5.08ZM845.57,272.82c-.89-.38-1.62-.47-2.57-.23-4.36,3.06-1.44,9.04-2.43,13.83-.88,2.68-5.88.18-7.59,2.58-.76,1.06-.45,2.4-.85,3.21-.38.77-1.45.73-1.58,1.28-.43,1.82.2,4.23-.02,6.17,1.06,1.34,4.68-3.81,3.39-5.07l5.55-.07c1.95.27,1.6,4.43,4.59,5.13.02-3.22,4.05-3.05,4.83-3.65.67-.52,6.83-6.49,7.03-6.94.93-2.09-3.41-1-4.49-1.28-.41-.11-1.26-2.85-3.98-1.68l1.78-8.9c-.02-.31-3.41-4.28-3.67-4.4ZM892.97,272.84c-1.64-.51-3.19-.28-4.86-.28v10.17c7.18,3.13,8.94-8.62,4.86-9.89ZM759.39,274.28l-1.68.48c.99,2.84-1.47,2.76-1.95,3.93-.88,2.14-1.36,5.08-1.44,7.42,2.32.14,3.02-3.05,4.8-4.05,1.51-.85,4.59-.58,5.25-2.41,1.84-5.06-4.89-1.83-4.99-5.38ZM832.17,274.33l-1.67.46c-3.27,3.34-4.08,4.41-3.36,9.64l3.25-.15,3.56-7.79-1.79-2.16ZM742.46,316.6v11.86h-5.09s0,4.66,0,4.66l-1.68.42c-1.62-4.62-2.73-7.86-8.49-6.76v-5.08c-1.91-.62-1.47.62-1.85.95-1.91,1.72-3.82,3.75-5.35,5.82-1.62.37-2.42-3.11-3.57-3.36-1.43-.3-3.01.08-4.47-.04-1.1-3.54,1.71-2.52,1.69-5.07l-5.07,1.69-.42-1.69c-3.3,1.22-2.37,3.23-3.04,4.37-1.9,3.23-3.58,3.12.07,7.46l-3.38,3.39h3.39c-.99,3.05,1.21,6.55,3.65,8.2.66.45,1.94.08,2.39.37,8.7,5.62.86,4.56.71,7.95.61.75,6.59,5.45,4.89,1.05-.5-1.3-1.59-1.27-1.08-3.1.89-3.19,3.61-2.42,3.82-2.62.3-.27-1.36-5.71,4.23-5.06v6.77s6.15,0,6.15,0l3.58-3.39,3.38,3.39c2.72-1.05,1.06-5.37,3.81-5.1-3.03-1.43.16-8.95,1.7-9.73,1.3-.67,11.99-.73,14.04-.48,2.28.29,5.33,3.02,10.79,1.74.69-.16.23-1.54,1.8-1.74,2.4-.31,15.53-.17,16.92.82,1.73,9.77-4.35,20.06,10.21,17.85,1.4-.21,2.18-1.66,3.4-1.7.51-.02.3,1.55.98,1.72,5.21,1.33,6.57-2.61,11.3-1.69.9-2.26-1.78-4.83-1.74-6.31.01-.43,1.39-.27,1.69-1.07.52-1.36-.42-3.75,1.73-4.9,1.03-2.37-4.46-.75-5.07-1.26v-11.85s4.67,1.52,4.67,1.52c3.08-1.69,2-5.27,2.1-8.3-3.57-.95-3.18,2.65-6.77,1.69-.34-1.52,1.07-1.94,1.49-3.19.53-1.6-.67-3.94,1.89-3.6-4.48-4.54,3.62-3.54,1.7-9.3l-2.99.05-3.94-10.94-2.38-.12c1.83-3.36-.8-5.5-4.22-5.08v-3.39s-5.09,0-5.09,0l1.7-5.07c-3.86.67-4.61-.31-7.2-2.52-2.34,1.66-.77,4.72-1.29,7-.11.49-2.55,1.13-1.68,3.15l-6.77-.85-.13-4.95-3.25-.98c.47,2.01,0,7.12-2.32,7.58-1.39.28-9.53.36-10.68.05-.81-.22-.48-1.6-.57-1.67-1.57-1.27-1.72,1.32-1.9,1.41-.95.48-2.23.06-2.9.52-1.58,1.08-1.62,4.08-4.82,3.14l-.6-1.61-1.59-.07c-1.39,1.54-1.37,3.64-1.97,4.82-.21.42-1.29-.06-1.46.65-.44,1.94,1.46.86,1.72,1.82,1.42,5.25-3.68,11.16-1.66,15.72.38.85,2.71,1.03,1.66,4.06h-6.78ZM879.64,294.58c-.18-2.25,1.06-6.38-1.99-6.68-.44.06-5.82,4.67-6.2,5.24-.47.7-.04,1.94-.3,2.47-.53,1.07-2.27.23-1.63,2.34,2.57,2.2,7.03,2.9,4.8-1.47-.18-.34-2.22.12-1.43-1.89h6.77ZM816.98,289.51c-1.96-.78-2.74,2.83-3.6,3.12-2.19.74-5.48-.96-4.87,1.95,2.74-1.22,3.66,1.65,3.94,1.72,4.19.91,5.1-3.47,4.53-6.79ZM823.75,289.51c-5.19.49-4.13,8.96.42,8.55.79-.07,3.91-2.67,2.98-3.47h-3.4s0-5.08,0-5.08ZM857.53,294.68c-2.88-1.8-3.59,1.82-5,2.82-3.77,2.67-5.28,2.03-7.33,7.26-3.1.82-2.68-2.82-6.2-1.72v3.39c-6.37-.7-3.99,4.94-6.81,8.43-1.6,1-2.35-3.32-4.2-1.65-.69.62.99,2.48,1.69,2.96-5.2,2.74-.08,3.42-.84,7.2,1.22.24,1.08.14,1.76-.56,2.59-2.69,6.33-6.97,8.12-9.87.53-.86.18-2.32.68-3.17.66-1.12,1.93.15,2.76-.15.7-.25,1.77-3.08,1.93-3.17,1.85-1.09,1.55,1.51,2.23,1.69,1.02.27,5.43.21,6.68.04,2.23-.29,2.29-4.02,4.62-3.44v3.4s3.32-.08,3.32-.08l1.82-7.85c-.39-1.57-3.99-.97-5.13-.55.38-1.1.88-4.36-.1-4.98ZM891.49,296.3l-1.68.41v8.88s4.02-4.77,4.02-4.77l-2.34-4.52ZM873.14,307.91c-.92-1.97.44-4.7-.69-6.55-3.57,1.27-2.71,5.52-5.53,7.2-1.63.97-4.15-1.53-7.07,1.2l-.51,1.74c3.55.75,3.25,4.36,5.09,6.75,1.96.81,1.53-1.06,1.96-1.31,2.4-1.4,9.2-4.72,8.17-8.25-.17-.59-1.31-.55-1.42-.78ZM733.67,307.83c.59-.88,1.68-1.87.32-2.66l-5.07-1.28c.7,1.26-1.89,4.25-2.78,4.52-2.61.81-1.65-.17-4.69,1.31-.92.45-3.91,1.44-4.21,1.96-2.07,3.56,3.94,5.5,6.59,4.91v3.39s6.2-.1,6.2-.1l2.7-3.3c2.03-.66,1.61,3.02,2.15,3.37,1.94,1.26,2.56-1.32,2.72-1.41,1.52-.88,3.77.87,3.18-1.95-3.9.8-4.8-3.52-8.43-4.75-1.8-2.63.67-3.05,1.33-4.02ZM412.21,316.6h-20.32c-.18,3.63-.47,5.6,1.71,8.44l2.88-1.74,19.12.07-3.39-6.77ZM659.24,316.88c-1.08-.47-2.03-.3-3.15-.28-.92,2.77,3.95,15.88,3.16,16.78-.27.31-1.32.06-1.43.19-1.23,1.62,1.29,1.69,1.4,1.89.29.57,1.82,3.62,1.91,3.83.3.76-.22,2.4.06,2.69s1.97-.23,2.7.05c.8.31,1.65,2.8,3.92,2.63,1.52,4.01-1.27,3.87-1.5,4.18-.76,1.05,2.47,4,3.29,3.32,2-3.32,2.63-7.19-1.66-8.48v-1.66c1.75.11,3.07-2.34,3.32-3.87,1.34-8.07-3.46-19.99,10.21-18.16v-3.38c-2.83.42-7.04-.62-9.59,0-.65.16-.49,1.57-1.1,1.65-4.23.51-8.15.11-11.57-1.38ZM877.95,316.6c-4.89-1.95-5.6,2.52-7.01,3.13-2.24.98-4.5-1.03-3.13,4.75.15.64,1.52.54,1.66,1.16.56,2.5,1.29,5.09,1.69,6.78.81,3.37-1.45,16.87,1.3,18.04.33.14,2.12.31,2.12-.42-1.03-8.49,4.6-5.4,9.54-6.38.68-.14,2.13-2.93,2.54-3.09,2.87-1.09,5.55.9,4.85-4.5-3.43,1.87-2.74-1.76-5.04-2.22-1.84-.38-8.55,4.44-6.8-1.44.23-.78,2.14-.07,1.68-2.6-.78-4.33-6.26-5.7-5.09-10.97.2-.9,2.51.04,1.7-2.24ZM823.75,317.45l-2.98.82-.4,5.11,2.61-.5.77-5.43ZM700.05,321.77c-.93-.34-2.92-1.38-3.3.34-.65,2.98,2.69,2.7,2.53,3.37-.52,2.09-6.86,4.91.85,4.67l-.07-8.38ZM1015.13,326.76l-.37-4.28c-2.1-1.78-4.84-.82-6.12,1.17-.71,1.1.5,3.36-1.87,3.2l-.08,1.58,3.35,1.72c-.03-1.54-.39-4.37,1.28-5.07,2.7-1.14,1.35,2.53,3.8,1.68ZM825.45,325.06c-2.77-.5-1.08,3.78-3.63,4.82-1.05.43-2.05.33-3.14.27l1.7,4.66c.21.48-2.77.21-1.69,2.53l3.39,1.28-.85,3.37h4.23c.67-2.55-1.67-.86-1.77-2.93-.05-.99.26-5.09,1.35-5.52l2.11,3.39c1.45-4.63-1.33-7.52-1.69-11.86ZM918.87,333.31c-.7-1.54-.14-3.25-.28-4.85-2.77.87-2.19,11.16-.41,11.85.51-1.39,1.97-1.55,2.17-2.94.6-4.09-1.26-3.56-1.48-4.06ZM1020.11,337.02c-1.43-.14-4.14-1.84-4.9.4-1.04,3.09,2.74,2.88,1.64,6.26l3.36.02-.1-6.68ZM935.53,360.63h-15.24c-1.65,1.26,3.56,6.72,3.97,6.79,2.81.48,4.47-3.15,6.63-.87-1.66,4.35,1.88,3.78,1.25,7.62h3.39s-.01,3.4-.01,3.4h6.78c-1.56-3.23.44-6.4,3.43-3.69l-.05,4.1c.3,2.68,6.97-4.07,6.79-5.49l1.25-.03c.71,2.23,1.61,1.83,3.81,1.71v3.4s9.58,1.71,9.58,1.71l3.99-5.08,1.66-.02c.41,2.17,4.12,5.86,6.33,5.12l1.24-3.07,4.39-.87-.09-6.27h10.16c-.01-2.51-2.73-1.61-1.71-5.06-2.7,1.1-3.58-1.62-3.95-1.7-2.61-.59-4.74-1.61-5.08-1.69-2.58-.59-7.73-.07-10.66-.04-3.81-2.54-1.55-7.22-5.72-9.7l-8.46-.44v-3.38c1.73-1.06,4.84,1.84,5.06,1.68.07-.05-.23-1.47.56-1.69,1.82-.49,5.19,1.35,4.54-1.68-3,1.27-3.57-1.77-3.8-1.7-1.72.53-3.58,2.65-6.37,1.7v-6.77s-5.08,1.7-5.08,1.7l4.22,2.95c-3.61,1.47-2.14,3.17-2.89,6.41-.98,1.47-4.25.45-5.83.8-.52.11-.6,2.63-3.49,1.73-.65-1.68-2.18-3.87-2.26-5.58-.07-1.53,1.61-1.09,1.77-1.81.39-1.68-.21-3.91.03-5.71-2.26-2.3-3.69,1.15-3.92,1.17-1.08.09-2.9-1.09-4.52.08-.1,3.58,2.69,6.1,1.66,10.12h-11.25c-3.49-6.77-7.45-1.35-10.3-1.65-.52-.05-.02-1.57-1.68-1.8-3.12-.45-4.71-.17-6.82,1.83-2.01.17-3.48-3.22-7.22-1.77,1.51,6.33-9.91,2.97-8.48,10.16l-2.94-1.72c-2.25,6.41-9.58.01-12.72,5.12l-1.24-.05-3.83-6.74c-4.48,4.27,1.65,4.11.38,9.54-.15.63-6.34,5.49-6.49,5.9-.85,2.38.61,3.93-2.02,6.14-.21,2.41,2.77,4.49,5.15,3.82l.45,4.24,13.11-.86c1.21-.99-4.07-3.65-2.53-5.07,1.87-1.74,3.78,3.33,5.52,3.46,3.26.25,2.93-4.53,6.64-3.47l1.04,1.75c.57-.28,2.76-.83,2.84-.95,1.53-2.26-2.7-2.41-1.62-4.15l6.33-3.42c1.52,4.71,4.65-2.69,6,1.69,3.1-2.27,6.65,1.73,7.51,1.79,5.61.38,3.15-3.16,3.83-6.32.19-.89,3.88.05-.4-3.93l-2.98,3.87-3.37-.9c3.54-1.03,2.35-4.4,3.63-6.12.5-.67,2.13-.77,2.73-1.93.54-1.05.27-3.18.44-3.36.72-.72,5.08,1.45,5.48-1.74l4.24,3.4c.84-3.13,4.61-1.27,7.19-1.7v5.09ZM756.01,342.01l-9.37.37c-3.68,2.64,3.68,10.43,7.56,7.98l1.81-8.35ZM352.7,345.67c-1.1-.4-2.03-.34-3.15-.28-.2,3.63-.46,5.61,1.71,8.45l1.67-.5c-.85-3.31,2.49-2.36,1.67-5.65-.03-.13-1.77-1.97-1.9-2.02ZM888.11,347.08h-3.38s0,6.78,0,6.78h6.77c.83-3.02-2.85-1.15-3.39-1.69v-5.09ZM779.66,352.11c-3.82-9.52-7.05,4.89-3.32,3.03l3.32-3.03ZM547.65,352.23c-1.36-.88-3.68,3.53-5,3.92-1.15,4.47,3.94,1.52,3.37,6.18,5.02,1.36,4.05-8.53,1.63-10.1ZM596.67,353.99l-6.05-1.84c-1.58,2.6-4.89,3.26-3.98,6.79h10.17s-.14-4.95-.14-4.95ZM535.61,355.83c-1.37-.43-17.78-.95-18.39-.26-.16.18.22,2.05-.26,3.14-.21.48-2.96,1.85-3.1,2.54-.25,1.21-.67,7.44-.32,8.47.11.33,2.62,3.36,3.63,2.71,1.53-.99,2.2-4.92,1.73-6.72,1.8.46,5.73-.2,6.72-1.74,1.29-2.01-4.26-2.74-3.32-5.03,3.84,1.34,7.73-1.7,10.62-1.79.88-.03,2.58,3.34,4.61,1.78.79-.61-1.75-3.05-1.92-3.11ZM468.1,374.18c2.73-.96,6.86-3.37,8.47,0l-4.58.78-.5,2.61h10.17s0-6.78,0-6.78l14.76-1.7.47-1.67c-1.54-1.36-3.66-1.37-4.83-1.96-.43-.21.06-1.29-.65-1.46-1.94-.44-.87,1.49-1.81,1.73-2.54.63-6.04-.46-9.1,1.72l-6.22-8.48-13.25.06-1.48,3.18-3.28.11c-.55,3.82.42,6.61,1.82,10.02l9.55.92c.58.15.42.53.49.92-1.93.68-1.88,1.7-2.95,1.77-2.23.15-6.1-5.65-5.52,1.62h8.48c-.11-1.07.17-2.37,0-3.38ZM595.12,360.64l-6.82.39.04,4.68-4.29-.37-1.25-3.07-7.85,1.9-.08,4.86c.22.2,4.63.26,5.49.14,1.57-.22,1.11-1.59,1.79-1.74,5.24-1.17,12.61,1.98,12.97-6.79ZM1104.66,364.3c-8.15-2.6-10.85,9.34,1.92,3.1.68-.75-1.75-3.04-1.92-3.1ZM530.97,367.14c-.3-.19-.23-1.44-.6-1.41-1.18.12-3.89,2.31-5.9,1.68l-.46,1.67c4.68,4.02,4.76-1.24,10.14.01.58-2.86-1.71-1.05-3.17-1.96ZM451.16,367.4l-3.36.02c1.12,2.71-1.6,3.56-1.7,3.96-.56,2.28-.47,10.61,2.19,11.26,1.92.47,4.25-3.11,4.56-4.68.79-4.03-2.63-6.44-1.69-10.56ZM750.94,374.18c1.35-7.86-7.58-6.18-6.78,0h6.78ZM623.9,372.49l-3.36.02c.27,4.34-3.81,3.9,0,8.43l1.67-.5c-.17-3.22,2.95-3.76,1.69-7.95Z" style="fill: #282828;"/>
</svg>