<?xml version="1.0" encoding="UTF-8"?>
<svg id="a" data-name="Layer 1" xmlns="http://www.w3.org/2000/svg" width="940" height="940" viewBox="0 0 940 940">
  <path d="M554.43,126.39l11.91-34.84c4.71-13.78-.14-22.09-9.37-30.58l1.49-4.37,44.78,15.31-1.49,4.37c-13.87,1.18-22.25,2.75-27.46,17.99l-10.96,32.06c-4.53,13.25.82,20.11,14.73,24.86l6.89,2.35c14.97,5.12,30.49,2.14,40.94-4.2l3.16,3.74-20.29,24.28-82-28.03,1.49-4.37c12.49-1.06,21.47-4.79,26.18-18.57Z" style="fill: #183bff;"/>
  <path d="M648.27,165.04l21.62-29.8c8.55-11.78,6.36-21.16.03-31.98l2.71-3.74,71.61,51.96-13.36,26.28-3.57-1.04c.54-11.71-4.18-23.79-13.14-30.29l-10.31-7.48c-11.1-8.06-21.5-6.6-27.83,2.12l-5.84,8.04,16.2,11.76c8.61,6.25,13.04,8.25,23.45,2.48l3.17,2.3-20.31,27.99-3.17-2.3c2.66-12.25-.78-15.61-9.39-21.86l-16.2-11.76-7.97,10.99c-8.06,11.1-5.04,19.35,6.86,27.98l12.24,8.88c12.69,9.21,24.96,7.56,36.81,4.57l1.57,3.56-26.53,17.25-71.84-52.12,2.71-3.74c12.25,2.66,21.92,1.73,30.48-10.06Z" style="fill: #183bff;"/>
  <path d="M744.51,251.98l27.99-21.24c10.26-7.79,11.23-14.85,5.31-22.65l-1.18-1.56c-4.82-6.36-14.03-10.62-27.47-10.26l-1.09-4.45,29.25-11.48,2.79,3.68-.4,2.94,41.97,55.32,2.94.4,2.79,3.68-18.93,25.08-3.99-2.25c3.96-12.85,2.08-23.2-2.57-29.33l-1.18-1.56c-5.92-7.81-12.9-8.66-23.16-.88l-27.99,21.24c-11.38,8.63-12.61,18.35-8.81,31.47l-3.68,2.79-28.94-38.14,3.68-2.79c11.6,7.19,21.3,8.62,32.68-.01Z" style="fill: #183bff;"/>
  <path d="M817.67,286.47c2-1.02,3.73-2.85,4.84-5.92,1.47-3.89,2.7-6.72,5.7-8.25,4.62-2.35,9.64-.2,11.8,4.04,2.8,5.49.09,11.89-6.89,15.45-8.36,4.26-19.45,2.22-27.13-3.3l1.35-3.2c4.46,2.6,7.97,2.38,10.34,1.17Z" style="fill: #183bff;"/>
  <path d="M773.63,345.95l-8.89-1.86-1.21-4.02,31.51-19.68,2.35,2.95c-10.33,17.71-12.24,35.68-7.14,52.71,5.51,18.37,15.45,22.26,21.21,20.53,25.75-7.72-11.3-69.84,21.82-79.77,13.54-4.06,29.7,6.44,36.14,27.89,3.02,10.06,2.57,18.81.27,26.23l8.06,1.53,1.21,4.02-27.46,19.05-2.65-3c7.98-13.36,8.96-28.12,4.53-42.87-4.59-15.29-13.56-21.8-19.46-20.03-19.44,5.83,15.7,70.86-21.58,82.04-16.23,4.87-32.03-8.37-38.11-28.62-3.34-11.13-3.98-26.43-.6-37.09Z" style="fill: #183bff;"/>
  <path d="M821.13,465.62l35.11,4.68c14.43,1.92,23.03-4.28,29.52-14.85l4.58.61-7.37,55.37-4.58-.61c-1.68-7.57-6.11-13.52-11.66-14.26-3.75-.5-7.74-.18-11.93,1.52l-37.73,15.03,32.51,24.24c3.59,2.74,7.36,4.09,11.11,4.59,5.55.74,11.39-3.85,14.99-10.72l4.58.61-7.37,55.37-4.58-.61c-3.5-11.91-10.17-20.14-24.6-22.06l-35.11-4.67c-14.43-1.92-22.16,4.11-28.27,15.02l-4.58-.61,5.6-42.05,4.58.61c2.85,10.41,9.35,16.78,23.78,18.7l52.04,6.93-41.65-31.96c-7.18-5.48-13.4-7.57-18.67-8.28-6.52-.87-11.3,2.17-14.54,7.39l-4.58-.61,4.34-32.61,4.58.61c1.5,5.71,5.72,10.08,12.1,10.93,5.27.7,11.84.16,20.21-3.24l48.68-19.79-52.04-6.93c-14.29-1.9-22.51,2.51-27.98,11.81l-4.58-.61,5.6-42.05,4.58.61c2.93,11.97,8.92,19.97,23.36,21.89Z" style="fill: #183bff;"/>
  <path d="M787.72,603.04l28.59,34.21c2.68,3.25,5.29,5.48,7.86,6.91,5.88,3.25,12.76.66,19.42-4.45l4.04,2.24-28.46,51.45-4.04-2.24c.79-8.36-.87-15.2-6.75-18.45-2.57-1.42-5.92-2.31-10.09-2.86l-44.11-6.16c-13.52-1.88-21.3,1.49-30.26,9.02l-4.04-2.24,22.57-40.79,4.04,2.24c-2.25,8.99-.94,16.44,5.56,20.03,3.31,1.83,8.38,3.36,13.42,4.38l22.23-40.18c-3.9-4.23-7.17-7-10.84-9.04-6.49-3.59-13.5-.75-19.92,5.94l-4.04-2.24,22.57-40.79,4.04,2.24c-1.61,11.59-.54,20.34,8.24,30.8ZM777.21,658.19l42.76,5.42,2.91-5.27-27.44-33.1-18.23,32.95Z" style="fill: #183bff;"/>
  <path d="M728.28,703.21l24.23,27.73c9.58,10.96,19.21,10.92,31.17,7.16l3.04,3.48-35.63,31.14-3.04-3.48c5.91-12.6,7.83-21.9-2.77-34.02l-15.84-18.13-9.03,47.12c-1.1,5.98-2.1,12.06,1.03,15.65,2.58,2.95,6.81,3.53,15.01-.48l3.04,3.48-40.06,35-3.04-3.48c6.01-11.2,9.83-19.18,13.08-36.52l5.33-29.01-33.87-5.36c-14.43-2.26-31.48-1.13-43.15,4.24l-3.04-3.48,42.06-36.75,3.04,3.48c-5.37,7.48-6.81,14.13-3.03,18.45,3.13,3.58,7.67,5.38,14.64,6.54l25.05,3.77,5.64-30.77c-10.49-10.73-19.63-10.55-32.5-6.55l-3.04-3.48,35.63-31.14,3.04,3.48c-5.33,11.35-6.57,20.99,3.01,31.95Z" style="fill: #183bff;"/>
  <path d="M630,777.66l13.96,34.07c5.52,13.47,14.65,16.54,27.18,16.85l1.75,4.28-81.87,33.55-15.32-25.19,2.76-2.49c9.67,6.63,22.43,8.96,32.67,4.77l11.79-4.83c12.7-5.2,16.93-14.81,12.84-24.78l-3.77-9.2-18.53,7.59c-9.85,4.03-13.88,6.75-14.46,18.63l-3.63,1.49-13.11-32,3.63-1.49c9.02,8.71,13.69,7.55,23.53,3.52l18.52-7.59-5.15-12.57c-5.2-12.7-13.8-14.47-27.4-8.9l-13.99,5.73c-14.51,5.95-19.56,17.25-23.26,28.9l-3.85-.54-.71-31.63,82.13-33.66,1.75,4.27c-8.71,9.02-13.01,17.74-7.49,31.21Z" style="fill: #183bff;"/>
  <path d="M497.43,812.07l-16.77,41.31c-1.6,3.89-2.36,7.24-2.41,10.18-.11,6.72,5.41,11.57,13.06,15.05l-.08,4.62-58.79-.95.08-4.62c7.75-3.23,13.01-7.91,13.12-14.63.05-2.94-.74-6.31-2.21-10.26l-15.28-41.83c-4.69-12.82-11.33-18.11-22.18-22.48l.08-4.62,46.61.76-.08,4.62c-9,2.23-14.95,6.9-15.07,14.32-.06,3.78.97,8.98,2.43,13.9l45.92.75c1.91-5.43,2.82-9.62,2.88-13.81.12-7.42-5.68-12.27-14.6-14.8l.08-4.62,46.62.76-.08,4.62c-10.99,4.02-18.21,9.09-23.32,21.74ZM443.81,828.71l15.31,40.29,6.02.1,16.33-39.78-37.66-.61Z" style="fill: #183bff;"/>
  <path d="M353.66,797.89l-15.44,33.42c-6.11,13.22-2.14,21.99,6.17,31.38l-1.94,4.19-52.23-24.13c-26.82-12.39-33.76-38.42-21.78-64.35,11.98-25.93,36.06-37.01,62.88-24.62l52.23,24.13-1.94,4.19c-12.54-.24-21.84,2.55-27.95,15.77ZM332.66,770.91l-10.17-4.7c-20.21-9.34-37.13-3.74-46.18,15.83-9.16,19.83-2.57,36.6,17.64,45.93l10.8,4.99c12.46,5.75,22.37,2.32,26.89-7.47l13.15-28.47c5.87-12.71,1.2-19.96-12.14-26.12Z" style="fill: #183bff;"/>
  <path d="M262.04,747.83l-22.16,29.4c-8.76,11.63-6.63,21.12.18,32.56l-2.78,3.69-38.24-28.82,2.78-3.69c12.87,3.39,22.59,2.82,31.35-8.8l22.16-29.4c8.76-11.63,6.71-21.24-.09-32.68l2.78-3.69,38.24,28.82-2.78,3.69c-12.87-3.39-22.67-2.71-31.44,8.91Z" style="fill: #183bff;"/>
  <path d="M221.48,714.28l-27.85,24.08c-11.01,9.52-11.02,19.15-7.32,31.13l-3.5,3.02-56.96-65.87,16.92-22.59,3.15,1.72c-1.88,10.88-1.29,21.84,6.86,31.27l8.61,9.95c8.97,10.38,20.48,10.42,28.64,3.37l6.88-5.95-12.54-14.51c-6.96-8.05-10.53-12.18-21.98-8.94l-2.56-2.97,24.25-20.97,2.56,2.96c-4.01,10.13-1.18,14.9,5.78,22.95l12.54,14.51,9.95-8.61c12.07-10.44,11.58-20,6.29-34.68l3.49-3.02,32.23,37.28-3.5,3.02c-11.32-5.39-20.95-6.68-31.97,2.84Z" style="fill: #183bff;"/>
  <path d="M163.54,638.19l-33.32,15.66c-13.18,6.19-15.78,15.46-15.46,27.99l-4.18,1.96-37.03-78.81,22.4-17.18,2.57,2.5c-4.75,9.97-7.14,20.68-1.84,31.96l5.6,11.91c5.83,12.42,16.91,15.57,26.66,10.98l8.24-3.87-8.16-17.36c-4.53-9.63-6.85-14.57-18.75-14.55l-1.67-3.55,29.02-13.63,1.67,3.55c-6.6,8.67-5.16,14.03-.64,23.66l8.16,17.36,11.91-5.6c14.44-6.79,16.55-16.13,15.43-31.69l4.18-1.96,20.96,44.6-4.18,1.96c-9.44-8.25-18.37-12.1-31.55-5.9Z" style="fill: #183bff;"/>
  <path d="M127.94,549.19l-36.42,5.44c-14.4,2.15-19.55,10.28-22.84,22.38l-4.57.68-13.08-87.51,28.12-8.87,1.76,3.28c-8.74,7.82-14.05,19.65-12.42,30.59l1.88,12.6c2.03,13.57,10.34,19.97,21.01,18.38l9.83-1.47-2.96-19.8c-1.57-10.52-3.25-15.09-14.65-18.48l-.58-3.88,34.2-5.11.58,3.88c-10.61,6.68-10.6,11.49-9.02,22.02l2.96,19.8,13.43-2.01c13.57-2.03,17.34-9.95,15.17-24.49l-2.24-14.95c-2.32-15.51-12.09-23.11-22.52-29.47l1.44-3.61,30.89,6.85,13.12,87.78-4.57.68c-6.68-10.61-14.13-16.86-28.53-14.71Z" style="fill: #183bff;"/>
  <path d="M118.88,443.2l-35.01-5.36c-13.56-2.08-22.72,3.18-29.83,14.42l-4.57-.7,9.23-60.34c2.94-19.24,15.46-29.79,32.35-27.2,16.47,2.52,24.26,15.47,21.21,35.4l-.64,4.15,5.11-1.91c12.16-4.51,24.92-14.74,26.32-23.88.51-3.32.34-5.9-.58-9.15l4.22-2.61,14.52,17.09c-3.65,9.07-15.44,17.61-31.73,23.19l-19.27,6.54-3.07,20.07,12.87,1.97c14.25,2.18,21.66-3.63,28.93-15.97l4.57.7-7.16,46.78-4.57-.7c-3.42-12.85-9.2-20.39-22.9-22.48ZM102.75,393.14c1.63-10.66-3.03-18.17-12.44-19.61-9.13-1.4-15.37,4.16-17.04,15.1l-3.6,23.53c-1.42,9.27,3.29,15.52,12.84,16.98l14.39,2.2,5.84-38.2Z" style="fill: #183bff;"/>
  <path d="M141.2,340.75l-33.06-16.21c-13.07-6.41-21.93-2.65-31.52,5.44l-4.15-2.03,38.96-79.44,28.18,8.67-.41,3.7c-11.63,1.47-22.73,8.19-27.6,18.12l-5.61,11.44c-6.04,12.32-2.83,22.31,6.84,27.06l8.92,4.38,8.82-17.98c4.69-9.55,5.9-14.26-1.56-23.53l1.73-3.52,31.05,15.23-1.73,3.52c-12.53-.53-15.25,3.44-19.94,12.99l-8.82,17.98,12.19,5.98c12.32,6.04,19.92,1.66,26.4-11.54l6.66-13.58c6.9-14.08,3.18-25.88-1.79-37.05l3.24-2.15,21.53,23.19-39.08,79.69-4.15-2.03c.53-12.53-2.05-21.9-15.12-28.31Z" style="fill: #183bff;"/>
  <path d="M235.33,212.25l-67.32-1.92,30.42,30.36c11.3,11.28,20.7,10.18,33.67,5.12l3.27,3.26-33.43,33.49-3.27-3.26c4.54-11.69,5.03-21.29-5.28-31.58l-26.06-26.01c-10.21-10.19-19.81-9.68-31.49-5.12l-3.27-3.26,25.52-25.57c7.04,7.02,18.33,13.55,25.75,13.64l65.24,1.42-30.42-30.36c-11.3-11.28-20.7-10.18-33.67-5.12l-3.27-3.26,33.43-33.49,3.27,3.26c-4.54,11.69-5.13,21.39,5.08,31.58l48.75,48.66-6.13,6.14c-6.94-6.92-18.82-7.7-30.8-7.99Z" style="fill: #183bff;"/>
  <path d="M263.5,157.79c-13.91-28.26-2.08-56.24,22.03-68.1,9.67-4.76,19.01-5.76,26.14-4.91l1.37-8.63,4.14-2.04,23.62,26.45-3.28,3.49c-13.42-6.66-27.5-8-44.71.47-21.73,10.69-29.94,32.05-21.41,49.39,9.7,19.72,29.9,23.35,51.89,12.54,16.96-8.34,25.87-21.94,28.56-41.2l4.26.09c4.23,24.76-4.11,45.55-25.46,56.06-27.63,13.6-54.24,2.66-67.16-23.59Z" style="fill: #183bff;"/>
  <path d="M385.09,125.65l-5.51-36.41c-2.18-14.4-10.32-19.54-22.42-22.8l-.69-4.57,87.49-13.24,8.93,28.1-3.27,1.77c-7.83-8.73-19.68-14.01-30.61-12.36l-12.6,1.91c-13.57,2.05-19.95,10.38-18.34,21.04l1.49,9.83,19.79-3c10.52-1.59,15.08-3.27,18.45-14.69l3.88-.59,5.17,34.19-3.88.59c-6.7-10.6-11.51-10.58-22.03-8.98l-19.79,3,2.03,13.43c2.05,13.57,9.98,17.32,24.52,15.12l14.95-2.26c15.5-2.35,23.08-12.13,29.43-22.58l3.62,1.44-6.79,30.91-87.76,13.28-.69-4.57c10.6-6.7,16.83-14.16,14.65-28.56Z" style="fill: #183bff;"/>
</svg>