<?xml version="1.0" encoding="UTF-8"?>
<svg id="a" xmlns="http://www.w3.org/2000/svg" width="720" height="60" viewBox="0 0 720 60">
  <path d="M158.36,30.5c0-16.73,12.63-29.77,30.42-29.77,13.28,0,22.3,6.56,26.9,16.15l-11.56,5.99c-2.38-6.15-8.12-9.84-15.33-9.84-9.35,0-17.3,6.89-17.3,17.47s7.95,17.47,17.3,17.47c7.63,0,14.35-4.51,16.48-11.97l11.64,5.33c-3.77,10.82-13.94,18.94-28.21,18.94-17.79,0-30.34-12.88-30.34-29.77Z" style="fill: #185377;"/>
  <path d="M221.82,30.5c0-16.73,12.63-29.77,30.42-29.77s30.42,13.2,30.42,29.77-12.55,29.77-30.5,29.77-30.34-12.88-30.34-29.77ZM252.24,47.97c9.35,0,17.3-6.72,17.3-17.47s-7.95-17.47-17.3-17.47-17.3,6.89-17.3,17.47,7.95,17.47,17.3,17.47Z" style="fill: #185377;"/>
  <path d="M291.27,1.8h23.45l11.56,46.17h1.31V1.8h12.3v57.4h-23.53l-11.48-46.17h-1.31v46.17h-12.3V1.8Z" style="fill: #185377;"/>
  <path d="M365.81,13.61h-17.3V1.8h47.48v11.81h-17.47v45.59h-12.71V13.61Z" style="fill: #185377;"/>
  <path d="M395.17,57.56L411.73,1.8h21.07l16.48,55.76v1.64h-12.79l-3.2-10.99h-22.14l-3.2,10.99h-12.79v-1.64ZM429.77,36.24l-6.72-23.21h-1.72l-6.72,23.21h15.17Z" style="fill: #185377;"/>
  <path d="M450.93,30.5c0-16.73,12.63-29.77,30.42-29.77,13.28,0,22.3,6.56,26.9,16.15l-11.56,5.99c-2.38-6.15-8.12-9.84-15.33-9.84-9.35,0-17.3,6.89-17.3,17.47s7.95,17.47,17.3,17.47c7.63,0,14.35-4.51,16.48-11.97l11.64,5.33c-3.77,10.82-13.94,18.94-28.21,18.94-17.79,0-30.34-12.88-30.34-29.77Z" style="fill: #185377;"/>
  <path d="M530.47,13.61h-17.3V1.8h47.48v11.81h-17.47v45.59h-12.71V13.61Z" style="fill: #185377;"/>
</svg>