<?xml version="1.0" encoding="UTF-8"?>
<svg id="a" data-name="Layer 1" xmlns="http://www.w3.org/2000/svg" width="720" height="60" viewBox="0 0 720 60">
  <path d="M136.77,1.19h11.28l19.15,58.01h-6.83l-13.03-39.89c-.32-.85-.87-1.48-1.67-1.91-.79-.42-1.93-.64-3.42-.64s-2.53.21-3.3.64c-.77.42-1.31,1.06-1.63,1.91l-13.11,39.89h-6.6L136.77,1.19ZM130.1,36.08h23.76l4.77,11.6h-32.58l4.05-11.6Z" style="fill: #ad71f4;"/>
  <path d="M175.55,1.19h20.42c3.55,0,6.6.65,9.14,1.95,2.54,1.3,4.49,3.13,5.84,5.48s2.03,5.18,2.03,8.46c0,2.38-.48,4.6-1.43,6.64-.95,2.04-2.28,3.83-3.97,5.36l-.24-2.07c1.7,1.01,3.16,2.24,4.41,3.69,1.24,1.46,2.2,3.13,2.86,5.01.66,1.88.99,3.93.99,6.16,0,3.55-.7,6.62-2.11,9.22-1.4,2.6-3.42,4.6-6.04,6s-5.74,2.1-9.34,2.1h-22.57V1.19ZM179.76,23.84h17.01c2.12,0,3.93-.21,5.44-.64,1.51-.42,2.67-1.06,3.5-1.91.82-.85,1.23-1.85,1.23-3.02s-.41-2.24-1.23-3.06c-.82-.82-1.99-1.44-3.5-1.87-1.51-.42-3.33-.64-5.44-.64h-17.01l2.07-2.07v15.26l-2.07-2.07ZM179.76,47.68h18.99c2.28,0,4.22-.25,5.84-.75,1.62-.5,2.85-1.26,3.7-2.27.85-1.01,1.27-2.22,1.27-3.66s-.42-2.63-1.27-3.62c-.85-.98-2.08-1.74-3.7-2.27-1.62-.53-3.56-.8-5.84-.8h-18.99l2.07-2.07v17.48l-2.07-2.07Z" style="fill: #ad71f4;"/>
  <path d="M225.22,13.91c1.85-4.5,4.54-7.95,8.07-10.33,3.52-2.38,7.69-3.58,12.52-3.58s9.06,1.19,12.56,3.58,6.18,5.81,8.07,10.29c1.88,4.48,2.82,9.84,2.82,16.09s-.94,11.63-2.82,16.13c-1.88,4.5-4.57,7.95-8.07,10.33-3.5,2.38-7.68,3.58-12.56,3.58s-8.99-1.19-12.52-3.58c-3.52-2.39-6.21-5.83-8.07-10.33-1.86-4.5-2.78-9.88-2.78-16.13s.93-11.55,2.78-16.05ZM233.01,42.76c3.07,3.07,7.34,4.61,12.79,4.61,3.6,0,6.7-.69,9.3-2.07,2.6-1.38,4.58-3.38,5.96-6,1.38-2.62,2.07-5.73,2.07-9.34s-.69-6.7-2.07-9.3c-1.38-2.6-3.37-4.58-5.96-5.96-2.6-1.38-5.7-2.07-9.3-2.07-5.46,0-9.72,1.52-12.79,4.57-3.07,3.05-4.61,7.3-4.61,12.75s1.54,9.72,4.61,12.79Z" style="fill: #ad71f4;"/>
  <path d="M278.31,1.19h6.52v35.13c0,3.44,1.24,6.12,3.74,8.03,2.49,1.91,5.99,2.86,10.49,2.86,2.91,0,5.43-.44,7.55-1.31,2.12-.87,3.74-2.12,4.85-3.73s1.67-3.56,1.67-5.84V1.19h6.6v35.13c0,4.93-.83,9.17-2.5,12.71-1.67,3.55-4.04,6.27-7.11,8.15-3.07,1.88-6.78,2.82-11.13,2.82s-7.99-.94-11.09-2.82c-3.1-1.88-5.47-4.6-7.11-8.15-1.64-3.55-2.46-7.79-2.46-12.71V1.19Z" style="fill: #ad71f4;"/>
  <path d="M327.26,1.19h38.07v11.92h-18.28l2.62-2.46v48.56h-6.68V10.65l2.62,2.46h-18.36V1.19Z" style="fill: #ad71f4;"/>
  <path d="M394.41,1.19h6.76v19.95h4.45c1.27,0,2.49-.28,3.66-.83,1.16-.56,2.28-1.44,3.34-2.66l14.22-16.45h8.34l-35.84,41.96,1.83-5.09v21.14h-6.76V1.19ZM406.49,32.98l4.45-5.4,26.78,31.63h-9.14l-22.09-26.22Z" style="fill: #ad71f4;"/>
  <path d="M442.73,47.52h8.66l-2.7,2.94V9.93l2.7,2.94h-8.66V1.19h18.12v11.68h-8.58l2.62-2.94v40.53l-2.62-2.94h8.58v11.68h-18.12v-11.68Z" style="fill: #ad71f4;"/>
  <path d="M473.56,1.19h17.96c4.77,0,8.87,1.15,12.32,3.46,3.44,2.31,6.08,5.64,7.91,10.01,1.83,4.37,2.74,9.58,2.74,15.62s-.91,11.15-2.74,15.5c-1.83,4.34-4.46,7.67-7.91,9.97-3.44,2.3-7.55,3.46-12.32,3.46h-17.96V1.19ZM477.06,47.29h14.46c3.66,0,6.74-.66,9.26-1.99,2.52-1.32,4.42-3.26,5.72-5.8,1.3-2.54,1.95-5.64,1.95-9.3s-.65-6.75-1.95-9.3c-1.3-2.54-3.21-4.48-5.72-5.8-2.52-1.32-5.6-1.99-9.26-1.99h-14.46l3.02-2.94v40.05l-3.02-2.94Z" style="fill: #ad71f4;"/>
  <path d="M546.59,38.78h-24v-6.67h24v6.67Z" style="fill: #ad71f4;"/>
  <path d="M571.94,1.19h11.28l19.15,58.01h-6.83l-13.03-39.89c-.32-.85-.87-1.48-1.67-1.91-.79-.42-1.93-.64-3.42-.64s-2.53.21-3.3.64c-.77.42-1.31,1.06-1.63,1.91l-13.11,39.89h-6.6l19.15-58.01ZM565.27,36.08h23.76l4.77,11.6h-32.58l4.05-11.6Z" style="fill: #ad71f4;"/>
</svg>