<?xml version="1.0" encoding="UTF-8"?>
<svg id="a" data-name="Layer 1" xmlns="http://www.w3.org/2000/svg" width="720" height="60" viewBox="0 0 720 60">
  <path d="M289.69,43.12v-27.06c0-2.87-1.31-4.43-4.1-4.67V.89h24.6v10.5c-3.36.25-4.92,1.8-4.92,4.67v32.23c.41.08.9.16,1.64.16,3.61,0,4.67-3.36,4.67-9.27v-6.72h10.25v26.65h-36.24v-11.32c2.79-.25,4.1-1.8,4.1-4.67Z" style="fill: #fff;"/>
  <path d="M327.98,43.12v-27.06c0-2.87-1.31-4.43-4.1-4.67V.89h23.78v10.5c-2.79.25-4.1,1.8-4.1,4.67v27.06c0,2.87,1.31,4.43,4.1,4.67v11.32h-23.78v-11.32c2.79-.25,4.1-1.8,4.1-4.67Z" style="fill: #fff;"/>
  <path d="M350.12,59.11v-11.32c2.79-.25,4.1-1.8,4.1-4.67v-27.06c0-2.87-1.31-4.43-4.1-4.67V.89h41.33v23.94h-9.84l-.41-6.72c-.25-4.27-1.31-6.72-5.9-6.72h-5.49v13.78c3.03,0,3.03-1.39,3.44-5.9h5.74v20.17h-5.74c-.41-4.51-.41-5.82-3.44-5.82v8.69c0,3.36,1.56,5.49,6.56,5.49v11.32h-26.24Z" style="fill: #fff;"/>
  <path d="M397.19,43.12v-27.06c0-2.87-1.31-4.43-4.1-4.67V.89h41.33v23.94h-9.84l-.41-6.72c-.25-4.27-1.31-6.72-5.9-6.72h-5.49v13.78c3.03,0,3.03-1.39,3.44-5.9h5.74v20.17h-5.74c-.41-4.51-.41-5.82-3.44-5.82v14.19h5.9c4.26,0,5.25-2.54,5.49-6.97l.41-8.36h9.84v26.65h-41.33v-11.32c2.79-.25,4.1-1.8,4.1-4.67Z" style="fill: #fff;"/>
</svg>