<?xml version="1.0" encoding="UTF-8"?>
<svg id="a" data-name="Layer 1" xmlns="http://www.w3.org/2000/svg" width="720" height="60" viewBox="0 0 720 60">
  <path d="M203.34,3.06h11.81v54.86h-11.81V3.06ZM221.79,24.63h3.85c1.37,0,2.38-.04,3.03-.12.66-.08,1.28-.26,1.89-.53.87-.38,1.57-.95,2.09-1.73.52-.78.78-1.65.78-2.62,0-.81-.19-1.56-.57-2.26-.38-.7-.88-1.26-1.48-1.69-.6-.38-1.27-.63-2.01-.77-.74-.13-1.79-.2-3.16-.2h-4.43V3.06h3.69c1.75,0,3.29.07,4.63.21,1.34.14,2.57.37,3.69.7,1.12.33,2.13.77,3.03,1.31.9.55,1.79,1.2,2.67,1.97,1.75,1.59,3.12,3.44,4.1,5.58.98,2.13,1.48,4.4,1.48,6.81,0,2.57-.56,5.02-1.68,7.34-1.12,2.32-2.69,4.28-4.71,5.86-1.59,1.26-3.31,2.15-5.17,2.67-1.86.52-4.26.78-7.22.78h-4.51v-11.64Z" style="fill: #f4d31e;"/>
  <path d="M252.05,3.06h11.81v54.86h-11.81V3.06ZM268.94,46.44h15.91v11.48h-15.91v-11.48Z" style="fill: #f4d31e;"/>
  <path d="M299.94,20.45l6.56,12.87-12.63,24.6h-13.2l19.27-37.47ZM321.75,48.74h-16.4l5.82-11.48h4.67l-12.38-23.86,6.64-12.79,29.6,57.32h-13.28l-4.67-9.18Z" style="fill: #f4d31e;"/>
  <path d="M331.1,3.06h14.43l7.63,10.82-7.38,9.92-14.68-20.75ZM349.96,29.8l19.52-26.73h14.6l-22.3,30.59v24.27h-11.81v-28.12Z" style="fill: #f4d31e;"/>
  <path d="M384.07,3.06h11.81v54.86h-11.81V3.06ZM400.96,46.44h15.91v11.48h-15.91v-11.48Z" style="fill: #f4d31e;"/>
  <path d="M422.28,3.06h11.81v54.86h-11.81V3.06Z" style="fill: #f4d31e;"/>
  <path d="M453.85,41.36c.6,4.26,2.79,6.4,6.56,6.4,1.8,0,3.31-.62,4.51-1.84,1.2-1.23,1.8-2.77,1.8-4.63,0-1.42-.36-2.6-1.07-3.53-.71-.93-1.86-1.75-3.44-2.46l5.33-10.5c7.33,3.33,10.99,8.75,10.99,16.24,0,2.57-.47,4.97-1.39,7.19-.93,2.22-2.21,4.16-3.85,5.81-1.64,1.65-3.57,2.96-5.78,3.92s-4.61,1.45-7.17,1.45c-3.17,0-6.14-.77-8.9-2.31-2.76-1.54-4.96-3.69-6.6-6.44-.82-1.38-1.44-2.78-1.85-4.2-.41-1.42-.67-3.12-.78-5.09h11.64ZM463.77,18.07c-.38-3.12-1.8-4.67-4.26-4.67-1.26,0-2.3.44-3.12,1.31-.82.88-1.23,1.94-1.23,3.2,0,1.75.85,3.03,2.54,3.85.33.11.66.22.98.33.33.11,1.12.3,2.38.57l-5.33,10.66c-1.91-.55-3.44-1.12-4.59-1.72-1.15-.6-2.24-1.39-3.28-2.38-1.42-1.42-2.53-3.1-3.32-5.04-.79-1.94-1.19-4.03-1.19-6.27s.41-4.42,1.23-6.37c.82-1.95,1.97-3.66,3.44-5.12,1.48-1.46,3.2-2.6,5.17-3.43,1.97-.83,4.1-1.24,6.4-1.24s4.5.39,6.44,1.16c1.94.77,3.64,1.87,5.08,3.3,1.45,1.43,2.6,3.15,3.44,5.16.85,2.01,1.32,4.24,1.44,6.7h-12.22Z" style="fill: #f4d31e;"/>
  <path d="M479.68,3.06h36.98v11.48h-36.98V3.06ZM492.3,21.27h11.81v36.65h-11.81V21.27Z" style="fill: #f4d31e;"/>
</svg>