<?xml version="1.0" encoding="UTF-8"?>
<svg id="a" xmlns="http://www.w3.org/2000/svg" width="720" height="60" viewBox="0 0 720 60">
  <path d="M464.42,43.37v-27.06c0-2.87-1.31-4.43-4.1-4.67V1.14h23.78v10.5c-2.79.25-4.1,1.8-4.1,4.67v27.06c0,2.87,1.31,4.43,4.1,4.67v11.32h-23.78v-11.32c2.79-.25,4.1-1.8,4.1-4.67Z" style="fill: #009245;"/>
  <path d="M106.9,3.77c1.31,0,1.97-.82,2.38-2.62h7.38v20.91h-10.25c0-4.02-1.56-10.66-5.9-10.66-1.97,0-3.61,1.23-3.61,3.69,0,9.1,21.4,8.28,21.81,29.03,0,11.23-8.69,16.15-16.48,16.15s-9.43-3.53-12.71-3.53c-1.31,0-1.97.82-2.38,2.62h-7.38v-22.71h10.25c0,7.3,3.69,12.14,7.79,12.14,2.87,0,4.1-1.72,4.1-4.18,0-9.92-21.4-8.28-21.4-28.7,0-9.18,6.64-15.17,14.84-15.17,7.13,0,8.86,3.03,11.56,3.03Z" style="fill: #009245;"/>
  <path d="M123.63,43.29v-26.98c0-2.87-1.31-4.43-4.1-4.67V1.14h22.55v10.5c-1.56,0-2.87,1.31-2.87,3.69v27.47c0,4.35,1.23,5.99,3.69,5.99,2.62,0,3.69-1.64,3.69-5.99V15.33c0-2.38-1.31-3.69-2.87-3.69V1.14h18.45v10.5c-2.79.25-4.1,1.8-4.1,4.67v27.14c0,10.17-6.31,16.81-17.63,16.81-10.5,0-16.81-6.64-16.81-16.97Z" style="fill: #009245;"/>
  <path d="M190.13,3.77c1.31,0,1.97-.82,2.38-2.62h7.38v20.91h-10.25c0-4.02-1.56-10.66-5.9-10.66-1.97,0-3.61,1.23-3.61,3.69,0,9.1,21.4,8.28,21.81,29.03,0,11.23-8.69,16.15-16.48,16.15s-9.43-3.53-12.71-3.53c-1.31,0-1.97.82-2.38,2.62h-7.38v-22.71h10.25c0,7.3,3.69,12.14,7.79,12.14,2.87,0,4.1-1.72,4.1-4.18,0-9.92-21.4-8.28-21.4-28.7,0-9.18,6.64-15.17,14.84-15.17,7.13,0,8.86,3.03,11.56,3.03Z" style="fill: #009245;"/>
  <path d="M217.52,42.55V11.64c-4.43,0-4.51,2.46-4.51,6.81v5.49h-10.25V1.14h45.1v22.8h-10.25v-5.49c0-4.35-.08-6.81-4.51-6.81v30.92c0,3.36,2.13,5.49,6.56,5.49v11.32h-28.7v-11.32c5,0,6.56-2.13,6.56-5.49h0Z" style="fill: #009245;"/>
  <path d="M244.58,48.05c2.87,0,4.43-1.31,5.08-4.43l9.1-42.48h19.27l8.77,41c.9,4.18,2.3,5.9,5.33,5.9v11.32h-25.01v-11.32c1.8-.25,3.36-1.39,3.36-3.69,0-.66,0-1.31-.08-2.05h-9.1v2.05c0,1.97.98,3.44,3.36,3.69v11.32h-20.09v-11.32h.01ZM269.26,32.47l-3.36-14.19-3.28,14.19h6.64,0Z" style="fill: #009245;"/>
  <path d="M297.88,43.37v-27.06c0-2.87-1.31-4.43-4.1-4.67V1.14h23.78v10.5c-2.79.25-4.1,1.8-4.1,4.67v27.06c0,2.87,1.31,4.43,4.1,4.67v11.32h-23.78v-11.32c2.79-.25,4.1-1.8,4.1-4.67Z" style="fill: #009245;"/>
  <path d="M324.12,43.37v-27.06c0-2.87-1.31-4.43-4.1-4.67V1.14h20.5l11.07,30.5V15.33c0-2.38-1.48-3.69-3.28-3.69V1.14h18.86v10.5c-2.79.25-4.1,1.8-4.1,4.67l-.08,43.05h-16.4l-10.99-31.73v16.73c0,2.38,1.48,3.69,3.28,3.69v11.32h-18.86v-11.32c2.79-.25,4.1-1.8,4.1-4.67h0Z" style="fill: #009245;"/>
  <path d="M365.53,48.05c2.87,0,4.43-1.31,5.08-4.43l9.1-42.48h19.27l8.77,41c.9,4.18,2.3,5.9,5.33,5.9v11.32h-25.01v-11.32c1.8-.25,3.36-1.39,3.36-3.69,0-.66,0-1.31-.08-2.05h-9.1v2.05c0,1.97.98,3.44,3.36,3.69v11.32h-20.09v-11.32h.01ZM390.21,32.47l-3.36-14.19-3.28,14.19h6.64,0Z" style="fill: #009245;"/>
  <path d="M456.71,16.31c0,6.48-3.28,11.64-8.94,13.2,5.66,1.56,10.5,5.9,10.5,13.86,0,10.82-6.89,15.99-21.16,15.99h-22.39v-11.32c2.79-.25,4.1-1.8,4.1-4.67v-27.06c0-2.87-1.31-4.43-4.1-4.67V1.14h21.73c13.2,0,20.25,5.25,20.25,15.17h.01ZM441.13,17.87c0-4.67-1.23-6.23-4.92-6.23h-1.8v12.46h2.05c3.44,0,4.67-1.72,4.67-6.23ZM441.46,41.73c0-5.33-1.23-6.97-5.25-6.97h-1.8v13.94h2.05c3.69,0,5-1.88,5-6.97Z" style="fill: #009245;"/>
  <path d="M490.66,43.37v-27.06c0-2.87-1.31-4.43-4.1-4.67V1.14h24.6v10.5c-3.36.25-4.92,1.8-4.92,4.67v32.23c.41.08.9.16,1.64.16,3.61,0,4.67-3.36,4.67-9.27v-6.72h10.25v26.65h-36.24v-11.32c2.79-.25,4.1-1.8,4.1-4.67Z" style="fill: #009245;"/>
  <path d="M528.95,43.37v-27.06c0-2.87-1.31-4.43-4.1-4.67V1.14h23.78v10.5c-2.79.25-4.1,1.8-4.1,4.67v27.06c0,2.87,1.31,4.43,4.1,4.67v11.32h-23.78v-11.32c2.79-.25,4.1-1.8,4.1-4.67Z" style="fill: #009245;"/>
  <path d="M565.03,42.55V11.64c-4.43,0-4.51,2.46-4.51,6.81v5.49h-10.25V1.14h45.1v22.8h-10.25v-5.49c0-4.35-.08-6.81-4.51-6.81v30.92c0,3.36,2.13,5.49,6.56,5.49v11.32h-28.7v-11.32c5,0,6.56-2.13,6.56-5.49h0Z" style="fill: #009245;"/>
  <path d="M610.46,42.55v-7.95l-7.71-17.55c-1.89-4.35-3.12-5.08-5.74-5.41V1.14h23.29v10.5c-1.48.08-2.3.98-2.3,2.05,0,.49.16.98.33,1.48l2.79,7.13,2.79-7.13c.16-.49.33-.98.33-1.48,0-1.07-.82-1.97-2.3-2.05V1.14h17.3v10.5c-3.2.25-4.02,2.38-5.82,6.72l-7.38,17.88v6.31c0,3.36,2.13,5.49,6.56,5.49v11.32h-28.7v-11.32c5,0,6.56-2.13,6.56-5.49h0Z" style="fill: #009245;"/>
</svg>