<?xml version="1.0" encoding="UTF-8"?>
<svg id="a" data-name="Layer 1" xmlns="http://www.w3.org/2000/svg" width="720" height="60" viewBox="0 0 720 60">
  <path d="M257.87,1.34c12.55,0,17.06,7.87,17.06,14.92,0,7.63-5.17,15.99-16.32,15.99h-12.14v22.39h10.82c1.15,0,2.05.9,2.05,2.05s-.9,2.05-2.05,2.05h-23.37c-1.15,0-2.05-.9-2.05-2.05s.9-2.05,2.05-2.05h8.12V5.44h-8.12c-1.15,0-2.05-.9-2.05-2.05s.9-2.05,2.05-2.05h23.94ZM257.87,5.44h-11.4v22.71h12.14c8.12,0,11.81-6.23,11.81-11.81s-3.28-10.91-12.55-10.91Z" style="fill: #cb1800;"/>
  <path d="M318.88,44.15c-2.79-6.48-6.56-10.5-9.76-11.89h-12.79v22.39h10c1.15,0,2.05.9,2.05,2.05s-.9,2.05-2.05,2.05h-22.55c-1.15,0-2.05-.9-2.05-2.05s.9-2.05,2.05-2.05h8.12V5.44h-8.12c-1.15,0-2.05-.9-2.05-2.05s.9-2.05,2.05-2.05h24.76c12.55,0,17.06,7.96,17.06,14.76,0,5.99-3.53,12.3-11.23,14.68,2.62,1.97,5.33,4.18,8.86,12.14l5.25,11.73h8.36c1.15,0,2.05.9,2.05,2.05s-.9,2.05-2.05,2.05h-10.17c-.98,0-1.72-.66-2.13-1.56l-5.66-13.04ZM308.38,5.44h-12.05v22.71h11.97c8.12,0,12.63-6.15,12.63-12.05,0-5-3.28-10.66-12.55-10.66Z" style="fill: #cb1800;"/>
  <path d="M368.9,19.71c0-1.23.98-2.21,2.21-2.21s2.21.98,2.21,2.21v18.2c0,1.23-.98,2.21-2.21,2.21s-2.21-.98-2.21-2.21v-7.05h-13.45v23.78h27.72l2.05-11.15c.16-1.07,1.15-1.8,2.21-1.8,1.31,0,2.21.98,2.21,2.21,0,.16-2.38,13.04-2.38,13.04-.16,1.07-1.23,1.8-2.21,1.8h-42.15c-1.15,0-2.05-.9-2.05-2.05s.9-2.05,2.05-2.05h8.12V5.44h-8.12c-1.15,0-2.05-.9-2.05-2.05s.9-2.05,2.05-2.05h40.1c1.15,0,2.13.74,2.21,2.05,0,0,.74,11.48.74,11.81,0,1.31-1.07,2.21-2.3,2.21s-2.13-.9-2.21-2.05l-.74-9.92h-25.26v21.32h13.45v-7.05Z" style="fill: #cb1800;"/>
  <path d="M421.46,59.56c-7.3,0-13.86-3.28-17.88-9.43l.57,7.05c0,1.15-.82,2.3-2.13,2.3-1.23,0-2.13-.9-2.21-2.13l-1.39-16.81c0-1.23.82-2.46,2.21-2.46.9,0,1.8.57,2.13,1.72.49,1.72,4.76,15.91,18.2,15.91,8.28,0,13.04-5.33,13.04-11.4,0-18.2-34.69-8.45-34.69-29.85,0-8.04,6.15-13.94,15.66-13.94,6.07,0,11.32,2.62,14.19,6.97-.16-1.39-.49-3.94-.49-4.84,0-1.56,1.07-2.21,2.13-2.21,1.15,0,2.05.74,2.21,2.05,1.72,14.76,1.72,15.09,1.72,15.25,0,.9-.74,1.89-2.3,1.89-.9,0-1.72-.33-2.13-1.8-1.64-5.99-5.99-13.61-14.92-13.61-6.48,0-11.73,4.02-11.73,10.25,0,16.4,34.77,8.28,34.77,29.52,0,10.33-8.28,15.58-16.97,15.58Z" style="fill: #cb1800;"/>
  <path d="M471.15,59.56c-7.3,0-13.86-3.28-17.88-9.43l.57,7.05c0,1.15-.82,2.3-2.13,2.3-1.23,0-2.13-.9-2.21-2.13l-1.39-16.81c0-1.23.82-2.46,2.21-2.46.9,0,1.8.57,2.13,1.72.49,1.72,4.76,15.91,18.2,15.91,8.28,0,13.04-5.33,13.04-11.4,0-18.2-34.69-8.45-34.69-29.85,0-8.04,6.15-13.94,15.66-13.94,6.07,0,11.32,2.62,14.19,6.97-.16-1.39-.49-3.94-.49-4.84,0-1.56,1.07-2.21,2.13-2.21,1.15,0,2.05.74,2.21,2.05,1.72,14.76,1.72,15.09,1.72,15.25,0,.9-.74,1.89-2.3,1.89-.9,0-1.72-.33-2.13-1.8-1.64-5.99-5.99-13.61-14.92-13.61-6.48,0-11.73,4.02-11.73,10.25,0,16.4,34.77,8.28,34.77,29.52,0,10.33-8.28,15.58-16.97,15.58Z" style="fill: #cb1800;"/>
</svg>