<?xml version="1.0" encoding="UTF-8"?>
<svg id="a" data-name="Layer 1" xmlns="http://www.w3.org/2000/svg" width="720" height="60" viewBox="0 0 720 60">
  <path d="M306.62.48v11.15h-26.81v12.14h21.73v11.15h-21.73v13.45h26.81v11.15h-38.62V.48h38.62Z" style="fill: #fff;"/>
  <path d="M324.08,59.52h-12.22L330.89.48h13.78l19.02,59.04h-12.71l-3.85-13.28h-19.11l-3.94,13.28ZM331.3,35.08h12.63l-6.23-21.65-6.4,21.65Z" style="fill: #fff;"/>
  <path d="M388.86,11.47v48.05h-11.81V11.47h-15.42V.48h42.64v10.99h-15.42Z" style="fill: #fff;"/>
  <path d="M439.54,14.09c0-1.8-.98-2.79-2.79-2.79h-11.81c-1.8,0-2.79.98-2.79,2.79v5.58c0,1.8.98,2.38,2.79,2.79l15.25,3.28c6.4,1.39,11.81,5.25,11.81,11.81v10.66c0,6.89-4.76,11.64-11.64,11.64h-18.37c-6.89,0-11.64-4.76-11.64-11.64v-7.54h11.48v5.25c0,1.8.98,2.79,2.79,2.79h12.79c1.8,0,2.79-.98,2.79-2.79v-6.23c0-1.8-.98-2.38-2.79-2.79l-15.25-3.28c-6.4-1.39-11.81-5.25-11.81-11.81v-10c0-6.89,4.76-11.64,11.64-11.64h17.38c6.89,0,11.64,4.76,11.64,11.64v6.89h-11.48v-4.59Z" style="fill: #fff;"/>
</svg>