<?xml version="1.0" encoding="UTF-8"?>
<svg id="a" data-name="Layer 1" xmlns="http://www.w3.org/2000/svg" width="720" height="60" viewBox="0 0 720 60">
  <path d="M93.07,1.3h19.35l-20.01,57.4h-20.99l-12.87-33.62-12.79,33.62h-21.07L4.76,1.3h19.27l11.97,36.16L49.2,1.3h17.06l14.68,36.9L93.07,1.3Z" style="fill: #1e69f4;"/>
  <path d="M166.95,1.3h18.04v57.4h-18.04v-21.32h-31.57v21.32h-18.04V1.3h18.04v20.09h31.57V1.3Z" style="fill: #1e69f4;"/>
  <path d="M247.31,58.7l-2.38-9.1h-32.8l-2.38,9.1h-18.2L206.72,1.3h43.71l15.17,57.4h-18.29ZM216.23,33.61h24.52l-4.26-16.48h-15.99l-4.26,16.48Z" style="fill: #1e69f4;"/>
  <path d="M330.29,1.3v15.83h-24.52v41.57h-18.04V17.12h-24.6V1.3h67.16Z" style="fill: #1e69f4;"/>
  <path d="M446.98,1.3h19.35l-20.01,57.4h-20.99l-12.87-33.62-12.79,33.62h-21.07L358.66,1.3h19.27l11.97,36.16,13.2-36.16h17.06l14.68,36.9,12.14-36.9Z" style="fill: #1e69f4;"/>
  <path d="M528.9,16.88h-39.61v5.74h34.03v14.92h-34.03v5.49h39.61v15.66h-57.65V1.3h57.65v15.58Z" style="fill: #1e69f4;"/>
  <path d="M596.71,1.3c9.18,0,16.74,2.6,22.67,7.79,5.93,5.19,8.9,12.16,8.9,20.91s-2.97,15.65-8.9,20.87c-5.93,5.22-13.49,7.83-22.67,7.83h-36.16V1.3h36.16ZM596.71,42.96c3.83-.05,6.98-1.31,9.47-3.77,2.49-2.46,3.73-5.52,3.73-9.18s-1.24-6.81-3.73-9.27c-2.49-2.46-5.65-3.69-9.47-3.69h-18.2v25.91h18.2Z" style="fill: #1e69f4;"/>
  <path d="M675.76.32c9.24,0,16.8,2.75,22.67,8.24,5.88,5.49,8.81,12.64,8.81,21.44s-2.94,16.02-8.81,21.48c-5.88,5.47-13.44,8.2-22.67,8.2h-11.07c-9.08,0-16.59-2.75-22.55-8.24-5.96-5.49-8.94-12.64-8.94-21.44s2.94-15.95,8.81-21.44c5.88-5.49,13.43-8.24,22.67-8.24h11.07ZM675.76,42.87c3.88,0,7.04-1.2,9.47-3.61,2.43-2.4,3.65-5.49,3.65-9.27s-1.22-6.79-3.65-9.22c-2.43-2.43-5.59-3.65-9.47-3.65h-11.07c-3.88,0-7.04,1.22-9.47,3.65-2.43,2.43-3.65,5.51-3.65,9.22s1.22,6.86,3.65,9.27c2.43,2.41,5.59,3.61,9.47,3.61h11.07Z" style="fill: #1e69f4;"/>
</svg>