<?xml version="1.0" encoding="UTF-8"?>
<svg id="a" data-name="Layer 1" xmlns="http://www.w3.org/2000/svg" width="940" height="940" viewBox="0 0 940 940">
  <path d="M579.09,119.1l20.07-44.53c7.48-16.59,3.59-28.32-8.24-41.4l2.52-5.59,69.08,31.13c25.74,11.6,36.16,30.96,27.24,50.77-4.88,10.84-14.27,17.2-26.55,17.78,11.99,10.91,15.1,23.91,8.91,37.63-9.54,21.17-30.84,26.85-56.57,15.25l-75.52-34.03,2.52-5.59c17.63.2,28.99-4.66,36.54-21.42ZM599.64,152.6l30.31,13.66c12.36,5.57,23.28,2.14,28.16-8.7,5.27-11.68-1.34-25.05-15.56-31.46l-44.87-20.22-9.92,22.01c-4.73,10.5.37,19.52,11.89,24.71ZM646.5,112.81c12.53,5.65,23.79,2.37,28.52-8.13,4.65-10.33-.7-21.5-12.55-26.84l-25.4-11.44c-11.34-5.11-20.24-3.01-25.5,8.68l-8.24,18.29,43.18,19.45Z" style="fill: #183bff;"/>
  <path d="M685.47,204.03c-.15-4.87-1.05-13.33-1.96-18.77l4.13-3.74c10.89,3.17,16.78,3.6,24.63-3.51l26.71-24.18c13.49-12.22,14.38-24.79,8.77-41.51l4.54-4.11,42.13,46.53-4.54,4.11c-18.14-8.13-28.96-9.85-43.69,3.48l-24.23,21.94c-17.49,15.83-17.3,35.96-2.35,52.48,14.96,16.52,34.97,18.7,52.45,2.87l25.2-22.81c14.73-13.34,13.13-23.41,6.83-42.26l4.54-4.11,42.13,46.54-4.55,4.11c-16.07-7.24-26.89-9.23-40.38,2.99l-28.5,25.8c-7.85,7.11-8.41,13.12-5.93,24.16l-4.13,3.74c-5.32-1.45-13.65-3.18-18.48-3.81-19.86-2.57-34.24-9.59-45.7-22.26-11.47-12.67-17.03-27.67-17.62-47.68Z" style="fill: #183bff;"/>
  <path d="M809.38,349.09l2.83-.9,42.03-52.19c10.86-13.6,14.83-25,14.61-34.87l5.84-1.86,18.67,58.56-5.13,1.64c-6.92-10.07-15.26-14.24-22.51-11.92-6.01,1.92-10.55,7.26-15.44,13.3l-23.27,28.47,35.52,9.92c7.9,2.16,14.46,3.77,20.3,1.91,7.43-2.37,11.87-9.83,11.57-22.4l5.13-1.64,18.5,58.03-5.84,1.86c-5.18-7.7-15.77-15.83-31.39-20.2l-65.36-17.94-2.65.85c-17.87,5.7-23.72,17.89-24.83,35.21l-5.84,1.86-19.18-60.15,5.84-1.86c10.92,13.47,22.94,19.97,40.63,14.33Z" style="fill: #183bff;"/>
  <path d="M829.99,482.87l48.17,8.06c17.95,3,28.3-3.74,37.93-18.51l6.04,1.01-12.51,74.73c-4.66,27.84-20.73,42.85-42.15,39.26-11.72-1.96-20.27-9.42-23.95-21.14-7.49,14.37-19.28,20.68-34.11,18.2-22.89-3.83-33.81-22.98-29.15-50.82l13.67-81.69,6.05,1.01c4.29,17.1,11.89,26.84,30.02,29.88ZM802.84,511.27l-5.49,32.78c-2.24,13.37,3.86,23.05,15.58,25.01,12.64,2.11,23.88-7.68,26.45-23.06l8.13-48.53-23.81-3.98c-11.36-1.9-18.78,5.33-20.86,17.78ZM853.25,546.45c-2.27,13.55,3.77,23.6,15.13,25.5,11.17,1.87,20.61-6.15,22.75-18.97l4.6-27.47c2.05-12.27-2.24-20.33-14.88-22.45l-19.78-3.31-7.82,46.7Z" style="fill: #183bff;"/>
  <path d="M795.53,619.06l41.38,25.95c16.37,10.26,28.58,6.52,42.33-2.83l5.19,3.26-62.35,99.44-35.98-15.33,1.05-4.82c15.55-.33,31.11-7.67,38.91-20.1l8.98-14.32c9.67-15.42,6.81-29.05-5.3-36.64l-11.17-7-14.11,22.5c-7.5,11.96-9.75,18-1.19,31.26l-2.76,4.41-38.86-24.37,2.76-4.4c16.45,2.42,20.59-2.43,28.09-14.39l14.11-22.5-15.26-9.57c-15.42-9.67-26.05-4.94-36.41,11.58l-10.66,16.99c-11.05,17.62-7.77,33.71-2.75,49.13l-4.57,2.4-25.21-33.56,62.55-99.75,5.2,3.25c-2.43,16.45-.32,29.17,16.04,39.43Z" style="fill: #183bff;"/>
  <path d="M710.15,732.03l29.04,39.27c11.48,15.53,24.22,16.51,40.44,12.83l3.64,4.93-92.88,68.69-28.18-24.67,2.59-3.99c14.2,3.59,28.76,3.91,42.05-5.92l14.04-10.38c14.63-10.82,15.85-26.04,7.34-37.54l-7.18-9.71-20.46,15.13c-11.35,8.39-17.17,12.7-14.04,28.17l-4.18,3.09-25.29-34.19,4.18-3.09c12.99,6.33,19.59,3.07,30.94-5.33l20.46-15.13-10.38-14.04c-12.59-17.02-25.29-17.33-45.24-11.82l-3.64-4.93,52.56-38.87,3.64,4.93c-8.27,14.43-10.95,27.04.53,42.57Z" style="fill: #183bff;"/>
  <path d="M628.8,817.48c9.51,37.44-10.71,74.01-48.51,83.61-37.62,9.56-72.89-12.34-82.54-50.32-9.01-35.46,11.17-71.44,49.15-81.09,37.8-9.6,72.89,12.34,81.9,47.8ZM552.35,791.11c-28.98,7.36-50.39,29.47-43.07,58.27,6.81,26.82,36.41,37.7,65.57,30.29,29.7-7.54,49.88-31.45,42.84-59.17-7.04-27.72-34.2-37.3-65.34-29.39Z" style="fill: #183bff;"/>
  <path d="M465.24,825.08l-5.69,46.64c-2.2,18.07,5.13,30,20.32,38.97l-.74,6.09-80.39-9.81c-25.63-3.13-40.12-19.3-37.38-41.8,2.68-21.94,19.53-32.79,46.08-29.55l5.53.67-2.74-6.7c-6.48-15.95-20.55-32.45-32.72-33.93-4.43-.54-7.83-.21-12.11,1.14l-3.63-5.5,22.08-19.95c12.18,4.48,23.97,19.77,32.03,41.14l9.45,25.29,26.73,3.26,2.09-17.15c2.32-18.99-5.68-28.57-22.34-37.72l.74-6.08,62.32,7.6-.74,6.08c-16.9,5.05-26.66,13.03-28.89,31.28ZM399.52,848.5c-14.2-1.73-23.97,4.75-25.5,17.28-1.48,12.17,6.14,20.21,20.71,21.99l31.34,3.82c12.35,1.51,20.44-4.99,21.99-17.71l2.34-19.18-50.88-6.21Z" style="fill: #183bff;"/>
  <path d="M328.08,796.77l-24.09,42.49c-9.53,16.8-5.25,28.84,4.7,42.16l-3.02,5.33-102.11-57.89,13.72-36.63,4.86.84c1.02,15.52,9.05,30.74,21.81,37.98l14.7,8.34c15.83,8.98,29.32,5.52,36.37-6.92l6.5-11.47-23.11-13.1c-12.28-6.96-18.41-8.94-31.28.2l-4.52-2.57,22.63-39.91,4.52,2.56c-1.69,16.55,3.34,20.47,15.62,27.43l23.11,13.1,8.88-15.67c8.98-15.83,3.78-26.25-13.18-35.87l-17.45-9.89c-18.09-10.26-34.02-6.27-49.21-.57l-2.6-4.46,32.42-26.67,102.43,58.07-3.02,5.33c-16.55-1.7-29.16.98-38.69,17.78Z" style="fill: #183bff;"/>
  <path d="M171.13,664.32l-2.49,1.62-26.6,61.51c-6.85,16.01-7.63,28.05-4.79,37.51l-5.13,3.35-33.61-51.47,4.51-2.95c9.35,7.87,18.5,9.66,24.88,5.49,5.28-3.45,8.23-9.81,11.34-16.94l14.85-33.65-36.88-.09c-8.19.02-14.94.22-20.07,3.57-6.53,4.26-8.83,12.64-5.18,24.68l-4.51,2.95-33.3-51.01,5.13-3.35c7.05,6.04,19.42,11.06,35.64,11.11l67.79-.12,2.33-1.52c15.71-10.26,18.1-23.57,14.55-40.56l5.13-3.35,34.52,52.87-5.13,3.35c-14.12-10.08-27.44-13.14-42.99-2.99Z" style="fill: #183bff;"/>
  <path d="M106.39,602.71c-37.94,7.32-73.26-15-80.65-53.29-7.35-38.11,16.55-72.05,55.03-79.47,35.93-6.93,70.67,15.31,78.09,53.79,7.39,38.3-16.55,72.04-52.48,78.97ZM137.16,527.92c-5.66-29.36-26.49-52.01-55.67-46.38-27.17,5.24-39.75,34.15-34.05,63.69,5.8,30.09,28.5,51.63,56.58,46.21,28.09-5.42,39.23-31.97,33.14-63.52Z" style="fill: #183bff;"/>
  <path d="M132.08,435.02c-3.9,2.92-10.32,8.51-14.24,12.38l-5.43-1.24c-3.66-10.74-6.69-15.81-17.01-18.16l-35.13-7.99c-17.75-4.04-28.56,2.46-39.03,16.64l-5.98-1.36,13.93-61.21,5.98,1.36c3.75,19.52,8.55,29.37,27.93,33.78l31.88,7.25c23,5.23,39.37-6.47,44.32-28.2,4.94-21.73-4.76-39.37-27.76-44.6l-33.14-7.54c-19.38-4.41-26.71,2.69-38.53,18.66l-5.98-1.36,13.93-61.21,5.98,1.36c3.3,17.32,7.88,27.32,25.63,31.35l37.49,8.53c10.32,2.35,15.57-.65,23.19-9.01l5.44,1.24c1.87,5.19,5.23,13,7.49,17.32,9.3,17.73,11.8,33.54,8.01,50.2-3.79,16.66-12.88,29.83-28.94,41.8Z" style="fill: #183bff;"/>
  <path d="M176.57,249.89l-35.48-33.57c-14.03-13.28-26.74-12.01-42.06-5.54l-4.45-4.21,52.46-55.44c26.94-28.46,62.6-26.16,90.12-.12,27.52,26.04,31.24,61.01,4.31,89.47l-52.46,55.44-4.45-4.21c5.61-15.66,6.04-28.54-7.98-41.82ZM219.38,234.92l10.21-10.79c20.3-21.45,20.43-45.1-.34-64.76-21.04-19.91-44.92-18.73-65.22,2.72l-10.85,11.46c-12.51,13.22-12.39,27.14-2,36.97l30.21,28.59c13.49,12.77,24.58,9.96,37.98-4.2Z" style="fill: #183bff;"/>
  <path d="M280.45,157.67l-25.01-41.95c-9.89-16.59-22.62-18.73-40.08-16.1l-3.14-5.26,54.56-32.52,3.14,5.26c-10.61,14.11-14.79,26.33-4.9,42.92l25.01,41.95c9.89,16.59,22.72,18.89,40.18,16.26l3.14,5.26-54.56,32.52-3.14-5.27c10.62-14.11,14.7-26.49,4.81-43.08Z" style="fill: #183bff;"/>
  <path d="M343.11,124.45l-11.59-47.45c-4.58-18.76-15.95-24.59-32.33-27.47l-1.46-5.95,114.02-27.86,15.12,36.07-4.11,2.73c-11.38-10.6-27.66-16.18-41.91-12.7l-16.41,4.01c-17.68,4.32-25.13,16.08-21.74,29.97l3.13,12.81,25.8-6.3c13.71-3.35,19.53-6.11,22.64-21.59l5.05-1.23,10.89,44.56-5.05,1.23c-10.11-13.21-16.46-12.61-30.17-9.26l-25.8,6.3,4.27,17.5c4.32,17.68,15.24,21.7,34.19,17.07l19.48-4.76c20.2-4.94,29.06-18.76,36.21-33.32l4.95,1.47-5.31,41.64-114.37,27.94-1.46-5.95c13.21-10.11,20.56-20.7,15.98-39.46Z" style="fill: #183bff;"/>
</svg>