<?xml version="1.0" encoding="UTF-8"?>
<svg id="a" data-name="Layer 1" xmlns="http://www.w3.org/2000/svg" width="300" height="360" viewBox="0 0 300 360">
  <polygon points="84.37 114.01 108.89 85.42 108.89 84.92 100.09 84.92 77.34 111.14 75.41 111.14 75.41 84.92 68.3 84.92 68.3 144.12 75.41 144.12 75.41 117.73 77.34 117.73 100.95 144.12 109.9 144.12 109.9 143.61 84.37 115.02 84.37 114.01" style="fill: #231f20;"/>
  <polygon points="225.05 110.97 179.04 110.97 179.04 95.74 172.44 95.74 172.44 133.3 179.04 133.3 179.04 118.07 225.05 118.07 225.05 133.3 231.64 133.3 231.64 95.74 225.05 95.74 225.05 110.97" style="fill: #231f20;"/>
  <path d="M173,203.94h-45.92v-5.07h-6.68v19.45c0,7.32,1.74,12.68,5.24,16.07,3.5,3.38,9.08,5.08,16.75,5.08h15.23c7.66,0,13.25-1.7,16.74-5.08,3.49-3.38,5.25-8.74,5.25-16.07v-19.45h-6.6v5.07ZM173,217.31c0,2.59-.25,4.84-.76,6.72-.51,1.89-1.37,3.46-2.58,4.69-1.22,1.24-2.83,2.16-4.86,2.75-2.03.59-4.59.89-7.7.89h-14.21c-3.1,0-5.66-.3-7.69-.89-2.03-.6-3.66-1.51-4.87-2.75-1.22-1.23-2.07-2.8-2.58-4.69-.51-1.88-.76-4.13-.76-6.72v-6.26h46v6.26Z" style="fill: #231f20;"/>
  <path d="M297.59,152.05c0-81.38-66.22-147.59-147.59-147.59S2.41,70.66,2.41,152.05s62.12,143.42,139.96,147.4l-16.98,56.09h7.61l4.31-14.71h25.37l4.31,14.71h7.62l-16.99-56.09c77.85-3.98,139.97-68.57,139.97-147.4ZM160.74,334.23h-21.49l10.16-34.6c.2,0,.39.01.58.01s.38-.01.58-.01l10.17,34.6ZM150,293.04c-77.74,0-141-63.25-141-140.99S72.26,11.07,150,11.07s140.99,63.24,140.99,140.98-63.25,140.99-140.99,140.99Z" style="fill: #231f20;"/>
</svg>