<?xml version="1.0" encoding="UTF-8"?>
<svg id="a" data-name="Layer 1" xmlns="http://www.w3.org/2000/svg" width="940" height="940" viewBox="0 0 940 940">
  <path d="M533.53,137.68l3.89-19.15c1.54-7.57-1.66-11.63-7.53-15.55l.49-2.4,24.9,5.06-.49,2.4c-6.94,1.32-11.46,3.81-13,11.38l-3.89,19.15c-1.54,7.57,1.64,11.7,7.51,15.63l-.49,2.4-24.9-5.06.49-2.4c6.94-1.32,11.48-3.88,13.01-11.46Z" style="fill: #183bff;"/>
  <path d="M560.5,120.35c.31-1.15.2-2.48-.62-4.01-1.01-1.96-1.69-3.45-1.23-5.17.71-2.66,3.34-3.87,5.79-3.22,3.16.85,4.72,4.19,3.65,8.21-1.29,4.81-6.04,8.46-10.94,9.53l-.78-1.67c2.61-.84,3.77-2.3,4.13-3.66Z" style="fill: #183bff;"/>
  <path d="M572.93,146.95l7.17-17.38c2.95-7.14.93-12.39-3.61-17.16l.93-2.27,27.4,11.3-.93,2.27c-4.11-.17-7.77,1.3-8.9,4.04-.76,1.85-1.15,3.95-.84,6.32l2.59,21.4,16.85-13.38c1.89-1.47,3.1-3.22,3.86-5.08,1.13-2.75-.43-6.36-3.46-9.14l.93-2.27,27.4,11.3-.93,2.27c-6.58.18-11.71,2.48-14.66,9.63l-7.17,17.38c-2.95,7.14-.9,11.92,3.87,16.54l-.93,2.27-20.81-8.58.93-2.27c5.73-.05,9.88-2.52,12.82-9.66l10.62-25.75-22.05,17.02c-3.78,2.94-5.7,5.84-6.78,8.45-1.33,3.23-.42,6.09,1.81,8.46l-.93,2.27-16.14-6.66.93-2.27c3.13,0,5.95-1.56,7.25-4.72,1.08-2.61,1.69-6.05,1.08-10.8l-3.54-27.66-10.62,25.75c-2.92,7.07-1.77,11.89,2.26,15.96l-.93,2.27-20.81-8.58.93-2.27c6.54.12,11.46-1.86,14.4-9.01Z" style="fill: #183bff;"/>
  <path d="M650.92,172.5c9.98-13.41,26.41-14.33,38.5-5.32,4.83,3.59,7.25,7.43,8.76,11.24l4.53-1.35,1.97,1.46-6.77,17.56-2.5-.75c.05-9.78-4.39-15.87-11.6-21.23-10.19-7.58-22.95-7.36-29.25,1.1-7.23,9.71-2.33,20.67,7.62,28.08,8.22,6.12,16.53,7.77,20.21,2.83,2.22-2.98-.07-7-2.87-9.08l-5.12-3.81,3.55-4.77,22.05,16.41-3.55,4.77-2.5-1.86c-3.1-2.31-6.83-1.65-8.73.91-1.73,2.32-1.36,5.93.46,8.21l-1.38,1.85c-8.92,1.04-18.61-1.63-27.13-7.97-14.18-10.56-15.51-25.81-6.24-38.26Z" style="fill: #183bff;"/>
  <path d="M702.22,212.15c11.31-10.52,28.02-10.45,38.65.97,10.58,11.37,9.66,27.94-1.81,38.62-10.71,9.97-27.21,9.79-37.89-1.68-10.63-11.42-9.66-27.94,1.05-37.91ZM707.64,244.04c8.15,8.76,20.01,12.02,28.71,3.93,8.1-7.54,6.24-20.01-1.96-28.82-8.35-8.97-20.61-11.46-28.99-3.67-8.38,7.79-6.52,19.16,2.23,28.57Z" style="fill: #183bff;"/>
  <path d="M751.59,291.48l8.38-34.74-19.1,12.46c-7.09,4.63-7.55,9.63-6.35,16.91l-2.05,1.34-13.72-21.03,2.05-1.34c5.57,3.64,10.5,4.95,16.97.72l16.36-10.67c6.41-4.18,7.2-9.22,6.11-15.78l2.05-1.34,10.47,16.05c-4.42,2.88-9.04,8.03-9.9,11.87l-7.9,33.71,19.1-12.46c7.09-4.63,7.55-9.63,6.35-16.91l2.05-1.34,13.72,21.03-2.05,1.34c-5.57-3.64-10.54-5.01-16.95-.83l-30.61,19.97-2.52-3.86c4.35-2.84,6.06-8.92,7.53-15.11Z" style="fill: #183bff;"/>
  <path d="M780.01,349.27l14.94-32.47-21.15,8.54c-7.85,3.17-9.27,7.99-9.5,15.37l-2.27.92-9.4-23.29,2.27-.92c4.76,4.65,9.35,6.88,16.51,3.99l18.12-7.31c7.1-2.86,8.85-7.66,9.05-14.31l2.27-.92,7.17,17.77c-4.89,1.97-10.42,6.13-12.01,9.74l-14.27,31.55,21.15-8.54c7.85-3.17,9.27-7.99,9.5-15.37l2.27-.92,9.4,23.29-2.27.92c-4.76-4.65-9.37-6.95-16.47-4.09l-33.9,13.68-1.72-4.27c4.82-1.95,7.67-7.58,10.31-13.37Z" style="fill: #183bff;"/>
  <path d="M791.93,384.79l23.28,4.2c2.2.41,4.02.43,5.55.14,3.5-.68,5.42-4.07,6.39-8.42l2.41-.47,5.92,30.63-2.41.47c-2.53-3.67-5.53-5.89-9.03-5.22-1.53.3-3.2,1.07-5.08,2.27l-20.05,12.5c-6.14,3.84-8.17,7.86-9.25,13.97l-2.41.47-4.7-24.29,2.41-.46c2.14,4.43,5.21,7.01,9.08,6.26,1.97-.38,4.55-1.49,6.95-2.78l-4.62-23.92c-3.03-.4-5.3-.41-7.49.01-3.87.75-5.75,4.29-6.09,9.2l-2.41.47-4.7-24.29,2.41-.47c3.29,5.27,6.71,8.46,13.84,9.73ZM806.42,410.82l19.25-12.35-.61-3.14-22.44-4.14,3.79,19.62Z" style="fill: #183bff;"/>
  <path d="M804.41,459.92l18.77,1.04c7.71.43,12.01-3.2,15.01-9.06l2.45.14-1.64,29.59-2.45-.14c-1.2-3.94-3.78-6.91-6.75-7.07-2-.11-4.1.22-6.25,1.29l-19.35,9.49,18.19,11.5c2.01,1.3,4.06,1.86,6.07,1.97,2.97.16,5.87-2.5,7.49-6.28l2.45.14-1.64,29.59-2.45-.14c-2.34-6.16-6.2-10.24-13.92-10.67l-18.77-1.04c-7.71-.43-11.55,3.08-14.34,9.1l-2.45-.14,1.25-22.47,2.45.14c1.93,5.39,5.63,8.5,13.34,8.93l27.81,1.54-23.33-15.21c-4.02-2.6-7.4-3.46-10.22-3.62-3.49-.19-5.89,1.61-7.39,4.5l-2.45-.14.97-17.43,2.45.14c1.03,2.96,3.44,5.1,6.85,5.29,2.82.16,6.27-.4,10.56-2.54l24.95-12.45-27.82-1.54c-7.64-.42-11.81,2.25-14.32,7.39l-2.45-.14,1.25-22.47,2.45.14c2.04,6.21,5.53,10.2,13.25,10.63Z" style="fill: #183bff;"/>
  <path d="M795.04,534.13l19.14,13.91c1.8,1.32,3.43,2.14,4.94,2.54,3.45.91,6.65-1.31,9.42-4.8l2.37.63-8,30.16-2.37-.63c-.68-4.41-2.41-7.71-5.86-8.62-1.51-.4-3.35-.43-5.57-.17l-23.5,2.53c-7.2.78-10.77,3.52-14.41,8.55l-2.37-.63,6.34-23.91,2.37.63c0,4.92,1.64,8.58,5.45,9.59,1.94.51,4.75.64,7.47.52l6.25-23.55c-2.55-1.68-4.59-2.68-6.75-3.25-3.81-1.01-7.05,1.36-9.49,5.63l-2.37-.63,6.34-23.91,2.37.63c.67,6.17,2.35,10.54,8.22,14.79ZM796.76,563.87l22.71-2.74.82-3.09-18.4-13.49-5.12,19.32Z" style="fill: #183bff;"/>
  <path d="M779.31,593.31l17.58,8.53c6.95,3.37,11.64,1.36,16.71-2.96l2.21,1.07-10.96,22.59-2.21-1.07c.28-7.38-.71-12.32-8.4-16.05l-11.5-5.58,5.35,24.89c.7,3.15,1.47,6.33,3.74,7.43,1.87.91,4.06.32,7.24-3.34l2.21,1.07-12.32,25.4-2.21-1.07c.62-6.72.83-11.41-1.18-20.55l-3.41-15.28-17.66,4.4c-7.52,1.88-15.61,5.97-20.2,11.01l-2.21-1.07,12.94-26.67,2.21,1.07c-1.07,4.76-.4,8.31,2.34,9.64,2.27,1.1,4.86,1.04,8.51.16l13.02-3.35-3.62-16.2c-7.35-3.07-11.77-1.09-17.23,3.53l-2.21-1.07,10.96-22.59,2.21,1.07c-.25,6.65,1.14,11.61,8.09,14.99Z" style="fill: #183bff;"/>
  <path d="M748.77,650.58l15.76,11.55c6.23,4.57,11.21,3.43,16.97.09l1.98,1.45-27.75,37.87-13.91-7.16.56-1.89c6.21.32,12.64-2.16,16.11-6.89l4-5.45c4.3-5.87,3.56-11.39-1.05-14.77l-4.25-3.12-6.28,8.57c-3.34,4.55-4.41,6.9-1.38,12.44l-1.23,1.68-14.8-10.85,1.23-1.68c6.49,1.44,8.29-.37,11.62-4.93l6.28-8.57-5.81-4.26c-5.87-4.3-10.25-2.72-14.86,3.57l-4.74,6.47c-4.92,6.71-4.07,13.22-2.52,19.52l-1.89.82-9.09-14.12,27.84-37.99,1.98,1.45c-1.44,6.49-.97,11.63,5.26,16.2Z" style="fill: #183bff;"/>
  <path d="M703.84,705.56l12.8,14.76c5.06,5.84,10.17,5.83,16.52,3.86l1.61,1.85-18.97,16.45-1.61-1.85c3.16-6.67,4.14-11.55-1.45-18.01l-3.8-4.38-25.09,21.75,3.79,4.38c5.6,6.46,10.57,6.18,17.62,4l1.61,1.85-18.97,16.45-1.61-1.85c2.85-6.01,3.58-11.07-1.48-16.91l-12.8-14.76c-5.06-5.84-10.22-5.89-16.57-3.92l-1.61-1.85,18.97-16.45,1.61,1.85c-3.16,6.67-4.09,11.61,1.45,18.01l4.09,4.72,25.09-21.75-4.09-4.72c-5.55-6.4-10.57-6.18-17.62-4l-1.61-1.85,18.97-16.45,1.61,1.85c-2.85,6.01-3.53,11.12,1.53,16.96Z" style="fill: #183bff;"/>
  <path d="M652.69,746.06l10.64,16.39c4.21,6.48,9.33,7.14,16.27,5.82l1.33,2.06-21.31,13.83-1.33-2.06c4.03-5.8,5.51-10.75,1.3-17.23l-10.64-16.39c-4.21-6.48-9.37-7.2-16.31-5.88l-1.33-2.06,21.31-13.83,1.33,2.06c-4.03,5.8-5.47,10.81-1.26,17.29Z" style="fill: #183bff;"/>
  <path d="M629.46,761.13l7.74,17.12c3.18,7.04,8.38,9.17,14.97,9.13l1.01,2.23-27.01,12.21-1.01-2.23c2.94-2.88,4.38-6.54,3.16-9.25-.83-1.83-2.09-3.54-4.03-4.94l-17.35-12.78-1.8,21.44c-.23,2.38.22,4.46,1.05,6.29,1.22,2.71,4.93,4.05,9.03,3.74l1.01,2.23-27.01,12.21-1.01-2.23c4.38-4.92,6.22-10.23,3.04-17.27l-7.74-17.12c-3.18-7.04-8.06-8.83-14.69-8.52l-1.01-2.23,20.51-9.27,1.01,2.23c-3.89,4.2-4.94,8.92-1.76,15.96l11.47,25.38,2.71-27.72c.45-4.77-.35-8.16-1.51-10.73-1.44-3.18-4.15-4.48-7.4-4.48l-1.01-2.23,15.91-7.19,1.01,2.23c-2.15,2.28-2.94,5.4-1.53,8.52,1.16,2.57,3.25,5.38,7.13,8.19l22.56,16.38-11.47-25.38c-3.15-6.97-7.44-9.43-13.17-9.29l-1.01-2.23,20.51-9.27,1.01,2.23c-4.57,4.67-6.49,9.62-3.31,16.66Z" style="fill: #183bff;"/>
  <path d="M544.85,790.77l-4.58,23.21c-.44,2.19-.5,4.01-.23,5.55.62,3.51,3.98,5.48,8.32,6.53l.43,2.41-30.72,5.42-.42-2.41c3.71-2.46,5.98-5.43,5.36-8.94-.27-1.54-1.02-3.21-2.18-5.12l-12.17-20.26c-3.73-6.21-7.72-8.29-13.81-9.48l-.43-2.41,24.36-4.29.42,2.41c-4.46,2.07-7.1,5.1-6.41,8.97.35,1.98,1.41,4.58,2.67,7l23.99-4.23c.45-3.02.5-5.29.11-7.49-.68-3.88-4.19-5.82-9.09-6.24l-.43-2.41,24.36-4.29.43,2.41c-5.32,3.2-8.57,6.56-9.96,13.67ZM518.59,804.83l12.03,19.45,3.15-.55,4.5-22.37-19.68,3.47Z" style="fill: #183bff;"/>
  <path d="M455.61,798.47l24.09,26.4.37-22.8c.14-8.47-3.75-11.65-10.46-14.73l.04-2.45,25.11.41-.04,2.45c-6.13,2.58-9.98,5.93-10.1,13.66l-.32,19.54c-.12,7.65,3.61,11.13,9.66,13.9l-.04,2.45-19.16-.31c.09-5.27-1.59-11.99-4.29-14.86l-23.51-25.42-.37,22.8c-.14,8.47,3.75,11.65,10.46,14.73l-.04,2.45-25.11-.41.04-2.45c6.13-2.58,10.05-5.93,10.18-13.58l.59-36.55,4.6.07c-.08,5.2,4,10.02,8.31,14.7Z" style="fill: #183bff;"/>
  <path d="M411.19,806.6c-3.75,14.99-17.8,24.03-32.94,20.25-15.06-3.77-23.33-18.16-19.53-33.37,3.55-14.2,17.48-23.04,32.68-19.24,15.13,3.78,23.33,18.16,19.78,32.36ZM389.27,782.81c-11.6-2.9-23.33.83-26.22,12.36-2.68,10.74,5.67,20.18,17.35,23.1,11.89,2.97,23.53-1.62,26.31-12.72,2.78-11.1-4.97-19.62-17.44-22.74Z" style="fill: #183bff;"/>
  <path d="M352.28,780.6l-7.54,18.02c-2.98,7.13-.71,11.7,3.88,16.52l-.95,2.26-42.62-17.83,2.7-14.73,1.9.07c1.68,5.61,4.55,10.68,10.65,13.23l6.44,2.7c6.72,2.81,12.19.11,14.4-5.17l1.86-4.45-9.39-3.93c-5.21-2.18-7.88-3.3-12.55.95l-1.92-.8,6.57-15.69,1.92.8c.49,5.76,2.96,7.36,8.17,9.54l9.39,3.93,2.7-6.44c3.27-7.81.77-12.24-5.21-17.96l.95-2.26,24.12,10.09-.95,2.26c-6.65.12-11.53,1.78-14.52,8.9Z" style="fill: #183bff;"/>
  <path d="M306.57,759.61l-10.16,16.69c-4.02,6.6-2.46,11.46,1.35,16.91l-1.27,2.09-39.46-24.03,4.88-14.16,1.87.36c.82,5.8,2.89,11.24,8.54,14.68l5.96,3.63c6.22,3.79,12.04,1.94,15.01-2.95l2.51-4.12-8.69-5.29c-4.82-2.94-7.3-4.44-12.55-.95l-1.78-1.08,8.85-14.53,1.78,1.08c-.38,5.77,1.82,7.72,6.64,10.66l8.69,5.29,3.63-5.96c4.4-7.23,2.6-11.98-2.45-18.54l1.27-2.09,22.33,13.6-1.27,2.09c-6.59-.88-11.67.03-15.69,6.62Z" style="fill: #183bff;"/>
  <path d="M264.4,732.08l-12.67,14.88c-5.01,5.88-4.23,10.93-1.33,16.92l-1.59,1.87-35.75-30.44,8.15-13.35,1.85.69c-.77,6.17,1.24,12.76,5.7,16.56l5.15,4.38c5.54,4.72,11.1,4.38,14.81.02l3.42-4.02-8.09-6.89c-4.3-3.66-6.56-4.9-12.3-2.28l-1.58-1.35,11.89-13.97,1.58,1.35c-1.91,6.37-.23,8.29,4.07,11.95l8.09,6.89,4.67-5.49c4.72-5.54,3.46-10.03-2.48-15.08l-6.11-5.2c-6.34-5.39-12.89-5.03-19.29-3.93l-.68-1.95,14.74-8.03,35.86,30.53-1.59,1.87c-6.37-1.91-11.53-1.81-16.54,4.07Z" style="fill: #183bff;"/>
  <path d="M223.06,694.38l-14.37,12.12c-5.57,4.69-6.67,10.19-4.66,16.95l-1.87,1.58-20.88-24.76c-6.66-7.89-6.5-16.58.43-22.42,6.76-5.7,14.65-4.29,21.55,3.89l1.44,1.7,1.02-2.71c2.44-6.44,2.81-15.1-.35-18.85-1.15-1.36-2.24-2.19-3.86-2.96l.43-2.6,11.9.17c2.35,4.63,1.64,12.32-1.82,20.78l-4.12,9.98,6.94,8.23,5.28-4.45c5.85-4.93,6.12-9.92,3.72-17.13l1.87-1.58,16.19,19.2-1.87,1.58c-6.33-3.12-11.36-3.44-16.98,1.3ZM197.42,683.34c-3.69-4.37-8.32-5.14-12.18-1.88-3.75,3.16-3.7,7.59.08,12.08l8.14,9.65c3.21,3.81,7.35,4.1,11.27.8l5.91-4.98-13.22-15.67Z" style="fill: #183bff;"/>
  <path d="M180.69,638.42l-17.36,8.96c-6.86,3.55-8.06,8.51-7.64,15.15l-2.18,1.12-11.52-22.31,2.18-1.12c5.74,4.64,10.25,6.74,17.84,2.82l5.15-2.66-15.24-29.5-5.15,2.66c-7.59,3.92-8.49,8.82-8.03,16.18l-2.18,1.12-11.52-22.31,2.18-1.12c5.17,4.18,9.91,6.08,16.78,2.54l17.36-8.97c6.86-3.54,8.13-8.54,7.71-15.18l2.18-1.12,11.52,22.31-2.18,1.12c-5.74-4.64-10.32-6.71-17.84-2.82l-5.54,2.86,15.24,29.5,5.54-2.86c7.52-3.89,8.49-8.82,8.03-16.18l2.18-1.12,11.52,22.31-2.18,1.12c-5.17-4.18-9.98-6.05-16.84-2.5Z" style="fill: #183bff;"/>
  <path d="M153.11,579.64l-18.69,5.68c-7.39,2.25-9.47,6.92-10.25,13.52l-2.35.71-13.66-44.92,14.07-6.84,1.18,1.58c-3.98,4.78-5.85,11.41-4.14,17.02l1.97,6.47c2.12,6.97,6.98,9.68,12.45,8.02l5.05-1.53-3.09-10.16c-1.64-5.4-2.87-7.67-9.12-8.56l-.6-1.99,17.56-5.34.6,1.99c-5.05,4.33-4.67,6.85-3.03,12.26l3.09,10.16,6.89-2.1c6.97-2.12,8.33-6.57,6.06-14.03l-2.33-7.68c-2.42-7.96-8.14-11.19-14.11-13.72l.48-2.01,16.75,1.2,13.7,45.06-2.35.71c-4.33-5.05-8.72-7.75-16.12-5.51Z" style="fill: #183bff;"/>
  <path d="M127.54,520.31c-16.66,1.37-28.17-9.91-29.34-24.12-.47-5.7.85-10.5,2.66-13.86l-4-2.35-.2-2.44,17.65-6.52,1.08,2.3c-5.9,5.33-9.3,12.02-8.46,22.16,1.05,12.81,10,21.02,20.22,20.18,11.62-.96,17.35-10.22,16.28-23.18-.82-10-5.8-17.04-14.79-22.11l.87-2.08c13.04,2.73,21.69,10.89,22.73,23.47,1.34,16.29-9.23,27.29-24.71,28.57Z" style="fill: #183bff;"/>
  <path d="M135.52,458.89l-21.35-10.19c-2.01-.97-3.76-1.48-5.32-1.6-3.55-.27-6.3,2.5-8.39,6.44l-2.44-.19,2.37-31.11,2.44.19c1.47,4.21,3.78,7.14,7.33,7.41,1.55.12,3.37-.19,5.5-.85l22.64-6.77c6.94-2.08,9.95-5.43,12.61-11.04l2.44.19-1.87,24.66-2.44-.19c-.9-4.84-3.18-8.14-7.11-8.44-2-.15-4.79.23-7.44.85l-1.85,24.29c2.82,1.18,5,1.8,7.23,1.96,3.93.3,6.68-2.62,8.3-7.27l2.44.19-1.88,24.66-2.44-.19c-1.78-5.95-4.24-9.93-10.78-13.04ZM128.41,429.96l-21.82,6.83-.24,3.19,20.55,9.91,1.51-19.92Z" style="fill: #183bff;"/>
  <path d="M150.22,370.5l-31.56,16.76,21.99,6.03c8.17,2.24,12.22-.73,16.87-6.46l2.36.65-6.64,24.21-2.36-.65c-.97-6.58-3.26-11.14-10.71-13.18l-18.84-5.17c-7.38-2.02-11.68.73-15.87,5.89l-2.36-.65,5.07-18.48c5.09,1.4,12,1.44,15.46-.46l30.47-16.45-21.99-6.03c-8.17-2.24-12.22.73-16.87,6.46l-2.36-.65,6.64-24.21,2.36.65c.97,6.58,3.24,11.21,10.62,13.24l35.25,9.67-1.22,4.44c-5.01-1.38-10.7,1.38-16.3,4.39Z" style="fill: #183bff;"/>
  <path d="M136.54,333.03c-1.1-.45-2.44-.51-4.06.12-2.07.76-3.63,1.25-5.29.58-2.55-1.03-3.43-3.79-2.49-6.14,1.23-3.03,4.74-4.17,8.59-2.61,4.61,1.87,7.65,7.03,8.12,12.02l-1.75.57c-.51-2.69-1.82-4.02-3.13-4.55Z" style="fill: #183bff;"/>
  <path d="M170.9,313.02l-16.51-8.66c-6.05-3.17-9.66-2.05-12.08,2.56l-.48.92c-1.97,3.75-1.94,9.13,1.27,15.51l-1.89,1.53-12.11-11.46,1.14-2.17,1.5-.47,17.1-32.63-.47-1.5,1.14-2.17,16.32,3.44-.18,2.42c-7.06.99-11.61,4.23-13.51,7.85l-.48.92c-2.41,4.61-1.25,8.15,4.8,11.32l16.51,8.66c6.71,3.52,11.66,1.92,17.1-2.86l2.17,1.14-11.79,22.5-2.17-1.14c.83-7.19-.67-12.17-7.38-15.69Z" style="fill: #183bff;"/>
  <path d="M199.64,266.25l-14.52-11.94c-5.62-4.62-11.23-4.71-17.51-1.51l-1.89-1.56,20.57-25.02c6.56-7.98,15.13-9.39,22.13-3.64,6.83,5.61,6.87,13.63.08,21.9l-1.42,1.72,2.85.51c6.77,1.24,15.36.03,18.48-3.76,1.13-1.38,1.75-2.6,2.22-4.33l2.63-.05,1.99,11.73c-4.13,3.15-11.82,3.85-20.76,1.97l-10.56-2.24-6.84,8.32,5.34,4.39c5.91,4.86,10.86,4.22,17.53.56l1.89,1.56-15.95,19.4-1.89-1.56c1.92-6.79,1.33-11.79-4.35-16.47ZM205.85,239.04c3.63-4.42,3.54-9.11-.36-12.32-3.79-3.11-8.14-2.27-11.87,2.27l-8.02,9.76c-3.16,3.84-2.71,7.97,1.25,11.23l5.97,4.91,13.02-15.84Z" style="fill: #183bff;"/>
  <path d="M236.04,224.88l-12.85-14.72c-5.08-5.82-10.19-5.8-16.54-3.8l-1.61-1.85,35.36-30.88,12.01,10.03-.96,1.73c-5.99-1.67-12.8-.66-17.22,3.2l-5.09,4.45c-5.48,4.79-5.96,10.34-2.2,14.64l3.47,3.97,8-6.99c4.25-3.71,5.81-5.77,4.07-11.83l1.57-1.37,12.07,13.82-1.57,1.37c-6.02-2.83-8.17-1.45-12.42,2.27l-8,6.99,4.74,5.43c4.79,5.48,9.41,4.9,15.28-.23l6.04-5.28c6.27-5.47,6.87-12.01,6.73-18.5l2.03-.39,5.78,15.76-35.48,30.98-1.61-1.85c2.83-6.02,3.49-11.14-1.59-16.95Z" style="fill: #183bff;"/>
  <path d="M279.46,189.63l-10.37-16.56c-4.1-6.55-9.15-7.33-15.73-6.36l-1.3-2.08,39.16-24.53,10.48,10.71-1.16,1.51c-5.55-1.87-11.35-2.44-16.95,1.07l-5.92,3.71c-6.17,3.87-7.12,9.9-4.09,14.75l2.56,4.09,8.62-5.4c4.79-3,7.24-4.54,6.47-10.8l1.76-1.1,9.03,14.42-1.76,1.1c-4.99-2.92-7.72-1.83-12.5,1.17l-8.62,5.4,3.71,5.92c4.5,7.18,9.55,7.69,17.68,6.11l1.3,2.08-22.16,13.88-1.3-2.08c3.74-5.5,5.2-10.45,1.1-17Z" style="fill: #183bff;"/>
  <path d="M327.17,172.96c-1.86-.6-5.16-1.4-7.33-1.79l-.85-2.06c2.66-3.67,3.62-5.84,2-9.75l-5.51-13.32c-2.78-6.73-7.4-8.76-14.45-8.9l-.94-2.27,23.2-9.59.94,2.27c-5.51,5.73-7.62,9.58-4.58,16.92l5,12.08c3.6,8.72,11.21,11.36,19.45,7.96,8.24-3.41,11.75-10.65,8.15-19.37l-5.19-12.56c-3.04-7.35-7.05-8.1-14.99-8.27l-.94-2.27,23.2-9.59.94,2.27c-4.89,5.08-7.1,8.88-4.32,15.61l5.88,14.21c1.62,3.91,3.81,4.94,8.3,5.49l.85,2.06c-1.26,1.81-3.04,4.71-3.93,6.45-3.64,7.13-8.23,11.6-14.54,14.21-6.32,2.61-12.72,2.68-20.33.21Z" style="fill: #183bff;"/>
  <path d="M383.79,154.39l-1.33,4.63-2.17.49-9.22-17.43,1.65-1.13c8.98,6.14,18.42,7.84,27.62,5.78,9.93-2.22,12.37-7.33,11.67-10.45-3.11-13.92-37.39,3.33-41.39-14.58-1.63-7.32,4.54-15.47,16.13-18.06,5.44-1.21,10.05-.65,13.89.86l1.12-4.21,2.17-.49,9.04,15.26-1.69,1.29c-6.76-4.73-14.54-5.81-22.51-4.03-8.26,1.85-12.05,6.35-11.34,9.54,2.35,10.51,38.09-5.62,42.59,14.54,1.96,8.77-5.65,16.64-16.59,19.08-6.02,1.34-14.14,1.1-19.65-1.09Z" style="fill: #183bff;"/>
  <path d="M432.7,132.92l-1.12-19.5c-.44-7.71-4.49-10.83-10.72-13.15l-.14-2.45,46.87-2.68,3.33,15.28-1.82.77c-3.71-5-9.7-8.37-15.56-8.04l-6.75.39c-7.27.42-11.05,4.5-10.72,10.21l.3,5.27,10.6-.61c5.64-.32,8.13-.99,10.47-6.85l2.08-.12,1.05,18.32-2.08.12c-3.02-5.93-5.56-6.15-11.2-5.83l-10.6.61.41,7.19c.42,7.27,4.42,9.64,12.21,9.2l8.01-.46c8.31-.48,12.79-5.27,16.66-10.48l1.84.94-5.11,15.99-47.02,2.69-.14-2.45c5.93-3.02,9.59-6.65,9.15-14.36Z" style="fill: #183bff;"/>
</svg>