<?xml version="1.0" encoding="UTF-8"?>
<svg id="a" data-name="Layer 1" xmlns="http://www.w3.org/2000/svg" width="1479.22" height="791.85" viewBox="0 0 1479.22 791.85">
  <path d="M0,288.63V0h64.32c57.08,0,87.23,26.13,87.23,88.84,0,56.68-28.14,91.25-86.83,91.25h-6.43v108.54H0ZM66.73,128.24c12.46,0,23.72-9.25,23.72-38.99s-10.05-34.97-23.72-34.97h-8.44v73.97h8.44Z"/>
  <path d="M1416.92,288.63l-22.91-111.75h-13.27v111.75h-57.89V0h70.35c50.65,0,78.39,18.89,78.39,80.4,0,34.57-10.85,54.67-27.34,65.93l34.97,142.31h-62.31ZM1385.96,128.24c18.49,0,24.52-9.25,24.52-40.2,0-38.59-15.68-38.59-24.52-38.59h-5.23v78.79h5.23Z"/>
  <path d="M0,788.63v-288.63h129.44v54.27H58.29v59.5h57.08v51.86h-57.08v68.74h75.17v54.27H0Z"/>
  <path d="M372.64,577.58c-1.21-14.87-4.82-31.36-19.7-31.36-10.45,0-14.47,7.24-14.47,16.48,0,53.87,89.24,69.54,89.24,155.17,0,45.83-28.14,73.97-75.17,73.97-53.06,0-69.54-28.14-72.76-77.99l53.87-4.02c1.61,22.11,5.23,33.37,19.7,33.37,10.05,0,16.48-7.24,16.48-21.31,0-55.07-86.83-71.15-86.83-154.37,0-42.21,23.32-70.75,69.14-70.75,54.67,0,68.74,35.78,71.96,76.78l-51.46,4.02Z"/>
  <path d="M1398.47,577.58c-1.21-14.87-4.82-31.36-19.7-31.36-10.45,0-14.47,7.24-14.47,16.48,0,53.87,89.24,69.54,89.24,155.17,0,45.83-28.14,73.97-75.17,73.97-53.06,0-69.54-28.14-72.76-77.99l53.87-4.02c1.61,22.11,5.23,33.37,19.7,33.37,10.05,0,16.48-7.24,16.48-21.31,0-55.07-86.83-71.15-86.83-154.37,0-42.21,23.32-70.75,69.14-70.75,54.67,0,68.74,35.78,71.96,76.78l-51.46,4.02Z"/>
</svg>