<?xml version="1.0" encoding="UTF-8"?>
<svg id="a" data-name="Layer 1" xmlns="http://www.w3.org/2000/svg" width="940" height="940" viewBox="0 0 940 940">
  <path d="M586.21,107.76c15.73-31.66,48.75-40.18,75.77-26.75,10.84,5.38,18.09,13.03,22.19,19.97l8.63-4.66,4.64,2.31-7.49,39.09-5.34-.55c-3.2-16.51-11.6-29.98-30.88-39.56-24.35-12.1-49-4.87-58.65,14.55-10.98,22.1-.46,42.59,24.17,54.83,19,9.44,37.2,8.13,56.22-2.6l2.82,3.86c-19.21,20.64-43.43,27.38-67.36,15.49-30.96-15.38-39.33-46.57-24.72-75.98Z" style="fill: #183bff;"/>
  <path d="M696.63,196.67l27.12-31.19c10.72-12.33,9.08-23.13,2.35-36.48l3.4-3.91,40.56,35.26-3.4,3.91c-14.15-4.8-25.07-4.93-35.8,7.4l-27.12,31.19c-10.72,12.33-9.18,23.25-2.46,36.6l-3.4,3.91-40.56-35.26,3.4-3.91c14.15,4.8,25.18,4.81,35.9-7.52Z" style="fill: #183bff;"/>
  <path d="M739.76,237.57l32.7-22.61c12.67-8.76,16.09-20.1,13.23-34.74l4.27-2.95,38.96,56.36c12.42,17.97,10.33,36.22-5.44,47.12-15.38,10.63-31.72,6.07-44.58-12.54l-2.68-3.88-2.7,5.49c-6.45,13.05-8.98,31.23-3.08,39.76,2.14,3.1,4.27,5.07,7.53,7.02l-1.43,5.39-25.02-2.76c-4.01-10.22-.97-26.27,8.03-43.37l10.69-20.19-12.96-18.74-12.02,8.31c-13.31,9.2-14.88,19.65-11.3,35.32l-4.27,2.95-30.2-43.69,4.26-2.95c12.69,7.85,23.22,9.55,36.02.7ZM791.5,265.99c6.88,9.95,16.47,12.49,25.26,6.42,8.53-5.9,9.33-15.24,2.27-25.45l-15.19-21.97c-5.99-8.66-14.64-10.13-23.56-3.96l-13.44,9.29,24.66,35.68Z" style="fill: #183bff;"/>
  <path d="M813.91,314.09c34.07-9.46,62.47,9.4,70.54,38.47,3.24,11.66,2.4,22.17-.03,29.85l9.24,3.31,1.39,5-34.08,20.56-3.16-4.34c10.14-13.42,14.54-28.67,8.78-49.41-7.28-26.19-29.13-39.7-50.02-33.89-23.77,6.6-31.98,28.13-24.62,54.62,5.68,20.44,18.82,33.1,39.51,40.08l-.98,4.68c-28.19-.49-49.39-14.01-56.54-39.75-9.25-33.31,8.35-60.38,39.99-69.17Z" style="fill: #183bff;"/>
  <path d="M803.11,454.79c2.93-2.91,7.64-8.34,10.48-12.05l4.7.4c4.32,8.57,7.46,12.46,16.39,13.21l30.38,2.56c15.34,1.29,23.64-5.42,30.74-18.54l5.17.44-4.47,52.93-5.17-.44c-5.44-15.91-10.62-23.61-27.38-25.02l-27.56-2.33c-19.89-1.68-32.23,10.05-33.82,28.84-1.58,18.79,8.62,32.43,28.5,34.1l28.66,2.42c16.75,1.41,22.06-5.39,30.09-20.17l5.17.44-4.47,52.93-5.17-.44c-4.8-14.12-9.82-21.96-25.16-23.26l-32.41-2.74c-8.93-.75-12.97,2.37-18.37,10.28l-4.7-.4c-2.17-4.13-5.91-10.28-8.31-13.63-9.88-13.77-13.83-26.71-12.62-41.12s7.28-26.51,19.33-38.42Z" style="fill: #183bff;"/>
  <path d="M802.75,585.08l37.5,17.37c14.83,6.87,24.68,2.43,35.23-6.89l4.71,2.18-22.32,48.2-4.71-2.18c.31-15.62-.47-25.16-16.87-32.75l-34.51-15.98c-14.26-6.6-22.54-1.43-29.48,13.54l-3.43,7.42c-7.46,16.11-5.95,33.79-.09,46.2l-4.55,3.09-24.74-25.48,40.88-88.27,4.71,2.18c-.28,14.07,2.84,24.52,17.67,31.39Z" style="fill: #183bff;"/>
  <path d="M742.44,685.51l20.2,45.79c1.89,4.33,4,7.56,6.33,9.89,5.33,5.34,13.55,4.67,22.33,1.23l3.67,3.67-46.69,46.65-3.67-3.67c3.45-8.78,3.79-16.67-1.55-22-2.33-2.33-5.67-4.34-10-6.23l-45.66-20.35c-14-6.23-23.44-5.01-35.45.32l-3.67-3.67,37.02-36.99,3.67,3.67c-5.23,9-6.12,17.44-.23,23.33,3,3,8,6.23,13.11,8.89l36.46-36.43c-2.89-5.78-5.55-9.78-8.88-13.12-5.89-5.89-14.33-5.01-23.33.21l-3.67-3.67,37.02-36.99,3.67,3.67c-5.34,12-6.9,21.78-.68,35.78ZM713.97,741.72l44.44,19.13,4.78-4.78-19.32-44.23-29.9,29.88Z" style="fill: #183bff;"/>
  <path d="M646.07,773.42l16.48,36.18c6.38,14.01,16.95,19.39,31.87,19.16l2.15,4.72-62.35,28.41c-19.88,9.06-37.48,3.78-45.43-13.67-7.75-17.02-.38-32.29,20.21-41.68l4.29-1.95-4.93-3.62c-11.71-8.65-29.16-14.35-38.6-10.05-3.43,1.56-5.75,3.31-8.24,6.17l-5.05-2.36,7.13-24.14c10.77-2.14,26.03,3.68,41.28,15.56l17.99,14.08,20.74-9.45-6.06-13.3c-6.71-14.73-16.72-18.12-32.78-17.36l-2.15-4.72,48.33-22.02,2.15,4.72c-9.97,11.1-13.49,21.17-7.04,35.33ZM608.97,819.34c-11.01,5.02-15.2,14.01-10.77,23.73,4.3,9.44,13.35,11.88,24.65,6.73l24.31-11.08c9.58-4.37,12.55-12.63,8.06-22.49l-6.78-14.87-39.47,17.98Z" style="fill: #183bff;"/>
  <path d="M427.53,804.63c-.53,3.1-.4,6.95.54,11.73l9.89,49.21c2.85,14.04,8.99,21.95,20.3,28.52l-.88,5.11-51.57-8.85.88-5.11c10.36-.93,17.77-5.08,19.18-13.29,1.12-6.5.41-15.4-2.22-27.96l-10.09-49.88-2.94-.5-26.15,43.66c-6.51,11-10.3,19.12-11.41,25.62-1.41,8.21,4.19,14.59,13.65,18.92l-.88,5.11-51.57-8.85.88-5.11c12.85-2.42,20.99-7.08,28.64-20.12l25.58-43.12c2.27-3.92,3.99-7.45,4.57-10.85,1.25-7.28-3.55-13.68-11.43-18.86l.88-5.11,62.11,10.66-.88,5.11c-9.34,2.38-15.82,6.69-17.07,13.97Z" style="fill: #183bff;"/>
  <path d="M322.24,787.54l-17.67,37.36c-6.99,14.77-2.48,24.73,7.6,35.75l-2.22,4.69-48.58-22.97,2.22-4.69c14.92.8,25.47-2.04,32.46-16.81l17.67-37.36c6.99-14.77,2.55-24.87-7.54-35.89l2.22-4.69,48.58,22.97-2.22,4.69c-14.92-.8-25.54,2.18-32.52,16.95Z" style="fill: #183bff;"/>
  <path d="M269.88,760l-26.41,31.79c-9.84,11.84-9.33,22.29-2.63,35.62l-3.31,3.99-49.31-40.98c-18.37-15.27-22.5-33.41-10.75-47.55,6.43-7.74,15.52-10.81,25.66-8.51-7.32-11.6-6.91-22.91,1.22-32.7,12.55-15.11,31.21-14.93,49.58.33l53.91,44.79-3.31,3.99c-14.33-4.14-24.69-2.74-34.63,9.22ZM213.49,749.92c-8.94-7.43-18.86-7.3-25.09.2-6.13,7.37-4.28,17.69,4.18,24.72l18.13,15.06c8.1,6.73,15.82,7.02,22.75-1.32l10.85-13.05-30.82-25.61ZM260.68,728.04l-21.63-17.98c-8.82-7.33-18.5-7-24.93.74-6.93,8.34-4.56,20.73,5.59,29.17l32.03,26.61,13.06-15.71c6.23-7.49,4.1-16-4.12-22.83Z" style="fill: #183bff;"/>
  <path d="M184.33,678.19l-34.01,20.6c-13.17,7.98-17.28,19.1-15.3,33.89l-4.44,2.69-35.49-58.6c-11.31-18.68-8.13-36.78,8.27-46.71,16-9.69,32.03-4.15,43.75,15.21l2.44,4.03,3.02-5.32c7.22-12.64,10.84-30.63,5.47-39.5-1.95-3.23-3.96-5.32-7.09-7.46l1.76-5.29,24.81,4.26c3.38,10.44-.62,26.28-10.63,42.81l-11.89,19.51,11.8,19.49,12.5-7.57c13.84-8.38,16.04-18.72,13.41-34.58l4.44-2.69,27.52,45.43-4.44,2.69c-12.19-8.6-22.6-10.93-35.91-2.87ZM134.39,646.7c-6.27-10.35-15.69-13.46-24.83-7.93-8.87,5.37-10.23,14.65-3.8,25.27l13.84,22.85c5.46,9.01,14.01,10.99,23.28,5.37l13.98-8.47-22.47-37.1Z" style="fill: #183bff;"/>
  <path d="M133.15,568.63l-49.19-9.19c-4.64-.89-8.49-.97-11.74-.36-7.41,1.38-11.51,8.54-13.63,17.73l-5.1.95-12.12-64.88,5.1-.95c5.29,7.8,11.61,12.54,19.03,11.15,3.24-.61,6.78-2.23,10.79-4.73l42.59-26.18c13.05-8.03,17.38-16.51,19.76-29.43l5.1-.95,9.61,51.44-5.1.95c-4.47-9.4-10.94-14.9-19.12-13.37-4.17.78-9.66,3.08-14.74,5.79l9.46,50.66c6.4.88,11.21.94,15.84.08,8.19-1.53,12.23-9,13.01-19.37l5.1-.95,9.61,51.44-5.1.95c-6.88-11.18-14.07-17.99-29.14-20.77ZM102.85,513.39l-40.89,25.86,1.24,6.64,47.41,9.05-7.76-41.55Z" style="fill: #183bff;"/>
  <path d="M117.63,428.99l-39.17-4.64c-14.36-1.7-20.64,3.25-21.93,14.17l-.26,2.18c-1.05,8.9,3.07,19.51,14.2,29.69l-2.58,4.44-32.58-13.51.61-5.15,2.62-2.06,9.17-77.4-2.06-2.62.61-5.15,34.83-5.52,1.47,4.92c-13.21,7.3-19.75,17.12-20.77,25.71l-.26,2.19c-1.29,10.92,3.68,17.05,18.03,18.75l39.17,4.64c15.92,1.89,24.49-5.01,31.63-18.56l5.15.61-6.32,53.37-5.15-.61c-3.78-14.85-10.5-23.56-26.42-25.44Z" style="fill: #183bff;"/>
  <path d="M136.96,345.31l-38.63-14.68c-15.28-5.81-24.85-.53-35.05,10.39l-4.85-1.84,19.09-50.24,4.85,1.84c.38,14.94,4.03,25.23,19.31,31.04l38.63,14.68c15.28,5.81,24.99.59,35.19-10.33l4.85,1.84-19.09,50.24-4.85-1.84c-.38-14.94-4.17-25.29-19.45-31.09Z" style="fill: #183bff;"/>
  <path d="M128.86,303.25c-26.97-18.47-34.57-52.99-15.92-80.22,18.55-27.1,53.19-32.91,80.55-14.17,25.54,17.49,32.84,51.62,14.11,78.98-18.64,27.23-53.19,32.91-78.74,15.42ZM192.16,277.27c14.29-20.88,15.53-46.88-5.22-61.09-19.32-13.23-44.2-3.6-58.58,17.41-14.65,21.4-14.1,47.86,5.87,61.53,19.97,13.67,42.57,4.58,57.93-17.85Z" style="fill: #183bff;"/>
  <path d="M279.47,173.91l-74.21-14.38,28.16,39.17c10.46,14.55,21.07,15.04,36.35,11.8l3.03,4.21-43.13,31.01-3.03-4.21c7.16-12.12,9.45-22.66-.09-35.93l-24.13-33.56c-9.45-13.14-20.18-14.33-33.94-11.4l-3.03-4.21,32.92-23.67c6.51,9.06,17.83,18.34,26.04,19.8l72,13.46-28.16-39.17c-10.46-14.55-21.07-15.04-36.35-11.8l-3.03-4.21,43.13-31.01,3.03,4.21c-7.16,12.12-9.58,22.76-.13,35.9l45.13,62.78-7.91,5.69c-6.42-8.93-19.44-11.96-32.65-14.46Z" style="fill: #183bff;"/>
  <path d="M352.95,158.2l-2.36,9.92-4.55,1.23-21.15-35.94,3.38-2.54c19.57,12.11,39.67,14.8,58.93,9.58,20.78-5.64,25.44-16.67,23.67-23.19-7.9-29.12-78.7,10.6-88.86-26.86-4.16-15.32,8.11-33.13,32.37-39.72,11.37-3.08,21.19-2.33,29.44.48l1.96-9,4.55-1.23,20.56,31.38-3.45,2.89c-14.75-9.35-31.28-10.89-47.97-6.36-17.29,4.69-24.87,14.56-23.06,21.23,5.96,21.99,79.97-15.5,91.41,26.66,4.98,18.35-10.34,35.69-33.24,41.91-12.59,3.41-29.77,3.68-41.63-.43Z" style="fill: #183bff;"/>
</svg>