<?xml version="1.0" encoding="UTF-8"?>
<svg id="a" data-name="Layer 1" xmlns="http://www.w3.org/2000/svg" width="1100.6" height="814.76" viewBox="0 0 1100.6 814.76">
  <g>
    <path d="M47.27,156.15l-11.51-56.15h-6.67v56.15H0V11.12h35.35c25.45,0,39.39,9.49,39.39,40.4,0,17.37-5.45,27.47-13.74,33.13l17.57,71.51h-31.31ZM31.71,75.55c9.29,0,12.32-4.65,12.32-20.2,0-19.39-7.88-19.39-12.32-19.39h-2.63v39.59h2.63Z"/>
    <path d="M250.58,156.15v-61.61h-17.17v61.61h-29.29V11.12h29.29v57.37h17.17V11.12h28.89v145.03h-28.89Z"/>
    <path d="M427.43,156.15v-57.57l-27.67-87.46h30.5l11.31,50.9h.4l11.92-50.9h30.5l-27.67,87.67v57.37h-29.29Z"/>
    <path d="M678.62,156.15v-88.47h-.4l-15.55,88.47h-16.77l-16.16-88.47h-.4v88.47h-24.64V11.12h36.36l12.73,74.74h.4l14.34-74.74h34.74v145.03h-24.64Z"/>
    <path d="M836.08,156.15V11.12h65.04v27.27h-35.75v29.9h28.68v26.06h-28.68v34.54h37.77v27.27h-67.06Z"/>
    <path d="M1072.93,50.1c-.61-7.47-2.42-15.76-9.9-15.76-5.25,0-7.27,3.64-7.27,8.28,0,27.07,44.84,34.95,44.84,77.97,0,23.03-14.14,37.17-37.77,37.17-26.66,0-34.95-14.14-36.56-39.19l27.07-2.02c.81,11.11,2.63,16.77,9.9,16.77,5.05,0,8.28-3.64,8.28-10.71,0-27.67-43.63-35.75-43.63-77.57,0-21.21,11.72-35.55,34.74-35.55,27.47,0,34.54,17.98,36.16,38.58l-25.86,2.02Z"/>
  </g>
  <g>
    <path d="M47.27,316.15l-11.51-56.15h-6.67v56.15H0v-145.03h35.35c25.45,0,39.39,9.49,39.39,40.4,0,17.37-5.45,27.47-13.74,33.13l17.57,71.51h-31.31ZM31.71,235.55c9.29,0,12.32-4.65,12.32-20.2,0-19.39-7.88-19.39-12.32-19.39h-2.63v39.59h2.63Z"/>
    <path d="M250.58,316.15v-61.61h-17.17v61.61h-29.29v-145.03h29.29v57.37h17.17v-57.37h28.89v145.03h-28.89Z"/>
    <path d="M427.43,316.15v-57.57l-27.67-87.46h30.5l11.31,50.9h.4l11.92-50.9h30.5l-27.67,87.67v57.37h-29.29Z"/>
    <path d="M678.62,316.15v-88.47h-.4l-15.55,88.47h-16.77l-16.16-88.47h-.4v88.47h-24.64v-145.03h36.36l12.73,74.74h.4l14.34-74.74h34.74v145.03h-24.64Z"/>
    <path d="M836.08,316.15v-145.03h65.04v27.27h-35.75v29.9h28.68v26.06h-28.68v34.54h37.77v27.27h-67.06Z"/>
    <path d="M1072.93,210.1c-.61-7.47-2.42-15.76-9.9-15.76-5.25,0-7.27,3.64-7.27,8.28,0,27.07,44.84,34.95,44.84,77.97,0,23.03-14.14,37.17-37.77,37.17-26.66,0-34.95-14.14-36.56-39.19l27.07-2.02c.81,11.11,2.63,16.77,9.9,16.77,5.05,0,8.28-3.64,8.28-10.71,0-27.67-43.63-35.75-43.63-77.57,0-21.21,11.72-35.55,34.74-35.55,27.47,0,34.54,17.98,36.16,38.58l-25.86,2.02Z"/>
  </g>
  <g>
    <path d="M47.27,476.15l-11.51-56.15h-6.67v56.15H0v-145.03h35.35c25.45,0,39.39,9.49,39.39,40.4,0,17.37-5.45,27.47-13.74,33.13l17.57,71.51h-31.31ZM31.71,395.55c9.29,0,12.32-4.65,12.32-20.2,0-19.39-7.88-19.39-12.32-19.39h-2.63v39.59h2.63Z"/>
    <path d="M250.58,476.15v-61.61h-17.17v61.61h-29.29v-145.03h29.29v57.37h17.17v-57.37h28.89v145.03h-28.89Z"/>
    <path d="M427.43,476.15v-57.57l-27.67-87.46h30.5l11.31,50.9h.4l11.92-50.9h30.5l-27.67,87.67v57.37h-29.29Z"/>
    <path d="M678.62,476.15v-88.47h-.4l-15.55,88.47h-16.77l-16.16-88.47h-.4v88.47h-24.64v-145.03h36.36l12.73,74.74h.4l14.34-74.74h34.74v145.03h-24.64Z"/>
    <path d="M836.08,476.15v-145.03h65.04v27.27h-35.75v29.9h28.68v26.06h-28.68v34.54h37.77v27.27h-67.06Z"/>
    <path d="M1072.93,370.1c-.61-7.47-2.42-15.76-9.9-15.76-5.25,0-7.27,3.64-7.27,8.28,0,27.07,44.84,34.95,44.84,77.97,0,23.03-14.14,37.17-37.77,37.17-26.66,0-34.95-14.14-36.56-39.19l27.07-2.02c.81,11.11,2.63,16.77,9.9,16.77,5.05,0,8.28-3.64,8.28-10.71,0-27.67-43.63-35.75-43.63-77.57,0-21.21,11.72-35.55,34.74-35.55,27.47,0,34.54,17.98,36.16,38.58l-25.86,2.02Z"/>
  </g>
  <g>
    <path d="M47.27,636.15l-11.51-56.15h-6.67v56.15H0v-145.03h35.35c25.45,0,39.39,9.49,39.39,40.4,0,17.37-5.45,27.47-13.74,33.13l17.57,71.51h-31.31ZM31.71,555.55c9.29,0,12.32-4.65,12.32-20.2,0-19.39-7.88-19.39-12.32-19.39h-2.63v39.59h2.63Z"/>
    <path d="M250.58,636.15v-61.61h-17.17v61.61h-29.29v-145.03h29.29v57.37h17.17v-57.37h28.89v145.03h-28.89Z"/>
    <path d="M427.43,636.15v-57.57l-27.67-87.46h30.5l11.31,50.9h.4l11.92-50.9h30.5l-27.67,87.67v57.37h-29.29Z"/>
    <path d="M678.62,636.15v-88.47h-.4l-15.55,88.47h-16.77l-16.16-88.47h-.4v88.47h-24.64v-145.03h36.36l12.73,74.74h.4l14.34-74.74h34.74v145.03h-24.64Z"/>
    <path d="M836.08,636.15v-145.03h65.04v27.27h-35.75v29.9h28.68v26.06h-28.68v34.54h37.77v27.27h-67.06Z"/>
    <path d="M1072.93,530.1c-.61-7.47-2.42-15.76-9.9-15.76-5.25,0-7.27,3.64-7.27,8.28,0,27.07,44.84,34.95,44.84,77.97,0,23.03-14.14,37.17-37.77,37.17-26.66,0-34.95-14.14-36.56-39.19l27.07-2.02c.81,11.11,2.63,16.77,9.9,16.77,5.05,0,8.28-3.64,8.28-10.71,0-27.67-43.63-35.75-43.63-77.57,0-21.21,11.72-35.55,34.74-35.55,27.47,0,34.54,17.98,36.16,38.58l-25.86,2.02Z"/>
  </g>
  <g>
    <path d="M47.27,796.15l-11.51-56.15h-6.67v56.15H0v-145.03h35.35c25.45,0,39.39,9.49,39.39,40.4,0,17.37-5.45,27.47-13.74,33.13l17.57,71.51h-31.31ZM31.71,715.55c9.29,0,12.32-4.65,12.32-20.2,0-19.39-7.88-19.39-12.32-19.39h-2.63v39.59h2.63Z"/>
    <path d="M250.58,796.15v-61.61h-17.17v61.61h-29.29v-145.03h29.29v57.37h17.17v-57.37h28.89v145.03h-28.89Z"/>
    <path d="M427.43,796.15v-57.57l-27.67-87.46h30.5l11.31,50.9h.4l11.92-50.9h30.5l-27.67,87.67v57.37h-29.29Z"/>
    <path d="M678.62,796.15v-88.47h-.4l-15.55,88.47h-16.77l-16.16-88.47h-.4v88.47h-24.64v-145.03h36.36l12.73,74.74h.4l14.34-74.74h34.74v145.03h-24.64Z"/>
    <path d="M836.08,796.15v-145.03h65.04v27.27h-35.75v29.9h28.68v26.06h-28.68v34.54h37.77v27.27h-67.06Z"/>
    <path d="M1072.93,690.1c-.61-7.47-2.42-15.76-9.9-15.76-5.25,0-7.27,3.64-7.27,8.28,0,27.07,44.84,34.95,44.84,77.97,0,23.03-14.14,37.17-37.77,37.17-26.66,0-34.95-14.14-36.56-39.19l27.07-2.02c.81,11.11,2.63,16.77,9.9,16.77,5.05,0,8.28-3.64,8.28-10.71,0-27.67-43.63-35.75-43.63-77.57,0-21.21,11.72-35.55,34.74-35.55,27.47,0,34.54,17.98,36.16,38.58l-25.86,2.02Z"/>
  </g>
</svg>